<?xml version="1.0" encoding="UTF-8"?>
<!DOCTYPE svg PUBLIC "-//W3C//DTD SVG 1.1//EN" "http://www.w3.org/Graphics/SVG/1.1/DTD/svg11.dtd">
<svg xmlns="http://www.w3.org/2000/svg" version="1.1" width="2000px" height="800px" style="shape-rendering:geometricPrecision; text-rendering:geometricPrecision; image-rendering:optimizeQuality; fill-rule:evenodd; clip-rule:evenodd" xmlns:xlink="http://www.w3.org/1999/xlink">
<g><path style="opacity:0.055" fill="#f8fbfd" d="M 740.5,85.5 C 740.897,84.475 741.563,84.3083 742.5,85C 741.906,85.4643 741.239,85.631 740.5,85.5 Z"/></g>
<g><path style="opacity:1" fill="#f2c8cf" d="M 738.5,87.5 C 741.553,87.1107 744.22,87.7773 746.5,89.5C 745.041,89.5674 743.708,89.2341 742.5,88.5C 740.007,89.7736 737.341,90.4403 734.5,90.5C 735.833,89.5 737.167,88.5 738.5,87.5 Z"/></g>
<g><path style="opacity:1" fill="#ebbbc3" d="M 742.5,88.5 C 743.708,89.2341 745.041,89.5674 746.5,89.5C 752.127,91.4876 757.794,93.4876 763.5,95.5C 763.022,105.847 762.355,116.181 761.5,126.5C 758.55,127.308 755.883,128.642 753.5,130.5C 751.566,131.11 749.899,132.11 748.5,133.5C 746.208,134.891 743.708,135.891 741,136.5C 739.301,136.613 738.134,135.947 737.5,134.5C 739.117,135.038 740.784,135.371 742.5,135.5C 742.782,130.073 742.449,124.74 741.5,119.5C 743.527,119.338 745.527,119.505 747.5,120C 748.085,121.302 748.751,122.469 749.5,123.5C 751.114,125.075 753.114,125.741 755.5,125.5C 754.62,121.635 753.287,117.968 751.5,114.5C 750.618,110.407 748.951,106.74 746.5,103.5C 744.819,100.093 743.153,96.7594 741.5,93.5C 742.038,91.8828 742.371,90.2161 742.5,88.5 Z"/></g>
<g><path style="opacity:1" fill="#f2bcc3" d="M 742.5,88.5 C 742.371,90.2161 742.038,91.8828 741.5,93.5C 739.238,97.1695 737.571,101.17 736.5,105.5C 735.094,105.973 734.427,106.973 734.5,108.5C 731.973,113.415 729.64,118.415 727.5,123.5C 726.596,124.209 726.263,125.209 726.5,126.5C 725.5,126.5 724.5,126.5 723.5,126.5C 723.662,124.473 723.495,122.473 723,120.5C 722.617,119.944 722.117,119.611 721.5,119.5C 721.844,114.878 721.177,110.545 719.5,106.5C 719.448,102.802 719.114,99.1352 718.5,95.5C 723.849,93.822 729.183,92.1554 734.5,90.5C 737.341,90.4403 740.007,89.7736 742.5,88.5 Z"/></g>
<g><path style="opacity:0.531" fill="#f6ecef" d="M 738.5,87.5 C 737.167,88.5 735.833,89.5 734.5,90.5C 729.183,92.1554 723.849,93.822 718.5,95.5C 718.833,94.8333 719.167,94.1667 719.5,93.5C 725.573,90.6979 731.907,88.6979 738.5,87.5 Z"/></g>
<g><path style="opacity:0.549" fill="#f5ebef" d="M 766.5,97.5 C 765.833,99.1667 765.167,100.833 764.5,102.5C 764.802,99.9407 764.468,97.6074 763.5,95.5C 757.794,93.4876 752.127,91.4876 746.5,89.5C 744.22,87.7773 741.553,87.1107 738.5,87.5C 740.556,86.7839 742.723,86.1172 745,85.5C 745.388,86.428 746.055,87.0946 747,87.5C 752.649,88.7156 757.982,90.7156 763,93.5C 763.333,93.1667 763.667,92.8333 764,92.5C 765.438,93.9003 766.271,95.567 766.5,97.5 Z"/></g>
<g><path style="opacity:0.044" fill="#f3f9fc" d="M 1281.5,93.5 C 1280.81,95.0222 1279.64,96.0222 1278,96.5C 1266.54,88.7739 1261.71,91.7739 1263.5,105.5C 1262.5,105.5 1261.5,105.5 1260.5,105.5C 1261.39,104.739 1262.06,103.739 1262.5,102.5C 1261.89,99.6104 1261.56,96.7771 1261.5,94C 1265.86,89.6148 1270.36,89.4481 1275,93.5C 1276.02,92.3659 1276.68,92.6992 1277,94.5C 1278.36,93.6198 1279.86,93.2865 1281.5,93.5 Z"/></g>
<g><path style="opacity:0.999" fill="#d4f3fc" d="M 1281.5,93.5 C 1291.15,91.4881 1294.81,95.4881 1292.5,105.5C 1290.63,103.922 1289.29,104.255 1288.5,106.5C 1287.5,106.5 1286.5,106.5 1285.5,106.5C 1285.22,105.222 1284.55,104.222 1283.5,103.5C 1285.5,103.5 1287.5,103.5 1289.5,103.5C 1289.5,100.833 1289.5,98.1667 1289.5,95.5C 1285.68,94.7887 1282.68,95.9554 1280.5,99C 1281.41,100.406 1282.08,101.906 1282.5,103.5C 1280.61,103.414 1278.61,103.081 1276.5,102.5C 1278.3,101.305 1279.3,99.6382 1279.5,97.5C 1278.5,97.5 1277.5,97.5 1276.5,97.5C 1276.74,98.791 1276.4,99.791 1275.5,100.5C 1274.43,97.5103 1272.26,95.5103 1269,94.5C 1268.23,94.6448 1267.56,94.9781 1267,95.5C 1266.5,98.146 1266.34,100.813 1266.5,103.5C 1268.5,103.5 1270.5,103.5 1272.5,103.5C 1271.39,104.29 1270.06,104.79 1268.5,105C 1271.06,106.481 1271.06,107.981 1268.5,109.5C 1267.81,107.726 1266.98,106.059 1266,104.5C 1265.33,105.252 1264.5,105.586 1263.5,105.5C 1261.71,91.7739 1266.54,88.7739 1278,96.5C 1279.64,96.0222 1280.81,95.0222 1281.5,93.5 Z"/></g>
<g><path style="opacity:1" fill="#f7fafc" d="M 1283.5,103.5 C 1283.17,103.5 1282.83,103.5 1282.5,103.5C 1282.08,101.906 1281.41,100.406 1280.5,99C 1282.68,95.9554 1285.68,94.7887 1289.5,95.5C 1289.5,98.1667 1289.5,100.833 1289.5,103.5C 1287.5,103.5 1285.5,103.5 1283.5,103.5 Z"/></g>
<g><path style="opacity:0.055" fill="#f8fbfd" d="M 766.5,97.5 C 766.318,99.5914 766.652,101.591 767.5,103.5C 766.083,106.092 765.083,108.759 764.5,111.5C 764.5,108.5 764.5,105.5 764.5,102.5C 765.167,100.833 765.833,99.1667 766.5,97.5 Z"/></g>
<g><path style="opacity:1" fill="#f7fafc" d="M 1275.5,100.5 C 1274.27,101.306 1273.27,102.306 1272.5,103.5C 1270.5,103.5 1268.5,103.5 1266.5,103.5C 1266.34,100.813 1266.5,98.146 1267,95.5C 1267.56,94.9781 1268.23,94.6448 1269,94.5C 1272.26,95.5103 1274.43,97.5103 1275.5,100.5 Z"/></g>
<g><path style="opacity:0.122" fill="#f8f5f8" d="M 719.5,93.5 C 719.167,94.1667 718.833,94.8333 718.5,95.5C 719.114,99.1352 719.448,102.802 719.5,106.5C 719.768,108.099 719.434,109.432 718.5,110.5C 717.892,106.528 717.392,102.528 717,98.5C 716.111,99.8882 715.611,99.7215 715.5,98C 716.148,96.5603 716.481,95.0603 716.5,93.5C 717.5,93.5 718.5,93.5 719.5,93.5 Z"/></g>
<g><path style="opacity:1" fill="#f8f4f6" d="M 741.5,93.5 C 743.153,96.7594 744.819,100.093 746.5,103.5C 746.837,107.836 748.504,111.503 751.5,114.5C 753.287,117.968 754.62,121.635 755.5,125.5C 753.114,125.741 751.114,125.075 749.5,123.5C 749.714,121.856 749.38,120.356 748.5,119C 743.798,118.172 739.131,118.338 734.5,119.5C 733.691,121.071 733.357,122.738 733.5,124.5C 732.833,124.5 732.5,124.833 732.5,125.5C 730.219,125.923 728.552,125.256 727.5,123.5C 729.64,118.415 731.973,113.415 734.5,108.5C 735.906,108.027 736.573,107.027 736.5,105.5C 737.571,101.17 739.238,97.1695 741.5,93.5 Z"/></g>
<g><path style="opacity:1" fill="#f3e1e5" d="M 746.5,103.5 C 748.951,106.74 750.618,110.407 751.5,114.5C 748.504,111.503 746.837,107.836 746.5,103.5 Z"/></g>
<g><path style="opacity:1" fill="#f5dde1" d="M 736.5,105.5 C 736.573,107.027 735.906,108.027 734.5,108.5C 734.427,106.973 735.094,105.973 736.5,105.5 Z"/></g>
<g><path style="opacity:1" fill="#eebbc3" d="M 744.5,111.5 C 743.081,112.451 741.415,112.784 739.5,112.5C 739.629,110.784 739.962,109.117 740.5,107.5C 740.461,106.244 740.961,105.244 742,104.5C 743.411,106.65 744.245,108.984 744.5,111.5 Z"/></g>
<g><path style="opacity:1" fill="#c9f1fc" d="M 1282.5,103.5 C 1282.83,103.5 1283.17,103.5 1283.5,103.5C 1284.55,104.222 1285.22,105.222 1285.5,106.5C 1286.75,110.31 1287.75,110.31 1288.5,106.5C 1289.29,104.255 1290.63,103.922 1292.5,105.5C 1295.43,106.639 1298.1,108.306 1300.5,110.5C 1300.66,111.873 1300.49,113.207 1300,114.5C 1299.77,113.263 1299.27,112.263 1298.5,111.5C 1296.86,110.343 1295.2,109.176 1293.5,108C 1292.36,107.251 1291.36,107.417 1290.5,108.5C 1289.38,111.812 1289.38,115.145 1290.5,118.5C 1293.1,119.969 1292.77,120.969 1289.5,121.5C 1286.39,121.394 1283.72,122.394 1281.5,124.5C 1280.22,123.032 1278.55,122.365 1276.5,122.5C 1276.5,123.5 1276.5,124.5 1276.5,125.5C 1277.5,125.5 1278.5,125.5 1279.5,125.5C 1279.5,126.5 1279.5,127.5 1279.5,128.5C 1277.8,128.473 1276.47,127.806 1275.5,126.5C 1274.42,124.413 1272.75,123.08 1270.5,122.5C 1268.29,121.732 1265.95,121.065 1263.5,120.5C 1264.17,119.733 1265.01,119.066 1266,118.5C 1267.11,120.037 1268.61,120.703 1270.5,120.5C 1270.26,119.209 1270.6,118.209 1271.5,117.5C 1272.27,118.172 1272.93,119.005 1273.5,120C 1276.7,120.805 1279.7,120.638 1282.5,119.5C 1283.62,117.208 1284.96,115.042 1286.5,113C 1285.17,110.683 1283.84,108.349 1282.5,106C 1276.42,103.899 1272.42,105.733 1270.5,111.5C 1269.84,112.718 1269.17,114.051 1268.5,115.5C 1267.83,114.051 1267.16,112.718 1266.5,111.5C 1266.43,109.689 1265.59,108.356 1264,107.5C 1261.43,108.25 1259.26,109.583 1257.5,111.5C 1256.83,111.5 1256.5,111.167 1256.5,110.5C 1257.83,108.833 1259.17,107.167 1260.5,105.5C 1261.5,105.5 1262.5,105.5 1263.5,105.5C 1264.5,105.586 1265.33,105.252 1266,104.5C 1266.98,106.059 1267.81,107.726 1268.5,109.5C 1271.06,107.981 1271.06,106.481 1268.5,105C 1270.06,104.79 1271.39,104.29 1272.5,103.5C 1273.27,102.306 1274.27,101.306 1275.5,100.5C 1276.4,99.791 1276.74,98.791 1276.5,97.5C 1277.5,97.5 1278.5,97.5 1279.5,97.5C 1279.3,99.6382 1278.3,101.305 1276.5,102.5C 1278.61,103.081 1280.61,103.414 1282.5,103.5 Z"/></g>
<g><path style="opacity:1" fill="#f1cbd1" d="M 740.5,107.5 C 739.962,109.117 739.629,110.784 739.5,112.5C 741.415,112.784 743.081,112.451 744.5,111.5C 745.043,111.56 745.376,111.893 745.5,112.5C 743.257,113.474 740.924,113.808 738.5,113.5C 738.054,110.99 738.72,108.99 740.5,107.5 Z"/></g>
<g><path style="opacity:1" fill="#f4d5da" d="M 719.5,106.5 C 721.177,110.545 721.844,114.878 721.5,119.5C 721.098,116.523 720.098,113.857 718.5,111.5C 718.5,111.167 718.5,110.833 718.5,110.5C 719.434,109.432 719.768,108.099 719.5,106.5 Z"/></g>
<g><path style="opacity:0.69" fill="#f3e0e4" d="M 763.5,95.5 C 764.468,97.6074 764.802,99.9407 764.5,102.5C 764.5,105.5 764.5,108.5 764.5,111.5C 764.167,114.167 763.833,116.833 763.5,119.5C 762.532,121.607 762.198,123.941 762.5,126.5C 762.167,126.5 761.833,126.5 761.5,126.5C 762.355,116.181 763.022,105.847 763.5,95.5 Z"/></g>
<g><path style="opacity:0.071" fill="#f7f4f7" d="M 718.5,111.5 C 720.098,113.857 721.098,116.523 721.5,119.5C 719.943,125.604 722.277,128.938 728.5,129.5C 729.514,130.674 730.847,131.34 732.5,131.5C 733.262,133.262 734.596,134.262 736.5,134.5C 736.833,134.5 737.167,134.5 737.5,134.5C 738.134,135.947 739.301,136.613 741,136.5C 743.708,135.891 746.208,134.891 748.5,133.5C 749.5,133.5 750.5,133.5 751.5,133.5C 750.713,135.104 749.38,135.771 747.5,135.5C 747.719,136.675 747.386,137.675 746.5,138.5C 744.466,138.772 742.466,139.105 740.5,139.5C 734.154,136.239 727.987,132.573 722,128.5C 721.667,128.833 721.333,129.167 721,129.5C 720.365,128.034 719.531,126.7 718.5,125.5C 719.074,123.941 719.74,122.441 720.5,121C 717.382,117.955 716.716,114.788 718.5,111.5 Z"/></g>
<g><path style="opacity:1" fill="#f1c9d0" d="M 749.5,123.5 C 748.751,122.469 748.085,121.302 747.5,120C 745.527,119.505 743.527,119.338 741.5,119.5C 739.5,119.5 737.5,119.5 735.5,119.5C 735.598,121.553 734.931,123.22 733.5,124.5C 733.357,122.738 733.691,121.071 734.5,119.5C 739.131,118.338 743.798,118.172 748.5,119C 749.38,120.356 749.714,121.856 749.5,123.5 Z"/></g>
<g><path style="opacity:0.202" fill="#f8fafc" d="M 763.5,119.5 C 763.415,121.533 763.748,123.699 764.5,126C 764.317,127.684 763.65,127.85 762.5,126.5C 762.198,123.941 762.532,121.607 763.5,119.5 Z"/></g>
<g><path style="opacity:1" fill="#f3c6cc" d="M 721.5,119.5 C 722.117,119.611 722.617,119.944 723,120.5C 723.495,122.473 723.662,124.473 723.5,126.5C 724.5,126.5 725.5,126.5 726.5,126.5C 726.263,125.209 726.596,124.209 727.5,123.5C 728.552,125.256 730.219,125.923 732.5,125.5C 731.048,126.302 729.382,126.802 727.5,127C 728.252,127.671 728.586,128.504 728.5,129.5C 722.277,128.938 719.943,125.604 721.5,119.5 Z"/></g>
<g><path style="opacity:0.059" fill="#f6eff2" d="M 761.5,126.5 C 761.833,126.5 762.167,126.5 762.5,126.5C 762.586,127.496 762.252,128.329 761.5,129C 758.46,131.22 755.127,132.72 751.5,133.5C 752.167,132.5 752.833,131.5 753.5,130.5C 755.883,128.642 758.55,127.308 761.5,126.5 Z"/></g>
<g><path style="opacity:1" fill="#f1bbc2" d="M 741.5,119.5 C 742.449,124.74 742.782,130.073 742.5,135.5C 740.784,135.371 739.117,135.038 737.5,134.5C 737.167,134.5 736.833,134.5 736.5,134.5C 735.738,132.738 734.404,131.738 732.5,131.5C 730.847,131.34 729.514,130.674 728.5,129.5C 728.586,128.504 728.252,127.671 727.5,127C 729.382,126.802 731.048,126.302 732.5,125.5C 732.5,124.833 732.833,124.5 733.5,124.5C 734.931,123.22 735.598,121.553 735.5,119.5C 737.5,119.5 739.5,119.5 741.5,119.5 Z"/></g>
<g><path style="opacity:0.299" fill="#f1f8fc" d="M 1260.5,105.5 C 1259.17,107.167 1257.83,108.833 1256.5,110.5C 1255.35,110.791 1254.68,111.624 1254.5,113C 1255.81,117.473 1258.81,119.973 1263.5,120.5C 1262.13,133.894 1266.97,136.894 1278,129.5C 1288.38,137.474 1293.38,134.807 1293,121.5C 1295.85,119.743 1298.51,117.743 1301,115.5C 1301.78,113.613 1301.61,111.946 1300.5,110.5C 1298.1,108.306 1295.43,106.639 1292.5,105.5C 1294.81,95.4881 1291.15,91.4881 1281.5,93.5C 1281.62,92.4138 1282.29,91.7472 1283.5,91.5C 1288.56,90.0108 1292.4,91.6775 1295,96.5C 1295.96,99.3788 1295.46,101.879 1293.5,104C 1295.52,104.45 1297.35,105.283 1299,106.5C 1300.67,105.66 1300.83,106.16 1299.5,108C 1300.57,109.284 1301.91,109.617 1303.5,109C 1303.5,111.333 1303.5,113.667 1303.5,116C 1301.02,118.744 1298.02,120.744 1294.5,122C 1295.6,124.401 1295.77,126.901 1295,129.5C 1290.21,136.724 1284.54,137.39 1278,131.5C 1275.02,133.774 1271.86,135.774 1268.5,137.5C 1265.99,135.489 1263.66,133.322 1261.5,131C 1261.45,128.223 1261.62,125.389 1262,122.5C 1259.58,121.039 1257.08,119.706 1254.5,118.5C 1253.77,116.659 1253.1,114.825 1252.5,113C 1253.83,112 1253.83,111 1252.5,110C 1255,108.833 1256.83,107 1258,104.5C 1258.67,105.252 1259.5,105.586 1260.5,105.5 Z"/></g>
<g><path style="opacity:1" fill="#d2f3fc" d="M 1300.5,110.5 C 1301.61,111.946 1301.78,113.613 1301,115.5C 1298.51,117.743 1295.85,119.743 1293,121.5C 1293.38,134.807 1288.38,137.474 1278,129.5C 1266.97,136.894 1262.13,133.894 1263.5,120.5C 1265.95,121.065 1268.29,121.732 1270.5,122.5C 1269.17,122.5 1267.83,122.5 1266.5,122.5C 1266.22,125.448 1266.56,128.281 1267.5,131C 1271.53,131.818 1274.2,130.318 1275.5,126.5C 1276.47,127.806 1277.8,128.473 1279.5,128.5C 1279.5,127.5 1279.5,126.5 1279.5,125.5C 1278.5,125.5 1277.5,125.5 1276.5,125.5C 1276.5,124.5 1276.5,123.5 1276.5,122.5C 1278.55,122.365 1280.22,123.032 1281.5,124.5C 1280.56,129.718 1282.89,131.885 1288.5,131C 1289.45,127.943 1289.78,124.777 1289.5,121.5C 1292.77,120.969 1293.1,119.969 1290.5,118.5C 1295.73,118.901 1298.4,116.568 1298.5,111.5C 1299.27,112.263 1299.77,113.263 1300,114.5C 1300.49,113.207 1300.66,111.873 1300.5,110.5 Z"/></g>
<g><path style="opacity:1" fill="#f6fafc" d="M 1289.5,121.5 C 1289.78,124.777 1289.45,127.943 1288.5,131C 1282.89,131.885 1280.56,129.718 1281.5,124.5C 1283.72,122.394 1286.39,121.394 1289.5,121.5 Z"/></g>
<g><path style="opacity:1" fill="#f6fafc" d="M 1270.5,122.5 C 1272.75,123.08 1274.42,124.413 1275.5,126.5C 1274.2,130.318 1271.53,131.818 1267.5,131C 1266.56,128.281 1266.22,125.448 1266.5,122.5C 1267.83,122.5 1269.17,122.5 1270.5,122.5 Z"/></g>
<g><path style="opacity:1" fill="#e7f6fc" d="M 1281.5,110.5 C 1282.81,112.56 1282.81,114.726 1281.5,117C 1278.83,117.333 1276.17,117.667 1273.5,118C 1276.28,119.392 1279.28,119.892 1282.5,119.5C 1279.7,120.638 1276.7,120.805 1273.5,120C 1272.93,119.005 1272.27,118.172 1271.5,117.5C 1271.5,117.167 1271.5,116.833 1271.5,116.5C 1273.03,115.198 1274.03,113.531 1274.5,111.5C 1274.69,116.014 1276.86,117.347 1281,115.5C 1281.49,113.866 1281.66,112.199 1281.5,110.5 Z"/></g>
<g><path style="opacity:1" fill="#d2f3fc" d="M 1256.5,110.5 C 1256.5,111.167 1256.83,111.5 1257.5,111.5C 1257.83,116.675 1260.5,118.341 1265.5,116.5C 1266.31,114.929 1266.64,113.262 1266.5,111.5C 1267.16,112.718 1267.83,114.051 1268.5,115.5C 1269.17,114.051 1269.84,112.718 1270.5,111.5C 1270.37,113.292 1270.7,114.958 1271.5,116.5C 1271.5,116.833 1271.5,117.167 1271.5,117.5C 1270.6,118.209 1270.26,119.209 1270.5,120.5C 1268.61,120.703 1267.11,120.037 1266,118.5C 1265.01,119.066 1264.17,119.733 1263.5,120.5C 1258.81,119.973 1255.81,117.473 1254.5,113C 1254.68,111.624 1255.35,110.791 1256.5,110.5 Z"/></g>
<g><path style="opacity:1" fill="#e6f6fc" d="M 1286.5,116.5 C 1289.02,117.759 1288.85,119.093 1286,120.5C 1285.81,119.181 1285.97,117.847 1286.5,116.5 Z"/></g>
<g><path style="opacity:1" fill="#f3f9fc" d="M 1282.5,119.5 C 1279.28,119.892 1276.28,119.392 1273.5,118C 1276.17,117.667 1278.83,117.333 1281.5,117C 1282.81,114.726 1282.81,112.56 1281.5,110.5C 1278.78,108.914 1276.45,109.247 1274.5,111.5C 1274.03,113.531 1273.03,115.198 1271.5,116.5C 1270.7,114.958 1270.37,113.292 1270.5,111.5C 1272.42,105.733 1276.42,103.899 1282.5,106C 1283.84,108.349 1285.17,110.683 1286.5,113C 1284.96,115.042 1283.62,117.208 1282.5,119.5 Z"/></g>
<g><path style="opacity:1" fill="#c0effc" d="M 1281.5,110.5 C 1281.66,112.199 1281.49,113.866 1281,115.5C 1276.86,117.347 1274.69,116.014 1274.5,111.5C 1276.45,109.247 1278.78,108.914 1281.5,110.5 Z"/></g>
<g><path style="opacity:1" fill="#f4f9fc" d="M 1298.5,111.5 C 1298.4,116.568 1295.73,118.901 1290.5,118.5C 1289.38,115.145 1289.38,111.812 1290.5,108.5C 1291.36,107.417 1292.36,107.251 1293.5,108C 1295.2,109.176 1296.86,110.343 1298.5,111.5 Z"/></g>
<g><path style="opacity:1" fill="#f5f9fc" d="M 1266.5,111.5 C 1266.64,113.262 1266.31,114.929 1265.5,116.5C 1260.5,118.341 1257.83,116.675 1257.5,111.5C 1259.26,109.583 1261.43,108.25 1264,107.5C 1265.59,108.356 1266.43,109.689 1266.5,111.5 Z"/></g>
<g><path style="opacity:1" fill="#ebf7fc" d="M 1285.5,106.5 C 1286.5,106.5 1287.5,106.5 1288.5,106.5C 1287.75,110.31 1286.75,110.31 1285.5,106.5 Z"/></g>
<g><path style="opacity:1" fill="#f4d0d7" d="M 732.5,131.5 C 734.404,131.738 735.738,132.738 736.5,134.5C 734.596,134.262 733.262,133.262 732.5,131.5 Z"/></g>
<g><path style="opacity:0.58" fill="#f3dde1" d="M 753.5,130.5 C 752.833,131.5 752.167,132.5 751.5,133.5C 750.5,133.5 749.5,133.5 748.5,133.5C 749.899,132.11 751.566,131.11 753.5,130.5 Z"/></g>
<g><path style="opacity:1" fill="#f7d6e2" d="M 1855.5,192.5 C 1855.78,193.289 1856.28,193.956 1857,194.5C 1857.67,208.5 1857.67,222.5 1857,236.5C 1856.5,237 1856,237.5 1855.5,238C 1841.5,238.667 1827.5,238.667 1813.5,238C 1812.62,237.292 1811.95,236.458 1811.5,235.5C 1811.33,222.163 1811.5,208.829 1812,195.5C 1812.83,194.667 1813.67,193.833 1814.5,193C 1828.16,192.5 1841.83,192.333 1855.5,192.5 Z"/></g>
<g><path style="opacity:0.02" fill="#f7fbfc" d="M 172.5,194.5 C 171.833,193.167 171.833,193.167 172.5,194.5 Z"/></g>
<g><path style="opacity:0.745" fill="#f8f9fb" d="M 1809.5,194.5 C 1809.5,195.167 1809.83,195.5 1810.5,195.5C 1810.5,208.833 1810.5,222.167 1810.5,235.5C 1809.88,235.611 1809.38,235.944 1809,236.5C 1808.17,222.327 1808.34,208.327 1809.5,194.5 Z"/></g>
<g><path style="opacity:0.995" fill="#f7e6ed" d="M 1855.5,192.5 C 1841.83,192.333 1828.16,192.5 1814.5,193C 1813.67,193.833 1812.83,194.667 1812,195.5C 1811.5,208.829 1811.33,222.163 1811.5,235.5C 1811.17,235.5 1810.83,235.5 1810.5,235.5C 1810.5,222.167 1810.5,208.833 1810.5,195.5C 1810.5,195.167 1810.5,194.833 1810.5,194.5C 1811.63,193.878 1812.63,193.045 1813.5,192C 1827.67,191.173 1841.67,191.339 1855.5,192.5 Z"/></g>
<g><path style="opacity:0.176" fill="#f8f3f7" d="M 1810.5,235.5 C 1810.83,235.5 1811.17,235.5 1811.5,235.5C 1811.95,236.458 1812.62,237.292 1813.5,238C 1827.5,238.667 1841.5,238.667 1855.5,238C 1856,237.5 1856.5,237 1857,236.5C 1857.67,222.5 1857.67,208.5 1857,194.5C 1856.28,193.956 1855.78,193.289 1855.5,192.5C 1841.67,191.339 1827.67,191.173 1813.5,192C 1812.63,193.045 1811.63,193.878 1810.5,194.5C 1810.17,194.5 1809.83,194.5 1809.5,194.5C 1810.07,192.745 1810.91,191.078 1812,189.5C 1813.39,190.815 1814.39,190.481 1815,188.5C 1828.09,189.324 1841.26,189.824 1854.5,190C 1856.85,190.11 1858.35,191.277 1859,193.5C 1859.67,207.833 1859.67,222.167 1859,236.5C 1858.5,237 1858,237.5 1857.5,238C 1858.73,239.183 1858.73,240.349 1857.5,241.5C 1856.81,240.975 1856.31,240.308 1856,239.5C 1841.24,240.657 1826.41,240.823 1811.5,240C 1810.62,238.644 1810.29,237.144 1810.5,235.5 Z"/></g>
<g><path style="opacity:0.027" fill="#f2f8f8" d="M 205.5,205.5 C 205.167,205.5 204.833,205.5 204.5,205.5C 197.013,200.587 189.346,195.921 181.5,191.5C 175.483,194.841 169.483,198.174 163.5,201.5C 164.011,199.805 164.678,198.139 165.5,196.5C 166.192,197.025 166.692,197.692 167,198.5C 167.923,197.241 168.757,195.908 169.5,194.5C 170.687,195.653 171.687,195.653 172.5,194.5C 175.719,193.287 178.385,191.287 180.5,188.5C 185.073,191.579 189.407,194.246 193.5,196.5C 195.518,195.187 196.685,195.853 197,198.5C 197.667,199.167 198.333,199.833 199,200.5C 200.84,199.167 201.34,199.334 200.5,201C 203.115,201.612 204.781,203.112 205.5,205.5 Z"/></g>
<g><path style="opacity:1" fill="#f4f9f9" d="M 202.5,233.5 C 203.609,233.443 204.609,233.11 205.5,232.5C 204.307,234.054 203.14,235.721 202,237.5C 199.871,236.137 199.371,236.471 200.5,238.5C 199.349,239.731 198.183,239.731 197,238.5C 193.41,241.045 189.91,243.712 186.5,246.5C 185.914,246.291 185.414,245.957 185,245.5C 184.261,246.574 183.261,247.241 182,247.5C 179.046,245.607 175.879,244.107 172.5,243C 171.167,241.667 171.167,240.333 172.5,239C 170.112,238.135 168.612,238.968 168,241.5C 165.561,238.234 162.394,235.901 158.5,234.5C 157.749,233.624 157.249,232.624 157,231.5C 156.568,221.992 156.401,212.659 156.5,203.5C 156.833,202.5 157.5,201.833 158.5,201.5C 160.003,202.052 161.669,202.052 163.5,201.5C 162.152,202.601 160.652,203.601 159,204.5C 158.333,213.5 158.333,222.5 159,231.5C 162.975,235.915 167.809,237.582 173.5,236.5C 174.75,236.423 175.583,235.756 176,234.5C 176.333,231.167 176.667,227.833 177,224.5C 177.383,225.056 177.883,225.389 178.5,225.5C 180.576,228.702 183.576,230.035 187.5,229.5C 191.355,229.813 194.522,228.48 197,225.5C 197.896,222.975 197.396,220.808 195.5,219C 191.225,217.842 186.891,217.008 182.5,216.5C 182.5,214.833 182.5,213.167 182.5,211.5C 185.518,211.335 188.518,211.502 191.5,212C 192.509,214.172 194.176,215.338 196.5,215.5C 196.256,212.737 194.923,210.571 192.5,209C 188.5,208.333 184.5,208.333 180.5,209C 177.107,213.964 178.107,217.631 183.5,220C 186.167,220.333 188.833,220.667 191.5,221C 193.494,225.137 192.16,226.97 187.5,226.5C 184.692,226.922 182.692,225.922 181.5,223.5C 180.448,221.744 178.781,221.077 176.5,221.5C 176.818,216.968 176.485,212.634 175.5,208.5C 174.5,208.5 173.5,208.5 172.5,208.5C 172.666,216.507 172.5,224.507 172,232.5C 168.285,234.133 165.118,233.466 162.5,230.5C 162.334,222.826 162.5,215.159 163,207.5C 163.717,206.956 164.217,206.289 164.5,205.5C 169.88,201.364 175.88,198.364 182.5,196.5C 187.822,199.98 193.489,202.814 199.5,205C 200,205.5 200.5,206 201,206.5C 201.5,214.493 201.666,222.493 201.5,230.5C 195.107,233.201 189.107,236.701 183.5,241C 180.425,241.139 177.425,240.639 174.5,239.5C 174.281,240.675 174.614,241.675 175.5,242.5C 179.438,244.763 183.438,244.93 187.5,243C 192.134,239.188 197.134,236.021 202.5,233.5 Z"/></g>
<g><path style="opacity:1" fill="#f8f1f6" d="M 1824.5,201.5 C 1826.17,201.5 1827.83,201.5 1829.5,201.5C 1829.5,203.167 1829.5,204.833 1829.5,206.5C 1827.83,206.5 1826.17,206.5 1824.5,206.5C 1824.5,204.833 1824.5,203.167 1824.5,201.5 Z"/></g>
<g><path style="opacity:0.98" fill="#e2f2eb" d="M 204.5,205.5 C 204.833,205.5 205.167,205.5 205.5,205.5C 205.5,214.5 205.5,223.5 205.5,232.5C 204.609,233.11 203.609,233.443 202.5,233.5C 202.783,232.711 203.283,232.044 204,231.5C 204.5,222.84 204.666,214.173 204.5,205.5 Z"/></g>
<g><path style="opacity:0.121" fill="#f7fafb" d="M 205.5,205.5 C 207.121,205.787 208.121,206.787 208.5,208.5C 207.167,215.5 207.167,222.5 208.5,229.5C 207.452,230.548 206.452,231.548 205.5,232.5C 205.5,223.5 205.5,214.5 205.5,205.5 Z"/></g>
<g><path style="opacity:1" fill="#f8ebf2" d="M 1830.5,210.5 C 1833.4,209.225 1836.4,209.225 1839.5,210.5C 1840.1,211.9 1841.1,212.9 1842.5,213.5C 1841.17,213.5 1839.83,213.5 1838.5,213.5C 1836.61,210.901 1833.95,209.901 1830.5,210.5 Z"/></g>
<g><path style="opacity:1" fill="#f8f6f9" d="M 1830.5,210.5 C 1833.95,209.901 1836.61,210.901 1838.5,213.5C 1836.7,217.559 1835.54,221.892 1835,226.5C 1832.57,227.45 1830.07,227.45 1827.5,226.5C 1825.83,226.5 1824.17,226.5 1822.5,226.5C 1822.44,221.797 1822.77,217.13 1823.5,212.5C 1821.82,212.715 1820.82,212.048 1820.5,210.5C 1822.95,209.527 1825.61,209.194 1828.5,209.5C 1826.49,214.223 1825.49,219.223 1825.5,224.5C 1827.71,224.709 1829.38,223.876 1830.5,222C 1831.27,219.864 1831.93,217.697 1832.5,215.5C 1831.45,213.944 1830.79,212.277 1830.5,210.5 Z"/></g>
<g><path style="opacity:1" fill="#f8f7fa" d="M 1847.5,218.5 C 1846.88,218.611 1846.38,218.944 1846,219.5C 1845.5,221.473 1845.34,223.473 1845.5,225.5C 1846.79,225.263 1847.79,225.596 1848.5,226.5C 1846.5,227.833 1844.5,227.833 1842.5,226.5C 1843.12,221.982 1843.12,217.648 1842.5,213.5C 1841.1,212.9 1840.1,211.9 1839.5,210.5C 1842.27,209.068 1844.93,209.401 1847.5,211.5C 1848.8,213.973 1848.8,216.307 1847.5,218.5 Z"/></g>
<g><path style="opacity:1" fill="#f8e6ee" d="M 1842.5,213.5 C 1843.12,217.648 1843.12,221.982 1842.5,226.5C 1841.54,222.33 1841.54,217.997 1842.5,213.5 Z"/></g>
<g><path style="opacity:1" fill="#f8eff4" d="M 1820.5,210.5 C 1820.82,212.048 1821.82,212.715 1823.5,212.5C 1822.77,217.13 1822.44,221.797 1822.5,226.5C 1824.17,226.5 1825.83,226.5 1827.5,226.5C 1825.44,227.811 1823.27,227.811 1821,226.5C 1820.38,222.971 1820.54,219.471 1821.5,216C 1821.05,214.553 1820.39,213.22 1819.5,212C 1819.57,211.235 1819.9,210.735 1820.5,210.5 Z"/></g>
<g><path style="opacity:1" fill="#f7eef4" d="M 1847.5,218.5 C 1846.48,220.54 1846.48,222.54 1847.5,224.5C 1848.28,223.263 1849.28,222.263 1850.5,221.5C 1851.82,223.854 1851.16,225.521 1848.5,226.5C 1847.79,225.596 1846.79,225.263 1845.5,225.5C 1845.34,223.473 1845.5,221.473 1846,219.5C 1846.38,218.944 1846.88,218.611 1847.5,218.5 Z"/></g>
<g><path style="opacity:1" fill="#d3eee1" d="M 204.5,205.5 C 204.666,214.173 204.5,222.84 204,231.5C 203.283,232.044 202.783,232.711 202.5,233.5C 197.134,236.021 192.134,239.188 187.5,243C 183.438,244.93 179.438,244.763 175.5,242.5C 174.614,241.675 174.281,240.675 174.5,239.5C 177.425,240.639 180.425,241.139 183.5,241C 189.107,236.701 195.107,233.201 201.5,230.5C 201.666,222.493 201.5,214.493 201,206.5C 200.5,206 200,205.5 199.5,205C 193.489,202.814 187.822,199.98 182.5,196.5C 175.88,198.364 169.88,201.364 164.5,205.5C 163.504,205.414 162.671,205.748 162,206.5C 161.177,214.677 161.344,222.677 162.5,230.5C 165.118,233.466 168.285,234.133 172,232.5C 172.5,224.507 172.666,216.507 172.5,208.5C 173.5,208.5 174.5,208.5 175.5,208.5C 175.666,216.84 175.5,225.173 175,233.5C 174.487,234.527 173.987,235.527 173.5,236.5C 167.809,237.582 162.975,235.915 159,231.5C 158.333,222.5 158.333,213.5 159,204.5C 160.652,203.601 162.152,202.601 163.5,201.5C 169.483,198.174 175.483,194.841 181.5,191.5C 189.346,195.921 197.013,200.587 204.5,205.5 Z"/></g>
<g><path style="opacity:1" fill="#d3eee1" d="M 178.5,225.5 C 178.402,222.752 179.402,222.086 181.5,223.5C 182.692,225.922 184.692,226.922 187.5,226.5C 192.16,226.97 193.494,225.137 191.5,221C 188.833,220.667 186.167,220.333 183.5,220C 178.107,217.631 177.107,213.964 180.5,209C 184.5,208.333 188.5,208.333 192.5,209C 194.923,210.571 196.256,212.737 196.5,215.5C 194.176,215.338 192.509,214.172 191.5,212C 188.518,211.502 185.518,211.335 182.5,211.5C 182.5,213.167 182.5,214.833 182.5,216.5C 186.891,217.008 191.225,217.842 195.5,219C 197.396,220.808 197.896,222.975 197,225.5C 194.522,228.48 191.355,229.813 187.5,229.5C 183.576,230.035 180.576,228.702 178.5,225.5 Z"/></g>
<g><path style="opacity:1" fill="#e8f5f0" d="M 175.5,208.5 C 176.485,212.634 176.818,216.968 176.5,221.5C 178.781,221.077 180.448,221.744 181.5,223.5C 179.402,222.086 178.402,222.752 178.5,225.5C 177.883,225.389 177.383,225.056 177,224.5C 176.667,227.833 176.333,231.167 176,234.5C 175.583,235.756 174.75,236.423 173.5,236.5C 173.987,235.527 174.487,234.527 175,233.5C 175.5,225.173 175.666,216.84 175.5,208.5 Z"/></g>
<g><path style="opacity:1" fill="#e5f4ee" d="M 164.5,205.5 C 164.217,206.289 163.717,206.956 163,207.5C 162.5,215.159 162.334,222.826 162.5,230.5C 161.344,222.677 161.177,214.677 162,206.5C 162.671,205.748 163.504,205.414 164.5,205.5 Z"/></g>
<g><path style="opacity:0.751" fill="#f1eff6" d="M 441.5,275.5 C 441.5,275.833 441.5,276.167 441.5,276.5C 441.167,276.5 440.833,276.5 440.5,276.5C 425.5,276.5 410.5,276.5 395.5,276.5C 394.504,291.658 394.17,306.991 394.5,322.5C 393.504,307.009 393.17,291.342 393.5,275.5C 409.598,274.177 425.598,274.177 441.5,275.5 Z"/></g>
<g><path style="opacity:0.402" fill="#f0f2f5" d="M 1592.5,276.5 C 1592.78,275.711 1593.28,275.044 1594,274.5C 1599.59,275.047 1605.09,276.213 1610.5,278C 1613.41,280.587 1616.58,282.754 1620,284.5C 1620.62,285.449 1620.45,286.282 1619.5,287C 1626.8,302.696 1622.97,314.863 1608,323.5C 1607.67,323.167 1607.33,322.833 1607,322.5C 1599.65,325.389 1592.48,324.889 1585.5,321C 1582.31,319.305 1579.97,316.805 1578.5,313.5C 1577.31,312.571 1575.98,312.238 1574.5,312.5C 1573.3,304.637 1573.3,297.137 1574.5,290C 1577.7,287.298 1580.37,284.131 1582.5,280.5C 1585.44,278.187 1588.77,276.854 1592.5,276.5 Z"/></g>
<g><path style="opacity:1" fill="#d7dbde" d="M 1592.5,276.5 C 1618.19,277.34 1626.35,289.673 1617,313.5C 1606.91,323.574 1595.74,324.907 1583.5,317.5C 1573.68,306.845 1573.01,295.678 1581.5,284C 1584.85,280.995 1588.52,278.495 1592.5,276.5 Z"/></g>
<g><path style="opacity:1" fill="#eaedef" d="M 1605.5,294.5 C 1606.76,295.514 1607.43,297.014 1607.5,299C 1607.17,300.5 1606.83,302 1606.5,303.5C 1605.83,303.167 1605.17,302.833 1604.5,302.5C 1602.3,303.738 1600.14,305.072 1598,306.5C 1595.12,305.06 1592.12,304.06 1589,303.5C 1588.66,301.182 1589.16,299.015 1590.5,297C 1592.7,296.175 1594.53,296.675 1596,298.5C 1598.8,295.887 1601.63,295.887 1604.5,298.5C 1605.43,297.311 1605.76,295.978 1605.5,294.5 Z"/></g>
<g><path style="opacity:1" fill="#e7eaed" d="M 1611.5,293.5 C 1612.82,293.33 1613.99,293.663 1615,294.5C 1615.67,298.167 1615.67,301.833 1615,305.5C 1613.82,306.731 1612.65,306.731 1611.5,305.5C 1612.76,301.502 1612.76,297.502 1611.5,293.5 Z"/></g>
<g><path style="opacity:1" fill="#e6e9ec" d="M 1582.5,293.5 C 1583.68,293.281 1584.68,293.614 1585.5,294.5C 1584.17,298.167 1584.17,301.833 1585.5,305.5C 1584.35,306.731 1583.18,306.731 1582,305.5C 1581.24,301.413 1581.4,297.413 1582.5,293.5 Z"/></g>
<g><path style="opacity:0.6" fill="#f5f6fa" d="M 393.5,275.5 C 393.17,291.342 393.504,307.009 394.5,322.5C 409.991,323.496 425.658,323.83 441.5,323.5C 441.5,307.833 441.5,292.167 441.5,276.5C 441.5,276.167 441.5,275.833 441.5,275.5C 442.831,283.138 443.498,291.138 443.5,299.5C 450.591,323.575 442.091,332.242 418,325.5C 409.788,325.485 401.621,325.152 393.5,324.5C 392.173,308.005 392.173,291.672 393.5,275.5 Z"/></g>
<g><path style="opacity:1" fill="#e9e0ef" d="M 395.5,276.5 C 395.5,291.833 395.5,307.167 395.5,322.5C 410.5,322.5 425.5,322.5 440.5,322.5C 440.5,307.167 440.5,291.833 440.5,276.5C 440.833,276.5 441.167,276.5 441.5,276.5C 441.5,292.167 441.5,307.833 441.5,323.5C 425.658,323.83 409.991,323.496 394.5,322.5C 394.17,306.991 394.504,291.658 395.5,276.5 Z"/></g>
<g><path style="opacity:1" fill="#e5d9eb" d="M 395.5,276.5 C 410.5,276.5 425.5,276.5 440.5,276.5C 440.5,291.833 440.5,307.167 440.5,322.5C 425.5,322.5 410.5,322.5 395.5,322.5C 395.5,307.167 395.5,291.833 395.5,276.5 Z"/></g>
<g><path style="opacity:1" fill="#f0edf5" d="M 413.5,297.5 C 414.161,299.134 414.494,300.967 414.5,303C 414.453,305.295 413.787,307.129 412.5,308.5C 408.557,300.505 406.89,300.839 407.5,309.5C 406.5,309.5 405.5,309.5 404.5,309.5C 404.5,305.167 404.5,300.833 404.5,296.5C 406.39,296.297 407.89,296.963 409,298.5C 412.802,308.113 414.302,307.78 413.5,297.5 Z"/></g>
<g><path style="opacity:1" fill="#f1eef6" d="M 432.5,296.5 C 433.043,296.56 433.376,296.893 433.5,297.5C 432.675,298.386 431.675,298.719 430.5,298.5C 429.833,311.833 429.167,311.833 428.5,298.5C 427.5,298.5 426.5,298.5 425.5,298.5C 427.279,296.656 429.612,295.99 432.5,296.5 Z"/></g>
<g><path style="opacity:1" fill="#f0ecf5" d="M 423.5,298.5 C 422.167,298.5 420.833,298.5 419.5,298.5C 419.5,299.5 419.5,300.5 419.5,301.5C 424.833,302.167 424.833,302.833 419.5,303.5C 419.5,304.833 419.5,306.167 419.5,307.5C 420.978,307.238 422.311,307.571 423.5,308.5C 421.647,309.76 419.814,309.76 418,308.5C 417.501,304.848 417.335,301.182 417.5,297.5C 420.012,295.821 422.012,296.155 423.5,298.5 Z"/></g>
<g><path style="opacity:1" fill="#ebe4f0" d="M 432.5,296.5 C 429.612,295.99 427.279,296.656 425.5,298.5C 424.833,298.5 424.167,298.5 423.5,298.5C 422.012,296.155 420.012,295.821 417.5,297.5C 417.719,296.325 417.386,295.325 416.5,294.5C 415.506,299.456 415.173,304.456 415.5,309.5C 414.209,309.737 413.209,309.404 412.5,308.5C 413.787,307.129 414.453,305.295 414.5,303C 414.494,300.967 414.161,299.134 413.5,297.5C 413.5,296.833 413.5,296.167 413.5,295.5C 414.249,294.469 414.915,293.302 415.5,292C 418.23,291.272 420.897,291.438 423.5,292.5C 426.021,291.215 428.687,290.548 431.5,290.5C 431.325,292.621 431.659,294.621 432.5,296.5 Z"/></g>
<g><path style="opacity:1" fill="#ece5f0" d="M 413.5,295.5 C 411.143,295.663 408.81,295.497 406.5,295C 404.503,293.847 404.17,292.347 405.5,290.5C 406.833,291.833 408.167,291.833 409.5,290.5C 411.931,291.36 413.264,293.027 413.5,295.5 Z"/></g>
<g><path style="opacity:0.121" fill="#f8f9f8" d="M 1942.5,428.5 C 1942.74,427.209 1942.4,426.209 1941.5,425.5C 1941.5,424.833 1941.17,424.5 1940.5,424.5C 1938.07,420.618 1935.4,416.952 1932.5,413.5C 1931.08,412.549 1929.41,412.216 1927.5,412.5C 1921.83,411.167 1916.17,411.167 1910.5,412.5C 1908.59,412.216 1906.92,412.549 1905.5,413.5C 1904.83,413.833 1904.17,414.167 1903.5,414.5C 1901.96,412.449 1902.3,410.782 1904.5,409.5C 1914.03,409.53 1923.53,409.53 1933,409.5C 1935.71,415.475 1939.54,421.141 1944.5,426.5C 1944.25,427.713 1943.59,428.38 1942.5,428.5 Z"/></g>
<g><path style="opacity:1" fill="#f9f2cc" d="M 1910.5,412.5 C 1912.86,412.337 1915.19,412.503 1917.5,413C 1913.63,416.702 1909.96,420.536 1906.5,424.5C 1905.88,424.611 1905.38,424.944 1905,425.5C 1904.64,421.49 1904.81,417.49 1905.5,413.5C 1906.92,412.549 1908.59,412.216 1910.5,412.5 Z"/></g>
<g><path style="opacity:1" fill="#f9f7eb" d="M 1910.5,412.5 C 1916.17,411.167 1921.83,411.167 1927.5,412.5C 1925.08,412.192 1922.74,412.526 1920.5,413.5C 1924.87,416.869 1928.54,420.869 1931.5,425.5C 1927.51,426.166 1923.35,426.499 1919,426.5C 1914.44,426.491 1910.28,425.825 1906.5,424.5C 1909.96,420.536 1913.63,416.702 1917.5,413C 1915.19,412.503 1912.86,412.337 1910.5,412.5 Z"/></g>
<g><path style="opacity:1" fill="#f9f2cd" d="M 1927.5,412.5 C 1929.41,412.216 1931.08,412.549 1932.5,413.5C 1932.31,417.566 1932.64,421.566 1933.5,425.5C 1932.83,425.5 1932.17,425.5 1931.5,425.5C 1928.54,420.869 1924.87,416.869 1920.5,413.5C 1922.74,412.526 1925.08,412.192 1927.5,412.5 Z"/></g>
<g><path style="opacity:1" fill="#f9edcd" d="M 1932.5,413.5 C 1935.4,416.952 1938.07,420.618 1940.5,424.5C 1940.19,425.478 1939.52,426.145 1938.5,426.5C 1936.93,425.691 1935.26,425.357 1933.5,425.5C 1932.64,421.566 1932.31,417.566 1932.5,413.5 Z"/></g>
<g><path style="opacity:0.837" fill="#f3f4f7" d="M 121.5,422.5 C 121.828,434.345 121.495,446.012 120.5,457.5C 120.5,457.167 120.5,456.833 120.5,456.5C 120.5,446.167 120.5,435.833 120.5,425.5C 114.184,424.642 107.85,424.476 101.5,425C 99.6803,425.2 98.347,426.034 97.5,427.5C 91.8236,427.334 86.1569,427.501 80.5,428C 79.1943,432.499 79.1943,436.999 80.5,441.5C 86.3193,442.328 92.3193,442.828 98.5,443C 97.944,443.383 97.6107,443.883 97.5,444.5C 91.5,444.5 85.5,444.5 79.5,444.5C 79.5,447.167 79.5,449.833 79.5,452.5C 85.5,452.5 91.5,452.5 97.5,452.5C 97.5,454.167 97.5,455.833 97.5,457.5C 104.5,457.5 111.5,457.5 118.5,457.5C 118.5,457.833 118.5,458.167 118.5,458.5C 104.833,458.5 91.1667,458.5 77.5,458.5C 77.1667,457.167 76.8333,457.167 76.5,458.5C 75.2794,457.972 74.1127,457.305 73,456.5C 72.3333,442.167 72.3333,427.833 73,413.5C 73.8333,412 75,410.833 76.5,410C 90.5,409.333 104.5,409.333 118.5,410C 120.555,410.687 122.221,411.854 123.5,413.5C 122.911,416.64 122.244,419.64 121.5,422.5 Z"/></g>
<g><path style="opacity:1" fill="#d7e6fb" d="M 120.5,414.5 C 121.473,416.948 121.806,419.615 121.5,422.5C 116.833,422.5 112.167,422.5 107.5,422.5C 107.5,422.167 107.5,421.833 107.5,421.5C 111.833,421.5 116.167,421.5 120.5,421.5C 120.5,419.167 120.5,416.833 120.5,414.5 Z"/></g>
<g><path style="opacity:1" fill="#c8dffc" d="M 107.5,411.5 C 110.85,411.335 114.183,411.502 117.5,412C 119.119,412.236 120.119,413.069 120.5,414.5C 120.5,416.833 120.5,419.167 120.5,421.5C 116.167,421.5 111.833,421.5 107.5,421.5C 107.5,418.167 107.5,414.833 107.5,411.5 Z"/></g>
<g><path style="opacity:1" fill="#d5d7da" d="M 107.5,411.5 C 107.5,414.833 107.5,418.167 107.5,421.5C 107.5,421.833 107.5,422.167 107.5,422.5C 107.167,422.5 106.833,422.5 106.5,422.5C 103.695,421.681 100.695,421.181 97.5,421C 98.7932,420.51 100.127,420.343 101.5,420.5C 101.5,419.167 101.5,417.833 101.5,416.5C 99.6536,416.778 98.3202,416.111 97.5,414.5C 90.8074,413.204 84.1407,413.204 77.5,414.5C 76.7025,414.043 76.3691,413.376 76.5,412.5C 86.6532,411.506 96.9865,411.172 107.5,411.5 Z"/></g>
<g><path style="opacity:1" fill="#dadcde" d="M 76.5,412.5 C 76.3691,413.376 76.7025,414.043 77.5,414.5C 84.1407,413.204 90.8074,413.204 97.5,414.5C 98.3202,416.111 99.6536,416.778 101.5,416.5C 101.5,417.833 101.5,419.167 101.5,420.5C 100.127,420.343 98.7932,420.51 97.5,421C 100.695,421.181 103.695,421.681 106.5,422.5C 95.8333,422.5 85.1667,422.5 74.5,422.5C 74.3354,419.482 74.502,416.482 75,413.5C 75.3826,412.944 75.8826,412.611 76.5,412.5 Z"/></g>
<g><path style="opacity:1" fill="#caeeef" d="M 96.5,417.5 C 97.9778,417.238 99.3112,417.571 100.5,418.5C 99.8333,418.833 99.1667,419.167 98.5,419.5C 97.2867,419.253 96.62,418.586 96.5,417.5 Z"/></g>
<g><path style="opacity:1" fill="#d2e4e4" d="M 88.5,419.5 C 87.596,418.791 87.2627,417.791 87.5,416.5C 89.5,416.5 91.5,416.5 93.5,416.5C 93.5,417.833 93.5,419.167 93.5,420.5C 91.5853,420.784 89.9187,420.451 88.5,419.5 Z"/></g>
<g><path style="opacity:1" fill="#caf0ee" d="M 88.5,419.5 C 88.62,418.414 89.2867,417.747 90.5,417.5C 91.1667,417.833 91.8333,418.167 92.5,418.5C 91.3112,419.429 89.9778,419.762 88.5,419.5 Z"/></g>
<g><path style="opacity:1" fill="#ccefec" d="M 80.5,416.5 C 82.6648,416.116 84.3315,416.783 85.5,418.5C 83.9547,419.452 82.288,419.785 80.5,419.5C 80.5,418.5 80.5,417.5 80.5,416.5 Z"/></g>
<g><path style="opacity:0.968" fill="#f1f2f4" d="M 120.5,456.5 C 119.833,456.5 119.5,456.833 119.5,457.5C 119.167,457.5 118.833,457.5 118.5,457.5C 111.5,457.5 104.5,457.5 97.5,457.5C 97.5,455.833 97.5,454.167 97.5,452.5C 103.5,452.5 109.5,452.5 115.5,452.5C 115.5,449.833 115.5,447.167 115.5,444.5C 109.5,444.5 103.5,444.5 97.5,444.5C 97.6107,443.883 97.944,443.383 98.5,443C 92.3193,442.828 86.3193,442.328 80.5,441.5C 86.5,441.5 92.5,441.5 98.5,441.5C 98.8195,436.637 98.4861,431.97 97.5,427.5C 98.347,426.034 99.6803,425.2 101.5,425C 107.85,424.476 114.184,424.642 120.5,425.5C 120.5,435.833 120.5,446.167 120.5,456.5 Z"/></g>
<g><path style="opacity:1" fill="#f7e1cc" d="M 1940.5,424.5 C 1941.17,424.5 1941.5,424.833 1941.5,425.5C 1934.87,434.132 1927.87,442.465 1920.5,450.5C 1924.03,441.764 1928.37,433.431 1933.5,425.5C 1935.26,425.357 1936.93,425.691 1938.5,426.5C 1939.52,426.145 1940.19,425.478 1940.5,424.5 Z"/></g>
<g><path style="opacity:1" fill="#f9ebcb" d="M 1905.5,413.5 C 1904.81,417.49 1904.64,421.49 1905,425.5C 1905.38,424.944 1905.88,424.611 1906.5,424.5C 1910.28,425.825 1914.44,426.491 1919,426.5C 1923.35,426.499 1927.51,426.166 1931.5,425.5C 1932.17,425.5 1932.83,425.5 1933.5,425.5C 1928.37,433.431 1924.03,441.764 1920.5,450.5C 1918.56,451.679 1917.23,451.013 1916.5,448.5C 1913.26,441.409 1909.76,434.409 1906,427.5C 1902.89,427.656 1899.72,427.323 1896.5,426.5C 1898.83,422.5 1901.17,418.5 1903.5,414.5C 1904.17,414.167 1904.83,413.833 1905.5,413.5 Z"/></g>
<g><path style="opacity:1" fill="#ecedf0" d="M 97.5,427.5 C 98.4861,431.97 98.8195,436.637 98.5,441.5C 92.5,441.5 86.5,441.5 80.5,441.5C 79.1943,436.999 79.1943,432.499 80.5,428C 86.1569,427.501 91.8236,427.334 97.5,427.5 Z"/></g>
<g><path style="opacity:1" fill="#e6e7eb" d="M 102.5,427.5 C 106.833,427.5 111.167,427.5 115.5,427.5C 115.5,428.5 115.5,429.5 115.5,430.5C 110.786,430.827 106.12,430.493 101.5,429.5C 101.863,428.817 102.196,428.15 102.5,427.5 Z"/></g>
<g><path style="opacity:1" fill="#e5e6ea" d="M 102.5,438.5 C 106.5,438.5 110.5,438.5 114.5,438.5C 114.5,439.5 114.5,440.5 114.5,441.5C 110.486,441.666 106.486,441.499 102.5,441C 101.402,440.23 101.402,439.397 102.5,438.5 Z"/></g>
<g><path style="opacity:1" fill="#eaebee" d="M 97.5,444.5 C 103.5,444.5 109.5,444.5 115.5,444.5C 115.5,447.167 115.5,449.833 115.5,452.5C 109.5,452.5 103.5,452.5 97.5,452.5C 91.5,452.5 85.5,452.5 79.5,452.5C 79.5,449.833 79.5,447.167 79.5,444.5C 85.5,444.5 91.5,444.5 97.5,444.5 Z"/></g>
<g><path style="opacity:1" fill="#e3e4e8" d="M 97.5,445.5 C 103.167,445.5 108.833,445.5 114.5,445.5C 114.5,447.5 114.5,449.5 114.5,451.5C 108.833,451.5 103.167,451.5 97.5,451.5C 97.5,449.5 97.5,447.5 97.5,445.5 Z"/></g>
<g><path style="opacity:0.565" fill="#f8f4f1" d="M 1903.5,414.5 C 1901.17,418.5 1898.83,422.5 1896.5,426.5C 1902.24,434.631 1908.91,441.965 1916.5,448.5C 1917.23,451.013 1918.56,451.679 1920.5,450.5C 1927.87,442.465 1934.87,434.132 1941.5,425.5C 1942.4,426.209 1942.74,427.209 1942.5,428.5C 1938.23,433.001 1934.9,437.668 1932.5,442.5C 1931.91,442.291 1931.41,441.957 1931,441.5C 1927.85,445.617 1924.35,449.451 1920.5,453C 1919.5,453.667 1918.5,453.667 1917.5,453C 1912.1,448.05 1907.26,442.55 1903,436.5C 1902.67,436.833 1902.33,437.167 1902,437.5C 1901.1,436.299 1899.93,435.465 1898.5,435C 1898.96,434.586 1899.29,434.086 1899.5,433.5C 1897.59,431.343 1895.92,429.009 1894.5,426.5C 1896.07,421.329 1899.07,417.329 1903.5,414.5 Z"/></g>
<g><path style="opacity:1" fill="#f7e0cc" d="M 1896.5,426.5 C 1899.72,427.323 1902.89,427.656 1906,427.5C 1909.76,434.409 1913.26,441.409 1916.5,448.5C 1908.91,441.965 1902.24,434.631 1896.5,426.5 Z"/></g>
<g><path style="opacity:0.016" fill="#f5f8f9" d="M 119.5,457.5 C 119.833,457.5 120.167,457.5 120.5,457.5C 120.315,458.17 119.981,458.17 119.5,457.5 Z"/></g>
<g><path style="opacity:0.065" fill="#f7fafc" d="M 76.5,458.5 C 76.8333,458.5 77.1667,458.5 77.5,458.5C 78.463,459.363 78.463,460.03 77.5,460.5C 76.7025,460.043 76.3691,459.376 76.5,458.5 Z"/></g>
<g><path style="opacity:0.027" fill="#f6f9fa" d="M 118.5,458.5 C 118.833,458.5 119.167,458.5 119.5,458.5C 119.315,459.17 118.981,459.17 118.5,458.5 Z"/></g>
<g><path style="opacity:1" fill="#f4d5cb" d="M 1426.5,488.5 C 1425.34,499.466 1424.67,510.466 1424.5,521.5C 1424.5,521.833 1424.5,522.167 1424.5,522.5C 1423.77,523.878 1423.1,525.378 1422.5,527C 1417.53,528.46 1412.53,529.794 1407.5,531C 1404.63,531.801 1401.97,531.634 1399.5,530.5C 1395.11,528.565 1390.44,527.231 1385.5,526.5C 1385.4,520.627 1384.74,514.96 1383.5,509.5C 1383.44,503.149 1383.11,496.815 1382.5,490.5C 1382.5,486.833 1382.5,483.167 1382.5,479.5C 1397.17,479.5 1411.83,479.5 1426.5,479.5C 1426.5,482.5 1426.5,485.5 1426.5,488.5 Z"/></g>
<g><path style="opacity:1" fill="#f6d8ca" d="M 1403.5,521.5 C 1408.27,521.462 1412.94,520.796 1417.5,519.5C 1417.5,516.167 1417.5,512.833 1417.5,509.5C 1417.5,506.5 1417.5,503.5 1417.5,500.5C 1411.02,499.509 1404.35,499.176 1397.5,499.5C 1397.5,498.167 1397.5,496.833 1397.5,495.5C 1404.69,495.825 1411.69,495.491 1418.5,494.5C 1419.46,492.735 1419.79,490.735 1419.5,488.5C 1409.5,488.5 1399.5,488.5 1389.5,488.5C 1394.32,487.674 1399.32,487.174 1404.5,487C 1403.14,485.062 1403.47,483.396 1405.5,482C 1411.42,481.193 1417.25,481.359 1423,482.5C 1423.2,496.526 1422.2,510.193 1420,523.5C 1415,525.5 1410,527.5 1405,529.5C 1403.86,526.873 1403.36,524.206 1403.5,521.5 Z"/></g>
<g><path style="opacity:0.206" fill="#f8f6f7" d="M 1425.5,522.5 C 1425.5,521.833 1425.17,521.5 1424.5,521.5C 1424.67,510.466 1425.34,499.466 1426.5,488.5C 1427.48,485.375 1427.81,482.042 1427.5,478.5C 1412.17,478.5 1396.83,478.5 1381.5,478.5C 1381.18,482.702 1381.52,486.702 1382.5,490.5C 1383.11,496.815 1383.44,503.149 1383.5,509.5C 1383.32,515.404 1383.99,521.071 1385.5,526.5C 1387.5,527.5 1389.5,528.5 1391.5,529.5C 1390.17,529.5 1388.83,529.5 1387.5,529.5C 1385.7,528.361 1384.04,527.694 1382.5,527.5C 1382.99,526.554 1383.32,525.554 1383.5,524.5C 1382.35,519.899 1382.02,515.399 1382.5,511C 1381.7,499.811 1380.7,488.645 1379.5,477.5C 1396.17,477.5 1412.83,477.5 1429.5,477.5C 1428.6,482.192 1428.6,486.858 1429.5,491.5C 1427.38,496.386 1427.04,501.386 1428.5,506.5C 1426.2,511.316 1425.87,516.316 1427.5,521.5C 1427.04,522.298 1426.38,522.631 1425.5,522.5 Z"/></g>
<g><path style="opacity:1" fill="#f4e0db" d="M 1397.5,509.5 C 1395.83,509.5 1394.17,509.5 1392.5,509.5C 1392.5,512.5 1392.5,515.5 1392.5,518.5C 1391.52,515.375 1391.19,512.042 1391.5,508.5C 1393.74,508.205 1395.74,508.539 1397.5,509.5 Z"/></g>
<g><path style="opacity:1" fill="#f7e3da" d="M 1391.5,506.5 C 1398.17,506.5 1404.83,506.5 1411.5,506.5C 1411.8,509.059 1411.47,511.393 1410.5,513.5C 1410.5,511.5 1410.5,509.5 1410.5,507.5C 1403.98,507.823 1397.64,507.49 1391.5,506.5 Z"/></g>
<g><path style="opacity:1" fill="#f6edeb" d="M 1390.5,495.5 C 1392.01,498.544 1392.68,501.878 1392.5,505.5C 1399.02,505.177 1405.36,505.51 1411.5,506.5C 1404.83,506.5 1398.17,506.5 1391.5,506.5C 1390.52,503.038 1390.19,499.371 1390.5,495.5 Z"/></g>
<g><path style="opacity:1" fill="#f8f9fa" d="M 1418.5,494.5 C 1411.17,494.5 1403.83,494.5 1396.5,494.5C 1396.5,496.5 1396.5,498.5 1396.5,500.5C 1402.98,501.491 1409.65,501.824 1416.5,501.5C 1415.97,507.152 1415.63,512.819 1415.5,518.5C 1409.97,520.125 1404.3,520.791 1398.5,520.5C 1396.79,519.262 1394.79,518.595 1392.5,518.5C 1392.5,515.5 1392.5,512.5 1392.5,509.5C 1394.17,509.5 1395.83,509.5 1397.5,509.5C 1399.75,517.091 1404.08,518.424 1410.5,513.5C 1411.47,511.393 1411.8,509.059 1411.5,506.5C 1405.36,505.51 1399.02,505.177 1392.5,505.5C 1392.68,501.878 1392.01,498.544 1390.5,495.5C 1390.5,494.833 1390.5,494.167 1390.5,493.5C 1390.5,492.167 1390.5,490.833 1390.5,489.5C 1399.83,489.5 1409.17,489.5 1418.5,489.5C 1418.5,491.167 1418.5,492.833 1418.5,494.5 Z"/></g>
<g><path style="opacity:1" fill="#f6e0d5" d="M 1418.5,494.5 C 1411.69,495.491 1404.69,495.825 1397.5,495.5C 1397.5,496.833 1397.5,498.167 1397.5,499.5C 1404.35,499.176 1411.02,499.509 1417.5,500.5C 1410.5,500.5 1403.5,500.5 1396.5,500.5C 1396.5,498.5 1396.5,496.5 1396.5,494.5C 1403.83,494.5 1411.17,494.5 1418.5,494.5 Z"/></g>
<g><path style="opacity:1" fill="#f6e7e1" d="M 1389.5,488.5 C 1399.5,488.5 1409.5,488.5 1419.5,488.5C 1419.79,490.735 1419.46,492.735 1418.5,494.5C 1418.5,492.833 1418.5,491.167 1418.5,489.5C 1409.17,489.5 1399.83,489.5 1390.5,489.5C 1390.5,490.833 1390.5,492.167 1390.5,493.5C 1389.55,492.081 1389.22,490.415 1389.5,488.5 Z"/></g>
<g><path style="opacity:0.942" fill="#f6e8e4" d="M 1426.5,488.5 C 1426.5,485.5 1426.5,482.5 1426.5,479.5C 1411.83,479.5 1397.17,479.5 1382.5,479.5C 1382.5,483.167 1382.5,486.833 1382.5,490.5C 1381.52,486.702 1381.18,482.702 1381.5,478.5C 1396.83,478.5 1412.17,478.5 1427.5,478.5C 1427.81,482.042 1427.48,485.375 1426.5,488.5 Z"/></g>
<g><path style="opacity:1" fill="#f8f1ee" d="M 1396.5,500.5 C 1403.5,500.5 1410.5,500.5 1417.5,500.5C 1417.5,503.5 1417.5,506.5 1417.5,509.5C 1416.83,512.5 1416.17,515.5 1415.5,518.5C 1415.63,512.819 1415.97,507.152 1416.5,501.5C 1409.65,501.824 1402.98,501.491 1396.5,500.5 Z"/></g>
<g><path style="opacity:1" fill="#f7e9e2" d="M 1417.5,509.5 C 1417.5,512.833 1417.5,516.167 1417.5,519.5C 1412.94,520.796 1408.27,521.462 1403.5,521.5C 1401.59,521.784 1399.92,521.451 1398.5,520.5C 1404.3,520.791 1409.97,520.125 1415.5,518.5C 1416.17,515.5 1416.83,512.5 1417.5,509.5 Z"/></g>
<g><path style="opacity:1" fill="#f6eae7" d="M 1383.5,509.5 C 1384.74,514.96 1385.4,520.627 1385.5,526.5C 1383.99,521.071 1383.32,515.404 1383.5,509.5 Z"/></g>
<g><path style="opacity:0.596" fill="#ecf5f9" d="M 590.5,477.5 C 590.5,493.5 590.5,509.5 590.5,525.5C 605.833,525.5 621.167,525.5 636.5,525.5C 636.5,509.5 636.5,493.5 636.5,477.5C 638.485,493.8 639.152,510.466 638.5,527.5C 621.177,527.785 604.177,527.451 587.5,526.5C 588.833,510.5 588.833,494.5 587.5,478.5C 588.325,477.614 589.325,477.281 590.5,477.5 Z"/></g>
<g><path style="opacity:1" fill="#e0eff8" d="M 590.5,477.5 C 605.833,477.5 621.167,477.5 636.5,477.5C 636.5,493.5 636.5,509.5 636.5,525.5C 621.167,525.5 605.833,525.5 590.5,525.5C 590.5,509.5 590.5,493.5 590.5,477.5 Z"/></g>
<g><path style="opacity:1" fill="#f5f8fc" d="M 622.5,500.5 C 624.857,500.337 627.19,500.503 629.5,501C 630.337,502.011 630.67,503.178 630.5,504.5C 628.5,504.5 626.5,504.5 624.5,504.5C 624.33,505.822 624.663,506.989 625.5,508C 631.787,508.953 633.954,512.453 632,518.5C 629.091,521.394 625.591,522.227 621.5,521C 620.313,519.981 619.313,518.814 618.5,517.5C 618.887,516.28 619.72,515.613 621,515.5C 623.21,517.111 625.71,517.778 628.5,517.5C 628.67,516.178 628.337,515.011 627.5,514C 619.083,511.76 617.416,507.26 622.5,500.5 Z"/></g>
<g><path style="opacity:1" fill="#f6f9fc" d="M 600.5,500.5 C 605.833,500.5 611.167,500.5 616.5,500.5C 616.5,501.5 616.5,502.5 616.5,503.5C 614.5,503.5 612.5,503.5 610.5,503.5C 610.5,509.5 610.5,515.5 610.5,521.5C 609.167,521.5 607.833,521.5 606.5,521.5C 606.5,515.833 606.5,510.167 606.5,504.5C 604.5,504.5 602.5,504.5 600.5,504.5C 600.5,503.167 600.5,501.833 600.5,500.5 Z"/></g>
<g><path style="opacity:1" fill="#f5dfda" d="M 1385.5,526.5 C 1390.44,527.231 1395.11,528.565 1399.5,530.5C 1396.83,530.167 1394.17,529.833 1391.5,529.5C 1389.5,528.5 1387.5,527.5 1385.5,526.5 Z"/></g>
<g><path style="opacity:0.035" fill="#f9fafc" d="M 1387.5,529.5 C 1387.1,530.525 1386.44,530.692 1385.5,530C 1386.09,529.536 1386.76,529.369 1387.5,529.5 Z"/></g>
<g><path style="opacity:0.059" fill="#f7fbfc" d="M 1422.5,529.5 C 1423.83,530.167 1423.83,530.167 1422.5,529.5 Z"/></g>
<g><path style="opacity:0.206" fill="#f7f4f5" d="M 1424.5,522.5 C 1424.83,522.5 1425.17,522.5 1425.5,522.5C 1426.09,525.675 1425.09,528.009 1422.5,529.5C 1420.8,529.34 1419.13,529.506 1417.5,530C 1419.6,530.556 1419.76,531.056 1418,531.5C 1415.75,530.038 1414.25,530.705 1413.5,533.5C 1407.64,533.466 1401.8,533.466 1396,533.5C 1394.65,531.066 1392.82,530.232 1390.5,531C 1391.06,530.617 1391.39,530.117 1391.5,529.5C 1394.17,529.833 1396.83,530.167 1399.5,530.5C 1401.97,531.634 1404.63,531.801 1407.5,531C 1412.53,529.794 1417.53,528.46 1422.5,527C 1423.1,525.378 1423.77,523.878 1424.5,522.5 Z"/></g>
<g><path style="opacity:0.177" fill="#f8fafc" d="M 1636.5,545.5 C 1633.5,545.5 1630.5,545.5 1627.5,545.5C 1628.51,544.235 1630.01,543.569 1632,543.5C 1633.99,543.569 1635.49,544.235 1636.5,545.5 Z"/></g>
<g><path style="opacity:0.081" fill="#f8fafb" d="M 378.5,547.5 C 377.662,547.842 377.328,548.508 377.5,549.5C 374.854,547.089 374.188,547.755 375.5,551.5C 374.833,551.5 374.5,551.833 374.5,552.5C 371.577,551.837 370.91,550.17 372.5,547.5C 374.167,546.833 375.833,546.167 377.5,545.5C 378.298,545.957 378.631,546.624 378.5,547.5 Z"/></g>
<g><path style="opacity:1" fill="#dee8cc" d="M 1652.5,556.5 C 1659.4,574.648 1653.74,586.815 1635.5,593C 1630.68,593.779 1626.02,593.279 1621.5,591.5C 1608.71,581.844 1606.04,569.844 1613.5,555.5C 1621.06,546.774 1630.4,544.274 1641.5,548C 1645.2,550.842 1648.86,553.675 1652.5,556.5 Z"/></g>
<g><path style="opacity:0.318" fill="#f3f6f3" d="M 1627.5,545.5 C 1630.5,545.5 1633.5,545.5 1636.5,545.5C 1639.96,545.596 1643.12,546.596 1646,548.5C 1646.33,548.167 1646.67,547.833 1647,547.5C 1647.83,549.667 1649.33,551.167 1651.5,552C 1651.17,552.333 1650.83,552.667 1650.5,553C 1651.82,553.816 1652.49,554.983 1652.5,556.5C 1648.86,553.675 1645.2,550.842 1641.5,548C 1630.4,544.274 1621.06,546.774 1613.5,555.5C 1606.04,569.844 1608.71,581.844 1621.5,591.5C 1615.99,589.653 1611.66,586.32 1608.5,581.5C 1603.92,569.009 1606.92,558.175 1617.5,549C 1620.56,546.965 1623.89,545.799 1627.5,545.5 Z"/></g>
<g><path style="opacity:0.902" fill="#f2f6ed" d="M 377.5,549.5 C 382.267,550.024 386.934,551.024 391.5,552.5C 385.516,550.736 379.849,551.403 374.5,554.5C 374.5,554.167 374.5,553.833 374.5,553.5C 374.5,553.167 374.5,552.833 374.5,552.5C 375.167,552.5 375.5,552.167 375.5,551.5C 374.188,547.755 374.854,547.089 377.5,549.5 Z"/></g>
<g><path style="opacity:1" fill="#ebf2d9" d="M 391.5,552.5 C 392.833,553.833 394.167,555.167 395.5,556.5C 396.933,558.558 397.6,560.892 397.5,563.5C 388.833,563.5 380.167,563.5 371.5,563.5C 371.5,561.833 371.5,560.167 371.5,558.5C 371.738,556.596 372.738,555.262 374.5,554.5C 379.849,551.403 385.516,550.736 391.5,552.5 Z"/></g>
<g><path style="opacity:1" fill="#ebf1e4" d="M 1624.5,558.5 C 1623.3,556.019 1621.8,556.019 1620,558.5C 1619.82,561.695 1619.32,564.695 1618.5,567.5C 1618.33,564.15 1618.5,560.817 1619,557.5C 1620.79,555.771 1622.96,555.104 1625.5,555.5C 1625.74,556.791 1625.4,557.791 1624.5,558.5 Z"/></g>
<g><path style="opacity:1" fill="#e8eede" d="M 1646.5,558.5 C 1647.13,561.856 1648.13,565.189 1649.5,568.5C 1648.5,568.586 1647.67,568.252 1647,567.5C 1646.5,564.518 1646.34,561.518 1646.5,558.5 Z"/></g>
<g><path style="opacity:0.169" fill="#f7f9f8" d="M 374.5,553.5 C 374.5,553.833 374.5,554.167 374.5,554.5C 372.738,555.262 371.738,556.596 371.5,558.5C 369.409,560.542 369.076,562.875 370.5,565.5C 369.5,566.833 368.5,566.833 367.5,565.5C 365.585,565.216 363.919,565.549 362.5,566.5C 362.167,566.5 361.833,566.5 361.5,566.5C 360.588,565.262 360.421,563.928 361,562.5C 363.466,563.777 365.966,563.777 368.5,562.5C 366.152,561.14 365.985,559.473 368,557.5C 368.667,556.167 369.333,556.167 370,557.5C 370.748,555.249 372.248,553.916 374.5,553.5 Z"/></g>
<g><path style="opacity:1" fill="#f1f5e9" d="M 395.5,556.5 C 396.458,556.953 397.292,557.619 398,558.5C 398.497,560.81 398.663,563.143 398.5,565.5C 389.167,565.5 379.833,565.5 370.5,565.5C 369.076,562.875 369.409,560.542 371.5,558.5C 371.5,560.167 371.5,561.833 371.5,563.5C 380.167,563.5 388.833,563.5 397.5,563.5C 397.6,560.892 396.933,558.558 395.5,556.5 Z"/></g>
<g><path style="opacity:0.115" fill="#f3f6f3" d="M 1621.5,591.5 C 1626.02,593.279 1630.68,593.779 1635.5,593C 1653.74,586.815 1659.4,574.648 1652.5,556.5C 1653.12,556.389 1653.62,556.056 1654,555.5C 1657.92,563.457 1658.42,571.623 1655.5,580C 1655.96,580.414 1656.29,580.914 1656.5,581.5C 1655.73,582.711 1654.89,582.711 1654,581.5C 1651.77,586.731 1647.94,590.231 1642.5,592C 1644.27,592.535 1644.6,593.369 1643.5,594.5C 1642.52,594.023 1641.69,593.357 1641,592.5C 1640.25,593.126 1639.42,593.626 1638.5,594C 1632.56,594.25 1626.73,594.417 1621,594.5C 1620.53,593.423 1620.7,592.423 1621.5,591.5 Z"/></g>
<g><path style="opacity:1" fill="#eaf2d8" d="M 367.5,565.5 C 367.5,571.5 367.5,577.5 367.5,583.5C 366.116,584.801 364.616,584.801 363,583.5C 362.501,577.843 362.334,572.176 362.5,566.5C 363.919,565.549 365.585,565.216 367.5,565.5 Z"/></g>
<g><path style="opacity:1" fill="#f5f7f5" d="M 1646.5,558.5 C 1646.34,561.518 1646.5,564.518 1647,567.5C 1647.67,568.252 1648.5,568.586 1649.5,568.5C 1649.72,570.681 1648.88,572.347 1647,573.5C 1646.5,576.146 1646.34,578.813 1646.5,581.5C 1645.36,583.972 1643.36,584.972 1640.5,584.5C 1640.29,582.821 1640.95,581.821 1642.5,581.5C 1643.13,577.863 1644.13,574.196 1645.5,570.5C 1644.1,566.87 1643.1,563.203 1642.5,559.5C 1640.9,558.713 1640.23,557.38 1640.5,555.5C 1643.08,555.455 1645.08,556.455 1646.5,558.5 Z"/></g>
<g><path style="opacity:0.971" fill="#f1f5e8" d="M 367.5,565.5 C 368.5,566.833 369.5,566.833 370.5,565.5C 370.5,565.833 370.5,566.167 370.5,566.5C 370.5,573.833 370.5,581.167 370.5,588.5C 370.028,586.469 369.028,584.802 367.5,583.5C 367.5,577.5 367.5,571.5 367.5,565.5 Z"/></g>
<g><path style="opacity:1" fill="#ebf2d8" d="M 370.5,566.5 C 379.5,566.5 388.5,566.5 397.5,566.5C 397.666,573.508 397.5,580.508 397,587.5C 395.333,588.167 393.667,588.833 392,589.5C 391.502,592.482 391.335,595.482 391.5,598.5C 390.116,599.801 388.616,599.801 387,598.5C 386.502,595.518 386.335,592.518 386.5,589.5C 384.833,589.5 383.167,589.5 381.5,589.5C 381.665,592.518 381.498,595.518 381,598.5C 379.333,599.833 377.667,599.833 376,598.5C 376.053,595.325 375.22,592.658 373.5,590.5C 373.167,590.5 372.833,590.5 372.5,590.5C 372.167,589.5 371.5,588.833 370.5,588.5C 370.5,581.167 370.5,573.833 370.5,566.5 Z M 383.5,591.5 C 384.239,591.369 384.906,591.536 385.5,592C 384.813,594.232 384.479,596.398 384.5,598.5C 383.526,596.257 383.192,593.924 383.5,591.5 Z"/></g>
<g><path style="opacity:0.356" fill="#f8fafc" d="M 361.5,568.5 C 361.5,573.167 361.5,577.833 361.5,582.5C 360.833,582.5 360.5,582.833 360.5,583.5C 359.624,583.631 358.957,583.298 358.5,582.5C 359.833,578.167 359.833,573.833 358.5,569.5C 359.133,567.481 360.133,567.147 361.5,568.5 Z"/></g>
<g><path style="opacity:1" fill="#e4ecd6" d="M 1642.5,559.5 C 1643.1,563.203 1644.1,566.87 1645.5,570.5C 1644.13,574.196 1643.13,577.863 1642.5,581.5C 1642.81,578.287 1642.48,575.287 1641.5,572.5C 1641.5,571.167 1641.5,569.833 1641.5,568.5C 1640.5,568.5 1639.5,568.5 1638.5,568.5C 1639.57,567.566 1640.9,567.232 1642.5,567.5C 1642.5,564.833 1642.5,562.167 1642.5,559.5 Z"/></g>
<g><path style="opacity:1" fill="#e6edda" d="M 1624.5,558.5 C 1623.22,561.936 1623.22,565.269 1624.5,568.5C 1624.5,569.5 1624.5,570.5 1624.5,571.5C 1625.5,571.5 1626.5,571.5 1627.5,571.5C 1626.12,572.801 1624.62,572.801 1623,571.5C 1622.5,574.482 1622.34,577.482 1622.5,580.5C 1621.73,577.154 1621.06,573.654 1620.5,570C 1621.22,566.539 1621.72,563.039 1622,559.5C 1622.67,558.748 1623.5,558.414 1624.5,558.5 Z"/></g>
<g><path style="opacity:1" fill="#eef3e8" d="M 1638.5,568.5 C 1639.5,568.5 1640.5,568.5 1641.5,568.5C 1641.5,569.833 1641.5,571.167 1641.5,572.5C 1640.17,572.5 1638.83,572.5 1637.5,572.5C 1637.23,570.901 1637.57,569.568 1638.5,568.5 Z"/></g>
<g><path style="opacity:1" fill="#f6f8f6" d="M 1624.5,558.5 C 1623.5,558.414 1622.67,558.748 1622,559.5C 1621.72,563.039 1621.22,566.539 1620.5,570C 1621.06,573.654 1621.73,577.154 1622.5,580.5C 1623.21,581.404 1624.21,581.737 1625.5,581.5C 1625.5,582.5 1625.5,583.5 1625.5,584.5C 1623.28,584.822 1621.44,584.155 1620,582.5C 1619.82,579.305 1619.32,576.305 1618.5,573.5C 1617.79,572.596 1616.79,572.263 1615.5,572.5C 1615.24,570.011 1616.24,568.344 1618.5,567.5C 1619.32,564.695 1619.82,561.695 1620,558.5C 1621.8,556.019 1623.3,556.019 1624.5,558.5 Z"/></g>
<g><path style="opacity:1" fill="#f3f5f0" d="M 1624.5,568.5 C 1625.5,568.5 1626.5,568.5 1627.5,568.5C 1627.5,569.5 1627.5,570.5 1627.5,571.5C 1627.5,570.5 1627.5,569.5 1627.5,568.5C 1626.5,568.5 1625.5,568.5 1624.5,568.5 Z"/></g>
<g><path style="opacity:1" fill="#f4f7f3" d="M 1631.5,568.5 C 1632.5,568.5 1633.5,568.5 1634.5,568.5C 1634.5,569.5 1634.5,570.5 1634.5,571.5C 1633.5,571.5 1632.5,571.5 1631.5,571.5C 1631.5,570.5 1631.5,569.5 1631.5,568.5 Z"/></g>
<g><path style="opacity:1" fill="#e8eede" d="M 1649.5,568.5 C 1650.12,568.917 1650.46,569.584 1650.5,570.5C 1648.26,573.891 1646.93,577.558 1646.5,581.5C 1646.34,578.813 1646.5,576.146 1647,573.5C 1648.88,572.347 1649.72,570.681 1649.5,568.5 Z"/></g>
<g><path style="opacity:0.996" fill="#eef3e1" d="M 370.5,566.5 C 370.5,566.167 370.5,565.833 370.5,565.5C 379.833,565.5 389.167,565.5 398.5,565.5C 398.666,573.174 398.5,580.841 398,588.5C 396.333,589.167 394.667,589.833 393,590.5C 392.817,593.365 392.317,596.031 391.5,598.5C 391.335,595.482 391.502,592.482 392,589.5C 393.667,588.833 395.333,588.167 397,587.5C 397.5,580.508 397.666,573.508 397.5,566.5C 388.5,566.5 379.5,566.5 370.5,566.5 Z"/></g>
<g><path style="opacity:0.496" fill="#f5f8f4" d="M 361.5,566.5 C 361.833,566.5 362.167,566.5 362.5,566.5C 362.334,572.176 362.501,577.843 363,583.5C 364.616,584.801 366.116,584.801 367.5,583.5C 369.028,584.802 370.028,586.469 370.5,588.5C 371.5,588.833 372.167,589.5 372.5,590.5C 371.153,589.829 369.986,589.829 369,590.5C 368.667,588.833 368.333,587.167 368,585.5C 367.092,587.439 365.592,588.439 363.5,588.5C 363.646,586.058 362.813,585.391 361,586.5C 360.517,585.552 360.351,584.552 360.5,583.5C 361.167,583.5 361.5,583.167 361.5,582.5C 361.5,577.833 361.5,573.167 361.5,568.5C 361.5,567.833 361.5,567.167 361.5,566.5 Z"/></g>
<g><path style="opacity:1" fill="#e9efdf" d="M 1618.5,573.5 C 1619.32,576.305 1619.82,579.305 1620,582.5C 1621.44,584.155 1623.28,584.822 1625.5,584.5C 1623.18,585.942 1621.02,585.608 1619,583.5C 1618.5,580.183 1618.33,576.85 1618.5,573.5 Z"/></g>
<g><path style="opacity:0.043" fill="#f6f8f6" d="M 373.5,590.5 C 375.22,592.658 376.053,595.325 376,598.5C 377.667,599.833 379.333,599.833 381,598.5C 381.498,595.518 381.665,592.518 381.5,589.5C 383.167,589.5 384.833,589.5 386.5,589.5C 386.335,592.518 386.502,595.518 387,598.5C 388.616,599.801 390.116,599.801 391.5,598.5C 392.317,596.031 392.817,593.365 393,590.5C 394.667,589.833 396.333,589.167 398,588.5C 398.5,580.841 398.666,573.174 398.5,565.5C 398.663,563.143 398.497,560.81 398,558.5C 397.292,557.619 396.458,556.953 395.5,556.5C 394.167,555.167 392.833,553.833 391.5,552.5C 386.934,551.024 382.267,550.024 377.5,549.5C 379.698,549.591 380.031,548.925 378.5,547.5C 379.75,547.577 380.583,548.244 381,549.5C 383.283,548.281 385.616,548.281 388,549.5C 388.5,549.333 389,549.167 389.5,549C 388.289,548.107 388.289,547.274 389.5,546.5C 390.842,547.902 391.676,547.569 392,545.5C 393,546.833 394,546.833 395,545.5C 394.578,548.098 394.578,550.764 395,553.5C 396.957,554.889 398.79,556.389 400.5,558C 399.7,559.788 399.366,561.455 399.5,563C 401.764,563.236 403.931,563.736 406,564.5C 406.743,562.355 407.576,562.189 408.5,564C 408.464,570.94 408.464,577.94 408.5,585C 408.167,585.5 407.833,586 407.5,586.5C 404.851,586.43 402.184,586.263 399.5,586C 400.451,586.718 400.617,587.551 400,588.5C 398.509,590.004 396.676,590.837 394.5,591C 394.534,594.034 394.534,597.034 394.5,600C 391.692,600.993 388.859,601.827 386,602.5C 385.344,598.998 384.011,598.998 382,602.5C 374.752,601.739 371.919,597.739 373.5,590.5 Z M 383.5,591.5 C 383.192,593.924 383.526,596.257 384.5,598.5C 384.479,596.398 384.813,594.232 385.5,592C 384.906,591.536 384.239,591.369 383.5,591.5 Z"/></g>
<g><path style="opacity:1" fill="#ecf2db" d="M 400.5,565.5 C 402.467,565.261 404.301,565.594 406,566.5C 406.667,572.167 406.667,577.833 406,583.5C 403.733,584.935 401.733,584.602 400,582.5C 399.215,576.751 399.382,571.084 400.5,565.5 Z"/></g>
<g><path style="opacity:0.129" fill="#f2f4f8" d="M 804.5,679.5 C 804.586,680.496 804.252,681.329 803.5,682C 798.967,683.011 794.633,684.511 790.5,686.5C 790.937,684.926 791.937,683.759 793.5,683C 797.032,681.368 800.699,680.201 804.5,679.5 Z"/></g>
<g><path style="opacity:0.999" fill="#e8ecf3" d="M 804.5,679.5 C 805.5,679.5 806.5,679.5 807.5,679.5C 807.5,680.5 807.5,681.5 807.5,682.5C 822.292,684.708 829.626,693.375 829.5,708.5C 827.666,711.964 825.999,715.631 824.5,719.5C 820.641,722.639 816.308,725.139 811.5,727C 807.179,727.499 802.846,727.666 798.5,727.5C 784.876,720.561 780.209,709.561 784.5,694.5C 784.461,693.417 784.127,692.417 783.5,691.5C 785.691,690.119 787.024,688.119 787.5,685.5C 788.417,686.127 789.417,686.461 790.5,686.5C 794.633,684.511 798.967,683.011 803.5,682C 804.252,681.329 804.586,680.496 804.5,679.5 Z"/></g>
<g><path style="opacity:0.105" fill="#f5f7fa" d="M 807.5,679.5 C 811.32,680.029 814.82,681.362 818,683.5C 819.558,682.655 820.558,683.321 821,685.5C 823.833,684.333 824.667,685.167 823.5,688C 825.167,689.333 826.833,690.667 828.5,692C 828.167,692.333 827.833,692.667 827.5,693C 829.269,695.269 829.935,697.602 829.5,700C 831.544,703.066 831.544,705.9 829.5,708.5C 829.626,693.375 822.292,684.708 807.5,682.5C 807.5,681.5 807.5,680.5 807.5,679.5 Z"/></g>
<g><path style="opacity:1" fill="#f4f6fa" d="M 803.5,696.5 C 804.5,696.5 805.5,696.5 806.5,696.5C 806.5,697.5 806.5,698.5 806.5,699.5C 808.821,699.229 810.821,699.896 812.5,701.5C 815.556,699.711 818.889,699.044 822.5,699.5C 823.079,707.259 819.412,711.259 811.5,711.5C 811.5,710.5 811.5,709.5 811.5,708.5C 810.5,708.5 809.5,708.5 808.5,708.5C 808.5,706.5 808.5,704.5 808.5,702.5C 807.5,702.5 806.5,702.5 805.5,702.5C 805.326,704.861 804.993,707.194 804.5,709.5C 800.835,708.428 797.169,708.595 793.5,710C 791.706,713.395 790.706,713.061 790.5,709C 790.27,699.01 794.27,696.843 802.5,702.5C 803.466,700.604 803.799,698.604 803.5,696.5 Z"/></g>
<g><path style="opacity:1" fill="#e9ecf3" d="M 815.5,702.5 C 816.833,702.5 818.167,702.5 819.5,702.5C 819.833,705.5 818.5,706.833 815.5,706.5C 815.5,705.167 815.5,703.833 815.5,702.5 Z"/></g>
<g><path style="opacity:0.036" fill="#f5f7fa" d="M 829.5,708.5 C 830.329,713.183 828.663,716.849 824.5,719.5C 825.999,715.631 827.666,711.964 829.5,708.5 Z"/></g>
<g><path style="opacity:0.063" fill="#f3f5f9" d="M 784.5,694.5 C 780.209,709.561 784.876,720.561 798.5,727.5C 787.848,724.783 781.848,717.45 780.5,705.5C 781.642,701.571 782.476,697.571 783,693.5C 783.383,694.056 783.883,694.389 784.5,694.5 Z"/></g>
<g><path style="opacity:0.148" fill="#f2f5f8" d="M 824.5,719.5 C 823.213,721.805 821.88,724.138 820.5,726.5C 819.833,726.167 819.167,725.833 818.5,725.5C 816.207,727.23 813.707,728.563 811,729.5C 807.5,729.417 804,729.417 800.5,729.5C 799.478,729.145 798.811,728.478 798.5,727.5C 802.846,727.666 807.179,727.499 811.5,727C 816.308,725.139 820.641,722.639 824.5,719.5 Z"/></g>
<g><path style="opacity:0.22" fill="#f7f8f5" d="M 1857.5,744.5 C 1857.5,741.167 1857.5,737.833 1857.5,734.5C 1857.5,732.833 1857.5,731.167 1857.5,729.5C 1842.34,728.504 1827.01,728.17 1811.5,728.5C 1811.2,731.059 1811.53,733.393 1812.5,735.5C 1812.37,739.881 1812.71,744.215 1813.5,748.5C 1813.22,757.056 1813.89,765.39 1815.5,773.5C 1815.5,773.833 1815.5,774.167 1815.5,774.5C 1816.11,775.391 1816.44,776.391 1816.5,777.5C 1815.54,777.047 1814.71,776.381 1814,775.5C 1813.61,770.548 1812.78,765.715 1811.5,761C 1812.77,756.907 1812.44,752.907 1810.5,749C 1810.69,741.808 1810.69,734.641 1810.5,727.5C 1826.49,726.334 1842.49,726.167 1858.5,727C 1858.56,731.792 1858.89,736.625 1859.5,741.5C 1859.06,742.739 1858.39,743.739 1857.5,744.5 Z"/></g>
<g><path style="opacity:0.999" fill="#f4f3e2" d="M 1857.5,729.5 C 1842.5,729.5 1827.5,729.5 1812.5,729.5C 1812.5,731.5 1812.5,733.5 1812.5,735.5C 1811.53,733.393 1811.2,731.059 1811.5,728.5C 1827.01,728.17 1842.34,728.504 1857.5,729.5 Z"/></g>
<g><path style="opacity:1" fill="#f4f0d5" d="M 1857.5,729.5 C 1857.5,731.167 1857.5,732.833 1857.5,734.5C 1855.99,739.929 1855.32,745.596 1855.5,751.5C 1855.03,759.441 1854.03,767.274 1852.5,775C 1846.5,776.5 1840.5,778 1834.5,779.5C 1832.22,778.777 1829.88,778.443 1827.5,778.5C 1827.39,777.883 1827.06,777.383 1826.5,777C 1822.83,776.1 1819.16,775.266 1815.5,774.5C 1815.5,774.167 1815.5,773.833 1815.5,773.5C 1815.54,764.963 1814.87,756.63 1813.5,748.5C 1812.71,744.215 1812.37,739.881 1812.5,735.5C 1812.5,733.5 1812.5,731.5 1812.5,729.5C 1827.5,729.5 1842.5,729.5 1857.5,729.5 Z"/></g>
<g><path style="opacity:0.098" fill="#f2f7fb" d="M 1187.5,679.5 C 1188.97,695.83 1190.47,712.163 1192,728.5C 1197.88,731.312 1204.05,733.312 1210.5,734.5C 1216.85,732.995 1223.02,730.995 1229,728.5C 1230.71,712.18 1232.21,695.847 1233.5,679.5C 1236.62,680.766 1237.12,682.766 1235,685.5C 1234.44,700.298 1232.94,715.298 1230.5,730.5C 1229.55,733.715 1228.22,734.048 1226.5,731.5C 1225.33,732.491 1224.17,733.491 1223,734.5C 1222.13,734.265 1221.29,733.931 1220.5,733.5C 1219.3,733.846 1219.3,734.346 1220.5,735C 1219.33,735.353 1218.16,735.187 1217,734.5C 1216.05,735.022 1215.22,735.689 1214.5,736.5C 1211.83,736.5 1209.17,736.5 1206.5,736.5C 1205.81,735.975 1205.31,735.308 1205,734.5C 1203.88,734.665 1202.72,734.998 1201.5,735.5C 1199.16,734.978 1196.83,733.645 1194.5,731.5C 1192.78,734.048 1191.45,733.715 1190.5,730.5C 1189.41,717.65 1187.75,704.483 1185.5,691C 1186.15,688.615 1186.15,686.115 1185.5,683.5C 1185.59,681.667 1186.25,680.334 1187.5,679.5 Z"/></g>
<g><path style="opacity:0.936" fill="#e1eff7" d="M 1187.5,679.5 C 1202.83,679.5 1218.17,679.5 1233.5,679.5C 1232.21,695.847 1230.71,712.18 1229,728.5C 1223.02,730.995 1216.85,732.995 1210.5,734.5C 1204.05,733.312 1197.88,731.312 1192,728.5C 1190.47,712.163 1188.97,695.83 1187.5,679.5 Z"/></g>
<g><path style="opacity:1" fill="#eef5fa" d="M 1198.5,693.5 C 1198.33,694.822 1198.66,695.989 1199.5,697C 1205.49,697.499 1211.49,697.666 1217.5,697.5C 1217.5,699.833 1217.5,702.167 1217.5,704.5C 1213.5,704.5 1209.5,704.5 1205.5,704.5C 1205.5,705.833 1205.5,707.167 1205.5,708.5C 1209.18,708.724 1212.85,709.058 1216.5,709.5C 1216.8,712.059 1216.47,714.393 1215.5,716.5C 1215.5,714.5 1215.5,712.5 1215.5,710.5C 1212.15,710.665 1208.82,710.498 1205.5,710C 1204.58,707.959 1204.24,705.792 1204.5,703.5C 1208.5,703.5 1212.5,703.5 1216.5,703.5C 1216.5,701.833 1216.5,700.167 1216.5,698.5C 1210.49,698.666 1204.49,698.499 1198.5,698C 1197.2,696.384 1197.2,694.884 1198.5,693.5 Z"/></g>
<g><path style="opacity:1" fill="#f6f9fc" d="M 1198.5,693.5 C 1206.5,693.5 1214.5,693.5 1222.5,693.5C 1221.65,702.472 1221.32,711.472 1221.5,720.5C 1218.46,721.345 1215.46,722.345 1212.5,723.5C 1208.22,723.547 1204.22,722.547 1200.5,720.5C 1199.52,717.572 1199.18,714.572 1199.5,711.5C 1203.94,710.425 1205.94,712.092 1205.5,716.5C 1208.81,717.627 1212.14,717.627 1215.5,716.5C 1216.47,714.393 1216.8,712.059 1216.5,709.5C 1212.85,709.058 1209.18,708.724 1205.5,708.5C 1205.5,707.167 1205.5,705.833 1205.5,704.5C 1209.5,704.5 1213.5,704.5 1217.5,704.5C 1217.5,702.167 1217.5,699.833 1217.5,697.5C 1211.49,697.666 1205.49,697.499 1199.5,697C 1198.66,695.989 1198.33,694.822 1198.5,693.5 Z"/></g>
<g><path style="opacity:1" fill="#ecf5fb" d="M 1198.5,693.5 C 1202.3,692.517 1206.3,692.183 1210.5,692.5C 1214.83,692.5 1219.17,692.5 1223.5,692.5C 1223.49,702.029 1222.82,711.363 1221.5,720.5C 1221.32,711.472 1221.65,702.472 1222.5,693.5C 1214.5,693.5 1206.5,693.5 1198.5,693.5 Z"/></g>
<g><path style="opacity:1" fill="#e1f2fa" d="M 1212.5,723.5 C 1215.46,722.345 1218.46,721.345 1221.5,720.5C 1222.82,711.363 1223.49,702.029 1223.5,692.5C 1219.17,692.5 1214.83,692.5 1210.5,692.5C 1210.5,690.5 1210.5,688.5 1210.5,686.5C 1216.5,686.5 1222.5,686.5 1228.5,686.5C 1228.16,699.902 1227.16,713.235 1225.5,726.5C 1220.41,726.98 1215.58,728.314 1211,730.5C 1210.19,727.802 1210.69,725.468 1212.5,723.5 Z"/></g>
<g><path style="opacity:1" fill="#f6f6f5" d="M 1830.5,768.5 C 1826.9,767.301 1823.23,766.301 1819.5,765.5C 1819.5,763.833 1819.5,762.167 1819.5,760.5C 1820.5,760.5 1821.5,760.5 1822.5,760.5C 1823.17,761.167 1823.83,761.833 1824.5,762.5C 1825.83,762.5 1827.17,762.5 1828.5,762.5C 1828.5,754.833 1828.5,747.167 1828.5,739.5C 1829.83,739.5 1831.17,739.5 1832.5,739.5C 1833.14,749.558 1832.47,759.225 1830.5,768.5 Z"/></g>
<g><path style="opacity:1" fill="#f4f2e2" d="M 1830.5,768.5 C 1832.47,759.225 1833.14,749.558 1832.5,739.5C 1831.17,739.5 1829.83,739.5 1828.5,739.5C 1828.5,747.167 1828.5,754.833 1828.5,762.5C 1827.17,762.5 1825.83,762.5 1824.5,762.5C 1823.83,761.833 1823.17,761.167 1822.5,760.5C 1823.93,760.421 1825.26,760.754 1826.5,761.5C 1827.5,753.862 1827.83,746.196 1827.5,738.5C 1829.5,738.5 1831.5,738.5 1833.5,738.5C 1833.5,748.833 1833.5,759.167 1833.5,769.5C 1832.21,769.737 1831.21,769.404 1830.5,768.5 Z"/></g>
<g><path style="opacity:1" fill="#fafafa" d="M 1849.5,756.5 C 1849.75,759.939 1849.41,763.272 1848.5,766.5C 1845.9,767.265 1843.24,767.599 1840.5,767.5C 1839.5,767.5 1838.5,767.5 1837.5,767.5C 1837.28,766.325 1837.61,765.325 1838.5,764.5C 1840.92,764.086 1842.92,763.086 1844.5,761.5C 1845.43,760.432 1845.77,759.099 1845.5,757.5C 1844.5,757.5 1843.5,757.5 1842.5,757.5C 1840.83,757.5 1839.17,757.5 1837.5,757.5C 1837.5,751.5 1837.5,745.5 1837.5,739.5C 1841.83,739.5 1846.17,739.5 1850.5,739.5C 1850.5,740.833 1850.5,742.167 1850.5,743.5C 1847.17,743.5 1843.83,743.5 1840.5,743.5C 1840.5,746.5 1840.5,749.5 1840.5,752.5C 1843.5,752.5 1846.5,752.5 1849.5,752.5C 1849.5,753.833 1849.5,755.167 1849.5,756.5 Z"/></g>
<g><path style="opacity:1" fill="#f6f7fb" d="M 1824.5,762.5 C 1825.78,763.931 1827.45,764.598 1829.5,764.5C 1829.17,756.472 1829.5,748.472 1830.5,740.5C 1831.67,749.482 1831.83,758.482 1831,767.5C 1827.4,766.466 1823.9,765.133 1820.5,763.5C 1821.86,763.212 1823.19,762.879 1824.5,762.5 Z"/></g>
<g><path style="opacity:0.157" fill="#f1f7f7" d="M 180.5,733.5 C 183.668,732.415 185.668,730.249 186.5,727C 192.833,726.333 199.167,726.333 205.5,727C 206.357,727.689 207.023,728.522 207.5,729.5C 203.967,732.564 202.133,736.231 202,740.5C 201.667,740.167 201.333,739.833 201,739.5C 200.5,741.333 199.333,742.5 197.5,743C 197.5,744 197.5,745 197.5,746C 192.689,755.199 187.689,763.699 182.5,771.5C 181.636,769.803 180.303,768.637 178.5,768C 179.28,766.927 179.113,765.76 178,764.5C 175.639,761.857 173.639,759.524 172,757.5C 171.987,752.729 169.487,748.562 164.5,745C 164.957,744.586 165.291,744.086 165.5,743.5C 163.77,740.63 162.436,737.63 161.5,734.5C 160.022,734.762 158.689,734.429 157.5,733.5C 157.888,731.359 157.888,729.359 157.5,727.5C 164.142,726.336 170.808,726.169 177.5,727C 178.914,728.993 179.914,731.16 180.5,733.5 Z"/></g>
<g><path style="opacity:1" fill="#d7efe8" d="M 168.5,728.5 C 172.56,736.283 176.894,743.95 181.5,751.5C 186.905,744.29 191.571,736.624 195.5,728.5C 198.572,728.183 201.572,728.516 204.5,729.5C 198.404,739.076 192.571,748.743 187,758.5C 185.259,761.309 184.092,764.309 183.5,767.5C 182.5,767.5 181.5,767.5 180.5,767.5C 174.45,755.069 167.617,743.069 160,731.5C 159.517,730.552 159.351,729.552 159.5,728.5C 162.5,728.5 165.5,728.5 168.5,728.5 Z"/></g>
<g><path style="opacity:1" fill="#d5dbe0" d="M 168.5,728.5 C 171.187,728.336 173.854,728.503 176.5,729C 177.328,730.992 178.661,732.492 180.5,733.5C 180.5,734.5 180.5,735.5 180.5,736.5C 181.5,736.5 182.5,736.5 183.5,736.5C 184.126,733.685 185.46,731.185 187.5,729C 190.146,728.503 192.813,728.336 195.5,728.5C 191.571,736.624 186.905,744.29 181.5,751.5C 176.894,743.95 172.56,736.283 168.5,728.5 Z"/></g>
<g><path style="opacity:1" fill="#faf7ec" d="M 1851.5,744.5 C 1848.17,744.5 1844.83,744.5 1841.5,744.5C 1841.5,746.833 1841.5,749.167 1841.5,751.5C 1844.5,751.5 1847.5,751.5 1850.5,751.5C 1850.78,753.415 1850.45,755.081 1849.5,756.5C 1849.5,755.167 1849.5,753.833 1849.5,752.5C 1846.5,752.5 1843.5,752.5 1840.5,752.5C 1840.5,749.5 1840.5,746.5 1840.5,743.5C 1843.83,743.5 1847.17,743.5 1850.5,743.5C 1850.5,742.167 1850.5,740.833 1850.5,739.5C 1846.17,739.5 1841.83,739.5 1837.5,739.5C 1837.5,745.5 1837.5,751.5 1837.5,757.5C 1839.17,757.5 1840.83,757.5 1842.5,757.5C 1840.74,758.461 1838.74,758.795 1836.5,758.5C 1836.5,751.833 1836.5,745.167 1836.5,738.5C 1841.5,738.5 1846.5,738.5 1851.5,738.5C 1851.5,740.5 1851.5,742.5 1851.5,744.5 Z"/></g>
<g><path style="opacity:0.695" fill="#f5f4e9" d="M 1857.5,734.5 C 1857.5,737.833 1857.5,741.167 1857.5,744.5C 1856.83,746.833 1856.17,749.167 1855.5,751.5C 1855.32,745.596 1855.99,739.929 1857.5,734.5 Z"/></g>
<g><path style="opacity:1" fill="#f9f4da" d="M 1851.5,744.5 C 1851.5,742.5 1851.5,740.5 1851.5,738.5C 1846.5,738.5 1841.5,738.5 1836.5,738.5C 1836.5,745.167 1836.5,751.833 1836.5,758.5C 1838.74,758.795 1840.74,758.461 1842.5,757.5C 1843.5,757.5 1844.5,757.5 1845.5,757.5C 1845.77,759.099 1845.43,760.432 1844.5,761.5C 1838.86,760.771 1836.19,763.105 1836.5,768.5C 1838.1,768.768 1839.43,768.434 1840.5,767.5C 1843.24,767.599 1845.9,767.265 1848.5,766.5C 1849.46,768.265 1849.79,770.265 1849.5,772.5C 1844.76,773.185 1840.09,774.185 1835.5,775.5C 1835.5,761.833 1835.5,748.167 1835.5,734.5C 1841.54,734.171 1847.54,734.504 1853.5,735.5C 1852.91,738.64 1852.24,741.64 1851.5,744.5 Z"/></g>
<g><path style="opacity:0.526" fill="#f6f5ea" d="M 1813.5,748.5 C 1814.87,756.63 1815.54,764.963 1815.5,773.5C 1813.89,765.39 1813.22,757.056 1813.5,748.5 Z"/></g>
<g><path style="opacity:1" fill="#faf8ef" d="M 1844.5,761.5 C 1842.92,763.086 1840.92,764.086 1838.5,764.5C 1837.61,765.325 1837.28,766.325 1837.5,767.5C 1838.5,767.5 1839.5,767.5 1840.5,767.5C 1839.43,768.434 1838.1,768.768 1836.5,768.5C 1836.19,763.105 1838.86,760.771 1844.5,761.5 Z"/></g>
<g><path style="opacity:0.833" fill="#f5f4e7" d="M 1815.5,774.5 C 1819.16,775.266 1822.83,776.1 1826.5,777C 1827.06,777.383 1827.39,777.883 1827.5,778.5C 1824.85,777.838 1822.18,777.171 1819.5,776.5C 1818.58,776.543 1817.92,776.876 1817.5,777.5C 1817.17,777.5 1816.83,777.5 1816.5,777.5C 1816.44,776.391 1816.11,775.391 1815.5,774.5 Z"/></g>
<g><path style="opacity:0.136" fill="#f7f7f3" d="M 1857.5,744.5 C 1857.24,751.368 1857.24,758.535 1857.5,766C 1855.27,768.025 1854.94,770.358 1856.5,773C 1855.83,774.333 1855.17,775.667 1854.5,777C 1847.77,777.86 1841.1,779.693 1834.5,782.5C 1828.97,780.367 1823.3,778.7 1817.5,777.5C 1817.92,776.876 1818.58,776.543 1819.5,776.5C 1822.18,777.171 1824.85,777.838 1827.5,778.5C 1829.88,778.443 1832.22,778.777 1834.5,779.5C 1840.5,778 1846.5,776.5 1852.5,775C 1854.03,767.274 1855.03,759.441 1855.5,751.5C 1856.17,749.167 1856.83,746.833 1857.5,744.5 Z"/></g>
</svg>
