<?xml version="1.0" encoding="UTF-8"?>
<!DOCTYPE svg PUBLIC "-//W3C//DTD SVG 1.1//EN" "http://www.w3.org/Graphics/SVG/1.1/DTD/svg11.dtd">
<svg xmlns="http://www.w3.org/2000/svg" version="1.1" width="450px" height="359px" style="shape-rendering:geometricPrecision; text-rendering:geometricPrecision; image-rendering:optimizeQuality; fill-rule:evenodd; clip-rule:evenodd" xmlns:xlink="http://www.w3.org/1999/xlink">
<g><path style="opacity:0.482" fill="#c9cbd4" d="M 152.5,12.5 C 143.643,6.63191 133.977,4.96525 123.5,7.5C 123.611,6.88258 123.944,6.38258 124.5,6C 134.123,4.29793 143.123,5.63127 151.5,10C 152.252,10.6708 152.586,11.5041 152.5,12.5 Z"/></g>
<g><path style="opacity:0.494" fill="#d1d2d9" d="M 152.5,12.5 C 153.906,12.9731 154.573,13.9731 154.5,15.5C 153.094,15.0269 152.427,14.0269 152.5,12.5 Z"/></g>
<g><path style="opacity:0.796" fill="#c0c2cd" d="M 154.5,15.5 C 155.525,16.3739 156.192,17.5405 156.5,19C 155.42,20.4553 155.42,21.9553 156.5,23.5C 155.883,23.3893 155.383,23.056 155,22.5C 154.503,20.1902 154.337,17.8568 154.5,15.5 Z"/></g>
<g><path style="opacity:1" fill="#a2593a" d="M 157.5,36.5 C 157.35,44.3326 157.35,52.3326 157.5,60.5C 149.378,58.4476 141.711,59.6143 134.5,64C 132.5,64.6667 130.5,64.6667 128.5,64C 124.089,56.2865 122.089,47.9532 122.5,39C 121.648,27.1846 127.148,21.0179 139,20.5C 143.595,20.5611 148.095,21.2278 152.5,22.5C 154.422,27.1949 156.089,31.8616 157.5,36.5 Z"/></g>
<g><path style="opacity:0.773" fill="#cfb9b0" d="M 270.5,44.5 C 269.221,39.0432 265.888,35.2099 260.5,33C 250.811,32.3067 241.144,32.4733 231.5,33.5C 231.719,32.325 231.386,31.325 230.5,30.5C 226.47,33.509 222.47,36.509 218.5,39.5C 218.859,37.629 219.859,36.129 221.5,35C 225.167,32.5 228.833,30 232.5,27.5C 233.298,29.0777 233.798,30.7444 234,32.5C 243.111,30.1804 252.278,30.0137 261.5,32C 267.462,34.1162 270.462,38.2829 270.5,44.5 Z"/></g>
<g><path style="opacity:1" fill="#7b412a" d="M 270.5,44.5 C 270.631,53.6358 269.631,62.6358 267.5,71.5C 265.678,69.8402 263.511,68.8402 261,68.5C 258.718,69.2898 256.552,70.2898 254.5,71.5C 254.167,70.8333 253.833,70.1667 253.5,69.5C 253.061,64.5825 252.895,59.5825 253,54.5C 252.5,52.6667 251.333,51.5 249.5,51C 246.167,50.3333 242.833,50.3333 239.5,51C 233.975,52.7916 228.308,53.9582 222.5,54.5C 221.791,57.3844 220.791,60.051 219.5,62.5C 219.5,59.8333 219.5,57.1667 219.5,54.5C 220.139,53.9032 220.472,53.0698 220.5,52C 218.895,48.002 218.229,43.8353 218.5,39.5C 222.47,36.509 226.47,33.509 230.5,30.5C 231.386,31.325 231.719,32.325 231.5,33.5C 241.144,32.4733 250.811,32.3067 260.5,33C 265.888,35.2099 269.221,39.0432 270.5,44.5 Z"/></g>
<g><path style="opacity:0.716" fill="#c3bec4" d="M 123.5,7.5 C 119.897,9.64038 116.23,11.807 112.5,14C 108.639,17.2539 106.472,21.4206 106,26.5C 105.18,33.0137 105.347,39.3471 106.5,45.5C 105.887,49.9288 107.22,53.5954 110.5,56.5C 110.963,59.4824 111.296,62.4824 111.5,65.5C 111.5,74.1667 111.5,82.8333 111.5,91.5C 106.755,93.7485 101.755,95.4152 96.5,96.5C 100.986,94.3389 105.486,92.0055 110,89.5C 111.089,78.0433 110.422,66.71 108,55.5C 102.107,42.6014 102.107,29.6014 108,16.5C 112.201,11.8169 117.368,8.81686 123.5,7.5 Z"/></g>
<g><path style="opacity:1" fill="#423043" d="M 138.5,38.5 C 148.829,39.1996 148.496,40.033 137.5,41C 135.985,43.1055 135.485,42.9388 136,40.5C 136.995,39.9341 137.828,39.2674 138.5,38.5 Z"/></g>
<g><path style="opacity:1" fill="#9f5839" d="M 110.5,56.5 C 107.22,53.5954 105.887,49.9288 106.5,45.5C 110.016,39.2265 114.182,38.8931 119,44.5C 119.667,48.1667 119.667,51.8333 119,55.5C 116.458,57.8382 113.625,58.1715 110.5,56.5 Z"/></g>
<g><path style="opacity:0.133" fill="#d5c3bc" d="M 218.5,39.5 C 218.229,43.8353 218.895,48.002 220.5,52C 220.472,53.0698 220.139,53.9032 219.5,54.5C 218.801,50.7636 217.801,47.0969 216.5,43.5C 216.34,41.6455 217.007,40.3121 218.5,39.5 Z"/></g>
<g><path style="opacity:0.768" fill="#cdb8b2" d="M 156.5,23.5 C 157.838,28.763 159.172,34.0963 160.5,39.5C 159.511,40.4682 158.844,41.6349 158.5,43C 159.77,48.8876 159.77,54.721 158.5,60.5C 158.167,60.5 157.833,60.5 157.5,60.5C 157.35,52.3326 157.35,44.3326 157.5,36.5C 157.533,32.1311 157.2,27.7978 156.5,23.5 Z"/></g>
<g><path style="opacity:1" fill="#f8ab81" d="M 253.5,69.5 C 249.818,69.6653 246.152,69.4986 242.5,69C 240.798,64.8738 237.798,63.5404 233.5,65C 231.993,65.8373 231.493,67.0039 232,68.5C 235.523,64.2986 238.523,64.6319 241,69.5C 242.132,73.9036 240.632,76.9036 236.5,78.5C 232.533,76.9078 230.866,73.9078 231.5,69.5C 230.448,69.6495 229.448,69.4828 228.5,69C 226.811,65.036 223.811,63.536 219.5,64.5C 219.5,63.8333 219.5,63.1667 219.5,62.5C 220.791,60.051 221.791,57.3844 222.5,54.5C 228.308,53.9582 233.975,52.7916 239.5,51C 242.833,50.3333 246.167,50.3333 249.5,51C 251.333,51.5 252.5,52.6667 253,54.5C 252.895,59.5825 253.061,64.5825 253.5,69.5 Z"/></g>
<g><path style="opacity:1" fill="#1c2349" d="M 152.5,12.5 C 152.427,14.0269 153.094,15.0269 154.5,15.5C 154.337,17.8568 154.503,20.1902 155,22.5C 155.383,23.056 155.883,23.3893 156.5,23.5C 157.2,27.7978 157.533,32.1311 157.5,36.5C 156.089,31.8616 154.422,27.1949 152.5,22.5C 148.095,21.2278 143.595,20.5611 139,20.5C 127.148,21.0179 121.648,27.1846 122.5,39C 122.089,47.9532 124.089,56.2865 128.5,64C 130.5,64.6667 132.5,64.6667 134.5,64C 141.711,59.6143 149.378,58.4476 157.5,60.5C 157.837,69.285 157.003,77.9516 155,86.5C 153.829,87.8932 152.329,88.7265 150.5,89C 146.848,89.4986 143.182,89.6653 139.5,89.5C 138.713,87.8958 137.38,87.2291 135.5,87.5C 134.797,85.2843 133.464,83.451 131.5,82C 126.12,79.649 121.12,76.8156 116.5,73.5C 114.819,70.7972 113.153,68.1305 111.5,65.5C 111.296,62.4824 110.963,59.4824 110.5,56.5C 113.625,58.1715 116.458,57.8382 119,55.5C 119.667,51.8333 119.667,48.1667 119,44.5C 114.182,38.8931 110.016,39.2265 106.5,45.5C 105.347,39.3471 105.18,33.0137 106,26.5C 106.472,21.4206 108.639,17.2539 112.5,14C 116.23,11.807 119.897,9.64038 123.5,7.5C 133.977,4.96525 143.643,6.63191 152.5,12.5 Z"/></g>
<g><path style="opacity:1" fill="#a0a3b3" d="M 152.5,70.5 C 151.306,69.2227 149.64,68.5561 147.5,68.5C 145.36,68.5561 143.694,69.2227 142.5,70.5C 141.596,69.791 141.263,68.791 141.5,67.5C 145.5,67.5 149.5,67.5 153.5,67.5C 153.737,68.791 153.404,69.791 152.5,70.5 Z"/></g>
<g><path style="opacity:1" fill="#f9ad84" d="M 218.5,76.5 C 218.833,73.1667 219.167,69.8333 219.5,66.5C 224.594,64.9015 227.26,66.9015 227.5,72.5C 226.443,78.5048 223.443,79.8381 218.5,76.5 Z"/></g>
<g><path style="opacity:1" fill="#efeff2" d="M 152.5,70.5 C 150.593,73.3324 147.927,74.1657 144.5,73C 143.619,72.2917 142.953,71.4584 142.5,70.5C 143.694,69.2227 145.36,68.5561 147.5,68.5C 149.64,68.5561 151.306,69.2227 152.5,70.5 Z"/></g>
<g><path style="opacity:1" fill="#f7aa80" d="M 267.5,71.5 C 268.342,76.0506 267.008,79.7173 263.5,82.5C 258.324,86.0647 255.324,84.7314 254.5,78.5C 252.416,82.3359 250.083,86.0026 247.5,89.5C 246.312,90.84 244.812,91.5066 243,91.5C 239.123,90.1461 235.29,88.6461 231.5,87C 227.514,86.5012 223.514,86.3345 219.5,86.5C 219.5,84.1667 219.5,81.8333 219.5,79.5C 225.476,80.1949 228.809,77.5282 229.5,71.5C 231.152,79.899 235.319,81.5656 242,76.5C 242.494,74.8659 242.66,73.1992 242.5,71.5C 246.5,71.5 250.5,71.5 254.5,71.5C 256.552,70.2898 258.718,69.2898 261,68.5C 263.511,68.8402 265.678,69.8402 267.5,71.5 Z"/></g>
<g><path style="opacity:1" fill="#a55c3b" d="M 111.5,65.5 C 113.153,68.1305 114.819,70.7972 116.5,73.5C 116.656,76.8411 117.989,79.6745 120.5,82C 122.833,83.6667 125.167,85.3333 127.5,87C 130.117,87.8215 132.784,88.3215 135.5,88.5C 135.5,89.5 135.5,90.5 135.5,91.5C 127.769,95.4546 120.103,95.4546 112.5,91.5C 112.167,91.5 111.833,91.5 111.5,91.5C 111.5,82.8333 111.5,74.1667 111.5,65.5 Z"/></g>
<g><path style="opacity:1" fill="#cbc8cd" d="M 219.5,54.5 C 219.5,57.1667 219.5,59.8333 219.5,62.5C 219.5,63.1667 219.5,63.8333 219.5,64.5C 219.5,65.1667 219.5,65.8333 219.5,66.5C 219.167,69.8333 218.833,73.1667 218.5,76.5C 218.5,77.1667 218.5,77.8333 218.5,78.5C 218.167,78.5 217.833,78.5 217.5,78.5C 214.626,73.616 214.959,68.9493 218.5,64.5C 217.542,60.9829 217.875,57.6496 219.5,54.5 Z"/></g>
<g><path style="opacity:1" fill="#956e68" d="M 219.5,64.5 C 223.811,63.536 226.811,65.036 228.5,69C 229.448,69.4828 230.448,69.6495 231.5,69.5C 230.866,73.9078 232.533,76.9078 236.5,78.5C 240.632,76.9036 242.132,73.9036 241,69.5C 238.523,64.6319 235.523,64.2986 232,68.5C 231.493,67.0039 231.993,65.8373 233.5,65C 237.798,63.5404 240.798,64.8738 242.5,69C 246.152,69.4986 249.818,69.6653 253.5,69.5C 253.833,70.1667 254.167,70.8333 254.5,71.5C 250.5,71.5 246.5,71.5 242.5,71.5C 242.66,73.1992 242.494,74.8659 242,76.5C 235.319,81.5656 231.152,79.899 229.5,71.5C 228.809,77.5282 225.476,80.1949 219.5,79.5C 219.5,78.8333 219.167,78.5 218.5,78.5C 218.5,77.8333 218.5,77.1667 218.5,76.5C 223.443,79.8381 226.443,78.5048 227.5,72.5C 227.26,66.9015 224.594,64.9015 219.5,66.5C 219.5,65.8333 219.5,65.1667 219.5,64.5 Z"/></g>
<g><path style="opacity:1" fill="#8b492f" d="M 116.5,73.5 C 121.12,76.8156 126.12,79.649 131.5,82C 133.464,83.451 134.797,85.2843 135.5,87.5C 135.5,87.8333 135.5,88.1667 135.5,88.5C 132.784,88.3215 130.117,87.8215 127.5,87C 125.167,85.3333 122.833,83.6667 120.5,82C 117.989,79.6745 116.656,76.8411 116.5,73.5 Z"/></g>
<g><path style="opacity:1" fill="#d68d68" d="M 263.5,82.5 C 263.675,84.6208 263.341,86.6208 262.5,88.5C 259.472,96.7525 254.472,103.919 247.5,110C 245.182,111.993 242.516,113.159 239.5,113.5C 239.167,111.5 238.833,109.5 238.5,107.5C 229.613,108.134 223.78,104.134 221,95.5C 220.498,92.4869 219.998,89.4869 219.5,86.5C 223.514,86.3345 227.514,86.5012 231.5,87C 235.29,88.6461 239.123,90.1461 243,91.5C 244.812,91.5066 246.312,90.84 247.5,89.5C 250.083,86.0026 252.416,82.3359 254.5,78.5C 255.324,84.7314 258.324,86.0647 263.5,82.5 Z"/></g>
<g><path style="opacity:1" fill="#fcf7f5" d="M 223.5,90.5 C 227.226,90.1774 230.893,90.5108 234.5,91.5C 229.902,98.4206 226.236,98.0873 223.5,90.5 Z"/></g>
<g><path style="opacity:0.824" fill="#b1b6ca" d="M 363.5,96.5 C 352.711,92.8495 341.711,92.5161 330.5,95.5C 331.842,94.207 333.509,93.3736 335.5,93C 343.182,91.1002 350.849,91.1002 358.5,93C 360.881,93.2233 362.547,94.39 363.5,96.5 Z"/></g>
<g><path style="opacity:1" fill="#303d72" d="M 111.5,91.5 C 111.833,91.5 112.167,91.5 112.5,91.5C 114.067,95.5623 116.567,98.8957 120,101.5C 122.498,99.583 125.165,97.9164 128,96.5C 130.705,97.9391 133.538,98.9391 136.5,99.5C 136.599,96.7628 136.265,94.0961 135.5,91.5C 144.614,93.5289 153.614,96.0289 162.5,99C 174.5,109 186.5,119 198.5,129C 206.727,128.32 214.727,126.82 222.5,124.5C 222.833,124.5 223.167,124.5 223.5,124.5C 224.239,124.369 224.906,124.536 225.5,125C 222.669,126.666 220.336,128.832 218.5,131.5C 214.86,137.095 212.193,143.095 210.5,149.5C 202.291,152.397 194.291,152.064 186.5,148.5C 186.027,147.094 185.027,146.427 183.5,146.5C 179.117,142.786 174.45,139.453 169.5,136.5C 169.44,135.957 169.107,135.624 168.5,135.5C 170.229,166.471 172.562,197.471 175.5,228.5C 162.656,228.171 149.989,228.505 137.5,229.5C 136.292,228.766 134.959,228.433 133.5,228.5C 133.5,230.167 133.5,231.833 133.5,233.5C 120.615,206.762 107.782,179.762 95,152.5C 94.6667,152.167 94.3333,151.833 94,151.5C 93.8091,153.708 93.3091,155.708 92.5,157.5C 92.2491,152.493 91.9157,147.493 91.5,142.5C 91.4431,141.391 91.1098,140.391 90.5,139.5C 90.5,136.833 90.5,134.167 90.5,131.5C 91.2216,131.082 91.7216,130.416 92,129.5C 94.2825,119.58 92.1159,110.913 85.5,103.5C 85.3691,102.624 85.7025,101.957 86.5,101.5C 90.1128,100.198 93.4461,98.5309 96.5,96.5C 101.755,95.4152 106.755,93.7485 111.5,91.5 Z"/></g>
<g><path style="opacity:0.53" fill="#eddcd4" d="M 270.5,44.5 C 271.705,51.6996 271.538,59.033 270,66.5C 269.088,70.7946 268.421,75.1279 268,79.5C 265.32,81.8756 263.987,84.8756 264,88.5C 263.168,97.8511 263.335,107.184 264.5,116.5C 266.5,115.833 268.5,115.167 270.5,114.5C 275.523,114.537 278.857,116.87 280.5,121.5C 276.474,116.683 271.474,115.349 265.5,117.5C 264.5,117.5 263.5,117.5 262.5,117.5C 262.5,107.833 262.5,98.1667 262.5,88.5C 263.341,86.6208 263.675,84.6208 263.5,82.5C 267.008,79.7173 268.342,76.0506 267.5,71.5C 269.631,62.6358 270.631,53.6358 270.5,44.5 Z"/></g>
<g><path style="opacity:1" fill="#f0eff2" d="M 112.5,91.5 C 120.103,95.4546 127.769,95.4546 135.5,91.5C 136.265,94.0961 136.599,96.7628 136.5,99.5C 133.538,98.9391 130.705,97.9391 128,96.5C 125.165,97.9164 122.498,99.583 120,101.5C 116.567,98.8957 114.067,95.5623 112.5,91.5 Z"/></g>
<g><path style="opacity:0.247" fill="#fef4d4" d="M 81.5,99.5 C 72.3563,96.4049 63.023,95.7382 53.5,97.5C 61.3067,95.0207 69.3067,94.854 77.5,97C 79.3197,97.2004 80.653,98.0337 81.5,99.5 Z"/></g>
<g><path style="opacity:1" fill="#f9ad85" d="M 262.5,88.5 C 262.5,98.1667 262.5,107.833 262.5,117.5C 258.65,119.091 254.65,120.091 250.5,120.5C 246.706,120.677 243.373,119.677 240.5,117.5C 240.567,116.041 240.234,114.708 239.5,113.5C 242.516,113.159 245.182,111.993 247.5,110C 254.472,103.919 259.472,96.7525 262.5,88.5 Z"/></g>
<g><path style="opacity:1" fill="#323e73" d="M 363.5,96.5 C 364.08,98.7488 365.413,100.415 367.5,101.5C 368.498,112.66 363.498,116.827 352.5,114C 349.714,111.94 346.714,110.44 343.5,109.5C 341.847,109.34 340.514,108.674 339.5,107.5C 337.664,105.412 335.331,104.079 332.5,103.5C 331.19,101.852 329.857,100.186 328.5,98.5C 329.193,97.4822 329.859,96.4822 330.5,95.5C 341.711,92.5161 352.711,92.8495 363.5,96.5 Z"/></g>
<g><path style="opacity:1" fill="#f8c10a" d="M 81.5,99.5 C 82.5,101.167 83.8333,102.5 85.5,103.5C 92.1159,110.913 94.2825,119.58 92,129.5C 91.7216,130.416 91.2216,131.082 90.5,131.5C 88.1469,129.899 85.9802,127.899 84,125.5C 82.6218,130.208 79.7885,133.708 75.5,136C 67.8953,137.19 60.2286,137.857 52.5,138C 51.565,140.381 51.2317,142.881 51.5,145.5C 46.2241,146.293 44.3908,149.293 46,154.5C 47.2635,156.607 49.0968,157.607 51.5,157.5C 52.209,158.404 53.209,158.737 54.5,158.5C 54.6837,164.231 55.3504,169.898 56.5,175.5C 55.713,177.104 54.3797,177.771 52.5,177.5C 48.352,177.426 45.0187,175.759 42.5,172.5C 43.2543,175.091 44.921,176.924 47.5,178C 42.4757,178.76 37.809,177.927 33.5,175.5C 30.8945,160.299 29.8945,144.965 30.5,129.5C 30.1936,126.615 30.5269,123.948 31.5,121.5C 33.411,117.767 34.7444,113.767 35.5,109.5C 40.5839,103.97 46.5839,99.9696 53.5,97.5C 63.023,95.7382 72.3563,96.4049 81.5,99.5 Z"/></g>
<g><path style="opacity:0.259" fill="#d8dae4" d="M 330.5,95.5 C 329.859,96.4822 329.193,97.4822 328.5,98.5C 329.857,100.186 331.19,101.852 332.5,103.5C 328.736,102.577 327.236,100.244 328,96.5C 328.671,95.7476 329.504,95.4142 330.5,95.5 Z"/></g>
<g><path style="opacity:0.122" fill="#caccd4" d="M 96.5,96.5 C 93.4461,98.5309 90.1128,100.198 86.5,101.5C 85.7025,101.957 85.3691,102.624 85.5,103.5C 83.8333,102.5 82.5,101.167 81.5,99.5C 82.6948,99.6775 83.8615,100.011 85,100.5C 88.6058,98.465 92.4391,97.1316 96.5,96.5 Z"/></g>
<g><path style="opacity:0.494" fill="#f4dacc" d="M 217.5,78.5 C 217.833,78.5 218.167,78.5 218.5,78.5C 219.167,78.5 219.5,78.8333 219.5,79.5C 219.5,81.8333 219.5,84.1667 219.5,86.5C 219.998,89.4869 220.498,92.4869 221,95.5C 223.78,104.134 229.613,108.134 238.5,107.5C 238.833,109.5 239.167,111.5 239.5,113.5C 240.234,114.708 240.567,116.041 240.5,117.5C 239.833,117.5 239.5,117.167 239.5,116.5C 238.434,114.299 237.767,111.965 237.5,109.5C 227.087,108.591 220.92,102.925 219,92.5C 218.335,87.8439 217.835,83.1772 217.5,78.5 Z"/></g>
<g><path style="opacity:0.533" fill="#feedb7" d="M 53.5,97.5 C 46.5839,99.9696 40.5839,103.97 35.5,109.5C 39.4736,102.51 45.4736,98.5098 53.5,97.5 Z"/></g>
<g><path style="opacity:0.314" fill="#c5c8d7" d="M 363.5,96.5 C 365.587,97.5846 366.92,99.2512 367.5,101.5C 365.413,100.415 364.08,98.7488 363.5,96.5 Z"/></g>
<g><path style="opacity:0.635" fill="#c2c5d3" d="M 157.5,60.5 C 157.833,60.5 158.167,60.5 158.5,60.5C 158.993,69.6431 158.159,78.6431 156,87.5C 152.26,89.991 148.093,91.491 143.5,92C 150.27,93.6919 156.936,95.6919 163.5,98C 174.982,107.905 186.649,117.572 198.5,127C 206.506,126.502 214.506,125.668 222.5,124.5C 214.727,126.82 206.727,128.32 198.5,129C 186.5,119 174.5,109 162.5,99C 153.614,96.0289 144.614,93.5289 135.5,91.5C 135.5,90.5 135.5,89.5 135.5,88.5C 135.5,88.1667 135.5,87.8333 135.5,87.5C 137.38,87.2291 138.713,87.8958 139.5,89.5C 143.182,89.6653 146.848,89.4986 150.5,89C 152.329,88.7265 153.829,87.8932 155,86.5C 157.003,77.9516 157.837,69.285 157.5,60.5 Z M 139.5,89.5 C 138.614,90.7759 137.614,90.7759 136.5,89.5C 137.233,88.913 138.233,88.913 139.5,89.5 Z"/></g>
<g><path style="opacity:0.008" fill="#cdd0dd" d="M 332.5,103.5 C 335.331,104.079 337.664,105.412 339.5,107.5C 336.674,107.002 334.34,105.669 332.5,103.5 Z"/></g>
<g><path style="opacity:0.008" fill="#c1ede3" d="M 420.5,124.5 C 412.717,121.629 404.717,119.463 396.5,118C 391.139,117.391 385.805,117.558 380.5,118.5C 383.074,116.531 386.074,115.531 389.5,115.5C 400.581,116.309 410.915,119.309 420.5,124.5 Z"/></g>
<g><path style="opacity:1" fill="#a45c3c" d="M 280.5,121.5 C 280.5,122.833 280.5,124.167 280.5,125.5C 276.887,129.549 272.554,130.382 267.5,128C 263.072,125.134 262.405,121.634 265.5,117.5C 271.474,115.349 276.474,116.683 280.5,121.5 Z"/></g>
<g><path style="opacity:0.635" fill="#ced2de" d="M 367.5,101.5 C 370.479,106.594 369.479,110.927 364.5,114.5C 363.334,126.82 363.167,139.153 364,151.5C 365.441,152.26 366.941,152.926 368.5,153.5C 369.621,147.346 369.621,141.179 368.5,135C 368.245,131.592 369.245,128.759 371.5,126.5C 368.464,132.942 369.131,138.942 373.5,144.5C 372.355,148.311 372.188,152.311 373,156.5C 374.481,157.471 375.315,158.804 375.5,160.5C 361.835,148.962 349.335,150.295 338,164.5C 331.641,174.885 326.641,185.885 323,197.5C 322.264,200.592 322.431,203.592 323.5,206.5C 322.92,208.749 321.587,210.415 319.5,211.5C 319.859,209.629 320.859,208.129 322.5,207C 322.72,186.544 330.387,169.211 345.5,155C 350.164,152.418 355.164,151.251 360.5,151.5C 360.5,139.833 360.5,128.167 360.5,116.5C 353.738,116.613 348.072,114.28 343.5,109.5C 346.714,110.44 349.714,111.94 352.5,114C 363.498,116.827 368.498,112.66 367.5,101.5 Z"/></g>
<g><path style="opacity:0.422" fill="#ffecb4" d="M 35.5,109.5 C 34.7444,113.767 33.411,117.767 31.5,121.5C 31.6187,116.996 32.9521,112.996 35.5,109.5 Z"/></g>
<g><path style="opacity:1" fill="#61d5e5" d="M 239.5,116.5 C 239.5,117.167 239.833,117.5 240.5,117.5C 243.373,119.677 246.706,120.677 250.5,120.5C 254.65,120.091 258.65,119.091 262.5,117.5C 263.5,117.5 264.5,117.5 265.5,117.5C 262.405,121.634 263.072,125.134 267.5,128C 272.554,130.382 276.887,129.549 280.5,125.5C 285.5,127.5 290.5,129.5 295.5,131.5C 299.851,134.52 303.017,138.52 305,143.5C 308.121,151.321 310.621,159.321 312.5,167.5C 311.5,167.5 310.5,167.5 309.5,167.5C 308.508,167.328 307.842,167.662 307.5,168.5C 301.298,170.638 295.298,172.638 289.5,174.5C 288.526,173.365 287.359,172.365 286,171.5C 283.858,164.909 282.025,158.242 280.5,151.5C 269.643,195.976 259.643,240.643 250.5,285.5C 248.5,285.5 246.5,285.5 244.5,285.5C 244.833,267.155 244.5,248.821 243.5,230.5C 242.692,230.192 242.025,229.692 241.5,229C 232.506,228.5 223.506,228.334 214.5,228.5C 214.5,227.167 214.5,225.833 214.5,224.5C 214.429,209.959 215.096,195.459 216.5,181C 216.474,176.087 216.141,171.254 215.5,166.5C 217.397,155.209 218.397,143.542 218.5,131.5C 220.336,128.832 222.669,126.666 225.5,125C 224.906,124.536 224.239,124.369 223.5,124.5C 229.063,122.385 234.396,119.719 239.5,116.5 Z"/></g>
<g><path style="opacity:0.663" fill="#ccf1e8" d="M 376.5,121.5 C 375.167,123.5 373.5,125.167 371.5,126.5C 372.167,123.833 373.833,122.167 376.5,121.5 Z"/></g>
<g><path style="opacity:1" fill="#18c79c" d="M 420.5,124.5 C 421.492,124.328 422.158,124.662 422.5,125.5C 424.348,127.516 426.015,129.683 427.5,132C 426.685,133.643 425.685,135.143 424.5,136.5C 424.158,137.338 423.492,137.672 422.5,137.5C 414.938,139.467 407.605,141.8 400.5,144.5C 397.785,146.072 394.785,147.072 391.5,147.5C 386.463,147.587 381.463,147.254 376.5,146.5C 374.973,146.573 373.973,145.906 373.5,144.5C 369.131,138.942 368.464,132.942 371.5,126.5C 373.5,125.167 375.167,123.5 376.5,121.5C 377.262,119.738 378.596,118.738 380.5,118.5C 385.805,117.558 391.139,117.391 396.5,118C 404.717,119.463 412.717,121.629 420.5,124.5 Z"/></g>
<g><path style="opacity:0.294" fill="#d2eef1" d="M 280.5,121.5 C 281.158,122.398 281.824,123.398 282.5,124.5C 287.342,126.085 291.675,128.418 295.5,131.5C 290.5,129.5 285.5,127.5 280.5,125.5C 280.5,124.167 280.5,122.833 280.5,121.5 Z"/></g>
<g><path style="opacity:0.188" fill="#c5f0e6" d="M 422.5,125.5 C 427.057,126.881 428.891,129.881 428,134.5C 427.184,135.823 426.017,136.489 424.5,136.5C 425.685,135.143 426.685,133.643 427.5,132C 426.015,129.683 424.348,127.516 422.5,125.5 Z"/></g>
<g><path style="opacity:0.239" fill="#fdefc1" d="M 30.5,129.5 C 29.8945,144.965 30.8945,160.299 33.5,175.5C 31.2835,170.869 30.1169,165.869 30,160.5C 29.1748,149.992 29.3415,139.658 30.5,129.5 Z"/></g>
<g><path style="opacity:1" fill="#18bccf" d="M 218.5,131.5 C 218.397,143.542 217.397,155.209 215.5,166.5C 214.391,166.443 213.391,166.11 212.5,165.5C 212.5,164.833 212.167,164.5 211.5,164.5C 210.061,163.012 209.395,161.178 209.5,159C 210.107,155.857 210.441,152.69 210.5,149.5C 212.193,143.095 214.86,137.095 218.5,131.5 Z"/></g>
<g><path style="opacity:1" fill="#f37e2b" d="M 90.5,139.5 C 91.1098,140.391 91.4431,141.391 91.5,142.5C 90.609,141.89 89.609,141.557 88.5,141.5C 86.5952,141.094 84.5952,140.761 82.5,140.5C 84.9544,138.341 87.6211,138.008 90.5,139.5 Z"/></g>
<g><path style="opacity:1" fill="#f9ab80" d="M 90.5,131.5 C 90.5,134.167 90.5,136.833 90.5,139.5C 87.6211,138.008 84.9544,138.341 82.5,140.5C 84.5952,140.761 86.5952,141.094 88.5,141.5C 88.4428,147.851 88.1095,154.185 87.5,160.5C 84.8516,162.566 82.5182,165.066 80.5,168C 75.712,168.863 73.712,171.696 74.5,176.5C 77.5,176.5 80.5,176.5 83.5,176.5C 81.0521,177.473 78.3854,177.806 75.5,177.5C 73.744,178.552 73.0773,180.219 73.5,182.5C 66.5643,184.652 59.5643,184.985 52.5,183.5C 52.5,182.167 52.5,180.833 52.5,179.5C 61.3464,177.15 64.5131,171.483 62,162.5C 59.8345,159.493 57.0011,157.493 53.5,156.5C 52.5836,156.543 51.9169,156.876 51.5,157.5C 49.0968,157.607 47.2635,156.607 46,154.5C 44.3908,149.293 46.2241,146.293 51.5,145.5C 51.2317,142.881 51.565,140.381 52.5,138C 60.2286,137.857 67.8953,137.19 75.5,136C 79.7885,133.708 82.6218,130.208 84,125.5C 85.9802,127.899 88.1469,129.899 90.5,131.5 Z"/></g>
<g><path style="opacity:0.549" fill="#c3c6d6" d="M 169.5,136.5 C 174.45,139.453 179.117,142.786 183.5,146.5C 177.993,144.323 173.326,140.99 169.5,136.5 Z"/></g>
<g><path style="opacity:1" fill="#f77821" d="M 71.5,138.5 C 73.6547,138.372 75.6547,138.872 77.5,140C 73.4567,140.268 69.79,141.268 66.5,143C 68.6175,141.951 70.2842,140.451 71.5,138.5 Z"/></g>
<g><path style="opacity:0.004" fill="#b9efe3" d="M 422.5,137.5 C 418.542,139.993 414.209,141.827 409.5,143C 406.522,143.696 403.522,144.196 400.5,144.5C 407.605,141.8 414.938,139.467 422.5,137.5 Z"/></g>
<g><path style="opacity:0.49" fill="#bfc4d4" d="M 183.5,146.5 C 185.027,146.427 186.027,147.094 186.5,148.5C 184.973,148.573 183.973,147.906 183.5,146.5 Z"/></g>
<g><path style="opacity:0.286" fill="#b7efe1" d="M 376.5,146.5 C 381.463,147.254 386.463,147.587 391.5,147.5C 386.338,150.205 381.338,149.872 376.5,146.5 Z"/></g>
<g><path style="opacity:1" fill="#e1b022" d="M 88.5,141.5 C 89.609,141.557 90.609,141.89 91.5,142.5C 91.9157,147.493 92.2491,152.493 92.5,157.5C 92.8205,162.695 92.4872,167.695 91.5,172.5C 91.7609,168.658 91.0942,164.991 89.5,161.5C 89.0431,160.702 88.3764,160.369 87.5,160.5C 88.1095,154.185 88.4428,147.851 88.5,141.5 Z"/></g>
<g><path style="opacity:0.553" fill="#b6c6d5" d="M 186.5,148.5 C 194.291,152.064 202.291,152.397 210.5,149.5C 210.441,152.69 210.107,155.857 209.5,159C 209.395,161.178 210.061,163.012 211.5,164.5C 211.167,164.5 210.833,164.5 210.5,164.5C 208.754,163.751 207.754,162.417 207.5,160.5C 208.041,157.792 208.708,155.126 209.5,152.5C 209,152.167 208.5,151.833 208,151.5C 200.054,154.978 192.887,153.978 186.5,148.5 Z"/></g>
<g><path style="opacity:1" fill="#313e72" d="M 375.5,160.5 C 375.433,161.959 375.766,163.292 376.5,164.5C 376.167,165.167 375.833,165.833 375.5,166.5C 367.419,170.661 364.086,177.327 365.5,186.5C 362.489,187.669 359.822,189.336 357.5,191.5C 353.608,193.062 350.275,195.395 347.5,198.5C 345.938,198.733 344.605,199.4 343.5,200.5C 338.739,200.124 334.405,201.124 330.5,203.5C 328.313,204.758 325.98,205.758 323.5,206.5C 322.431,203.592 322.264,200.592 323,197.5C 326.641,185.885 331.641,174.885 338,164.5C 349.335,150.295 361.835,148.962 375.5,160.5 Z"/></g>
<g><path style="opacity:1" fill="#26335e" d="M 133.5,233.5 C 133.5,247.833 133.5,262.167 133.5,276.5C 124.408,273.123 115.408,269.456 106.5,265.5C 104.913,254.871 103.58,244.205 102.5,233.5C 102.556,228.269 101.889,223.269 100.5,218.5C 100.482,210.963 99.8149,203.629 98.5,196.5C 97.4763,192.638 95.1429,189.805 91.5,188C 85.572,185.857 79.572,184.023 73.5,182.5C 73.0773,180.219 73.744,178.552 75.5,177.5C 78.3035,178.638 81.3035,178.805 84.5,178C 85.056,177.617 85.3893,177.117 85.5,176.5C 86.1667,176.5 86.5,176.167 86.5,175.5C 88.9328,175.727 90.5994,174.727 91.5,172.5C 92.4872,167.695 92.8205,162.695 92.5,157.5C 93.3091,155.708 93.8091,153.708 94,151.5C 94.3333,151.833 94.6667,152.167 95,152.5C 107.782,179.762 120.615,206.762 133.5,233.5 Z"/></g>
<g><path style="opacity:1" fill="#14bed0" d="M 289.5,174.5 C 290.819,178.744 291.819,183.078 292.5,187.5C 292.5,188.167 292.5,188.833 292.5,189.5C 290.794,203.629 290.127,217.962 290.5,232.5C 286.438,250.752 281.771,268.752 276.5,286.5C 265.833,286.5 255.167,286.5 244.5,286.5C 244.5,286.167 244.5,285.833 244.5,285.5C 246.5,285.5 248.5,285.5 250.5,285.5C 259.643,240.643 269.643,195.976 280.5,151.5C 282.025,158.242 283.858,164.909 286,171.5C 287.359,172.365 288.526,173.365 289.5,174.5 Z"/></g>
<g><path style="opacity:1" fill="#faac82" d="M 54.5,158.5 C 61.3555,161.571 63.1889,166.571 60,173.5C 59.1841,174.823 58.0174,175.489 56.5,175.5C 55.3504,169.898 54.6837,164.231 54.5,158.5 Z"/></g>
<g><path style="opacity:1" fill="#facfb6" d="M 52.5,179.5 C 51.5,179.5 50.5,179.5 49.5,179.5C 50.5,178.833 51.5,178.167 52.5,177.5C 54.3797,177.771 55.713,177.104 56.5,175.5C 58.0174,175.489 59.1841,174.823 60,173.5C 63.1889,166.571 61.3555,161.571 54.5,158.5C 53.209,158.737 52.209,158.404 51.5,157.5C 51.9169,156.876 52.5836,156.543 53.5,156.5C 57.0011,157.493 59.8345,159.493 62,162.5C 64.5131,171.483 61.3464,177.15 52.5,179.5 Z"/></g>
<g><path style="opacity:1" fill="#f8c10c" d="M 87.5,160.5 C 90.3903,165.712 90.0569,170.712 86.5,175.5C 86.5,176.167 86.1667,176.5 85.5,176.5C 84.8333,176.5 84.1667,176.5 83.5,176.5C 80.5,176.5 77.5,176.5 74.5,176.5C 73.712,171.696 75.712,168.863 80.5,168C 82.5182,165.066 84.8516,162.566 87.5,160.5 Z"/></g>
<g><path style="opacity:1" fill="#f7d563" d="M 87.5,160.5 C 88.3764,160.369 89.0431,160.702 89.5,161.5C 91.0942,164.991 91.7609,168.658 91.5,172.5C 90.5994,174.727 88.9328,175.727 86.5,175.5C 90.0569,170.712 90.3903,165.712 87.5,160.5 Z"/></g>
<g><path style="opacity:1" fill="#a9e3d4" d="M 375.5,160.5 C 377.07,163.932 379.404,164.432 382.5,162C 387.5,161.333 392.5,161.333 397.5,162C 400.684,162.754 403.351,164.254 405.5,166.5C 400.963,164.223 396.13,162.89 391,162.5C 386.24,163.732 381.407,164.399 376.5,164.5C 375.766,163.292 375.433,161.959 375.5,160.5 Z"/></g>
<g><path style="opacity:1" fill="#2abd95" d="M 405.5,166.5 C 407.027,166.427 408.027,167.094 408.5,168.5C 410.833,171.5 413.5,174.167 416.5,176.5C 424.043,183.711 430.043,192.045 434.5,201.5C 434.502,205.165 435.835,208.165 438.5,210.5C 438.993,212.806 439.326,215.139 439.5,217.5C 432.226,209.675 425.393,201.342 419,192.5C 406.836,179.818 392.336,171.151 375.5,166.5C 375.833,165.833 376.167,165.167 376.5,164.5C 381.407,164.399 386.24,163.732 391,162.5C 396.13,162.89 400.963,164.223 405.5,166.5 Z"/></g>
<g><path style="opacity:1" fill="#fbdc76" d="M 42.5,172.5 C 39.6,168.207 40.1,164.207 44,160.5C 42.7493,164.232 42.2493,168.232 42.5,172.5 Z"/></g>
<g><path style="opacity:1" fill="#e59060" d="M 212.5,165.5 C 213.391,166.11 214.391,166.443 215.5,166.5C 216.141,171.254 216.474,176.087 216.5,181C 215.096,195.459 214.429,209.959 214.5,224.5C 211.28,227.562 207.28,228.896 202.5,228.5C 199.087,228.483 196.087,227.816 193.5,226.5C 194.11,224.566 195.11,222.899 196.5,221.5C 198.924,218.992 200.59,215.992 201.5,212.5C 201.328,211.508 201.662,210.842 202.5,210.5C 204.588,208.664 205.921,206.331 206.5,203.5C 206.328,202.508 206.662,201.842 207.5,201.5C 209.43,189.536 211.096,177.536 212.5,165.5 Z"/></g>
<g><path style="opacity:1" fill="#10c99d" d="M 375.5,166.5 C 392.336,171.151 406.836,179.818 419,192.5C 425.393,201.342 432.226,209.675 439.5,217.5C 440.623,219.688 440.623,222.021 439.5,224.5C 439.5,225.167 439.167,225.5 438.5,225.5C 434.5,225.5 430.5,225.5 426.5,225.5C 421.99,223.912 417.657,221.745 413.5,219C 412.207,218.51 410.873,218.343 409.5,218.5C 407.847,218.34 406.514,217.674 405.5,216.5C 401.584,213.71 397.251,211.71 392.5,210.5C 387.488,209.06 382.821,207.06 378.5,204.5C 377.415,202.413 375.749,201.08 373.5,200.5C 371.134,197.143 368.801,193.81 366.5,190.5C 365.662,190.158 365.328,189.492 365.5,188.5C 365.5,187.833 365.5,187.167 365.5,186.5C 364.086,177.327 367.419,170.661 375.5,166.5 Z"/></g>
<g><path style="opacity:0.02" fill="#d3f2eb" d="M 408.5,168.5 C 412.167,170.167 414.833,172.833 416.5,176.5C 413.5,174.167 410.833,171.5 408.5,168.5 Z"/></g>
<g><path style="opacity:1" fill="#f9ad84" d="M 307.5,168.5 C 311.008,180.374 314.008,192.374 316.5,204.5C 316.433,210.085 315.433,215.418 313.5,220.5C 309.947,228.276 306.947,236.276 304.5,244.5C 302.408,247.088 301.075,250.088 300.5,253.5C 300.5,253.833 300.5,254.167 300.5,254.5C 300.5,255.5 300.5,256.5 300.5,257.5C 298.9,259.703 297.567,262.036 296.5,264.5C 293.734,269.117 291.734,274.117 290.5,279.5C 288.903,281.848 287.903,284.514 287.5,287.5C 285.883,291.614 285.049,295.947 285,300.5C 277.381,304.722 272.548,302.722 270.5,294.5C 272.167,291.511 274.167,288.844 276.5,286.5C 281.771,268.752 286.438,250.752 290.5,232.5C 291.434,231.432 291.768,230.099 291.5,228.5C 292.966,227.653 293.8,226.32 294,224.5C 294.719,220.855 295.219,217.188 295.5,213.5C 296.734,211.799 297.401,209.799 297.5,207.5C 297.235,203.494 296.235,199.827 294.5,196.5C 294.785,193.171 294.118,190.171 292.5,187.5C 291.819,183.078 290.819,178.744 289.5,174.5C 295.298,172.638 301.298,170.638 307.5,168.5 Z"/></g>
<g><path style="opacity:0.216" fill="#f6d9c9" d="M 210.5,164.5 C 210.833,164.5 211.167,164.5 211.5,164.5C 212.167,164.5 212.5,164.833 212.5,165.5C 211.096,177.536 209.43,189.536 207.5,201.5C 208.114,189.132 209.114,176.799 210.5,164.5 Z"/></g>
<g><path style="opacity:1" fill="#9ba0b9" d="M 83.5,176.5 C 84.1667,176.5 84.8333,176.5 85.5,176.5C 85.3893,177.117 85.056,177.617 84.5,178C 81.3035,178.805 78.3035,178.638 75.5,177.5C 78.3854,177.806 81.0521,177.473 83.5,176.5 Z"/></g>
<g><path style="opacity:1" fill="#fde69b" d="M 42.5,172.5 C 45.0187,175.759 48.352,177.426 52.5,177.5C 51.5,178.167 50.5,178.833 49.5,179.5C 45.1186,179.628 40.7853,179.295 36.5,178.5C 34.5,178.5 33.5,177.5 33.5,175.5C 37.809,177.927 42.4757,178.76 47.5,178C 44.921,176.924 43.2543,175.091 42.5,172.5 Z"/></g>
<g><path style="opacity:0.129" fill="#fce8dc" d="M 307.5,168.5 C 307.842,167.662 308.508,167.328 309.5,167.5C 312.627,179.676 314.96,192.009 316.5,204.5C 314.008,192.374 311.008,180.374 307.5,168.5 Z"/></g>
<g><path style="opacity:1" fill="#343e71" d="M 51.5,183.5 C 45.5105,185.493 39.5105,187.493 33.5,189.5C 33.5479,186.708 32.2146,184.875 29.5,184C 26.7395,183.278 24.0728,183.445 21.5,184.5C 21.5,183.5 21.5,182.5 21.5,181.5C 31.5034,181.25 41.5034,180.916 51.5,180.5C 51.5,181.5 51.5,182.5 51.5,183.5 Z"/></g>
<g><path style="opacity:0.996" fill="#eff0f3" d="M 73.5,182.5 C 79.572,184.023 85.572,185.857 91.5,188C 95.1429,189.805 97.4763,192.638 98.5,196.5C 98.7556,222.953 99.4223,249.453 100.5,276C 100.139,283.835 99.8052,291.669 99.5,299.5C 98.1667,299.167 96.8333,298.833 95.5,298.5C 92.5672,296.355 89.5672,294.188 86.5,292C 69.7931,283.563 53.2931,274.73 37,265.5C 38.2512,251.824 39.5846,238.157 41,224.5C 36.1297,237.901 30.463,250.901 24,263.5C 22.6815,266.406 22.3482,269.406 23,272.5C 45.1181,280.036 66.9515,288.036 88.5,296.5C 87.9933,300.86 87.3266,305.193 86.5,309.5C 82.5,309.5 78.5,309.5 74.5,309.5C 74.3893,308.883 74.056,308.383 73.5,308C 56.9232,305.314 40.7565,301.148 25,295.5C 24.5004,302.158 24.3337,308.825 24.5,315.5C 23.8333,315.5 23.5,315.167 23.5,314.5C 23.6663,307.825 23.4996,301.158 23,294.5C 15.6866,292.012 9.35326,288.012 4,282.5C 2.44633,278.453 1.27966,274.287 0.5,270C 1.66699,263.83 2.83366,257.663 4,251.5C 8.89312,234.991 14.0598,218.658 19.5,202.5C 19.8333,202.5 20.1667,202.5 20.5,202.5C 28.4403,201.893 32.7736,197.56 33.5,189.5C 39.5105,187.493 45.5105,185.493 51.5,183.5C 51.8333,183.5 52.1667,183.5 52.5,183.5C 59.5643,184.985 66.5643,184.652 73.5,182.5 Z"/></g>
<g><path style="opacity:1" fill="#a45b3a" d="M 33.5,189.5 C 32.7736,197.56 28.4403,201.893 20.5,202.5C 14.9387,196.207 15.272,190.207 21.5,184.5C 24.0728,183.445 26.7395,183.278 29.5,184C 32.2146,184.875 33.5479,186.708 33.5,189.5 Z"/></g>
<g><path style="opacity:0.545" fill="#f6e8dd" d="M 292.5,187.5 C 294.118,190.171 294.785,193.171 294.5,196.5C 293.833,197.5 293.167,198.5 292.5,199.5C 292.5,196.167 292.5,192.833 292.5,189.5C 292.5,188.833 292.5,188.167 292.5,187.5 Z"/></g>
<g><path style="opacity:0.098" fill="#cacddb" d="M 357.5,191.5 C 354.725,194.605 351.392,196.938 347.5,198.5C 350.275,195.395 353.608,193.062 357.5,191.5 Z"/></g>
<g><path style="opacity:0.156" fill="#d2d9e2" d="M 365.5,186.5 C 365.5,187.167 365.5,187.833 365.5,188.5C 364.176,192.107 363.509,196.107 363.5,200.5C 363.378,207.125 364.044,213.625 365.5,220C 365.494,222.033 365.161,223.866 364.5,225.5C 365.059,218.522 363.393,212.189 359.5,206.5C 360.651,201.35 360.817,196.016 360,190.5C 359.329,191.252 358.496,191.586 357.5,191.5C 359.822,189.336 362.489,187.669 365.5,186.5 Z"/></g>
<g><path style="opacity:0.369" fill="#d4c5c5" d="M 36.5,178.5 C 40.7853,179.295 45.1186,179.628 49.5,179.5C 50.5,179.5 51.5,179.5 52.5,179.5C 52.5,180.833 52.5,182.167 52.5,183.5C 52.1667,183.5 51.8333,183.5 51.5,183.5C 51.5,182.5 51.5,181.5 51.5,180.5C 41.5034,180.916 31.5034,181.25 21.5,181.5C 21.5,182.5 21.5,183.5 21.5,184.5C 15.272,190.207 14.9387,196.207 20.5,202.5C 20.1667,202.5 19.8333,202.5 19.5,202.5C 14.6024,198.864 13.4358,194.197 16,188.5C 18.5068,186.811 20.0068,184.478 20.5,181.5C 25.9192,180.236 31.2525,179.236 36.5,178.5 Z"/></g>
<g><path style="opacity:0.902" fill="#b5eee1" d="M 373.5,200.5 C 375.749,201.08 377.415,202.413 378.5,204.5C 376.251,203.92 374.585,202.587 373.5,200.5 Z"/></g>
<g><path style="opacity:1" fill="#188d84" d="M 343.5,200.5 C 343.5,200.833 343.5,201.167 343.5,201.5C 339.094,201.748 334.76,202.415 330.5,203.5C 334.405,201.124 338.739,200.124 343.5,200.5 Z"/></g>
<g><path style="opacity:1" fill="#10b98f" d="M 343.5,201.5 C 345.167,201.5 346.833,201.5 348.5,201.5C 334.442,211.065 323.276,223.399 315,238.5C 310.497,248.874 306.33,259.208 302.5,269.5C 302.347,263.131 302.68,256.797 303.5,250.5C 304.15,248.565 304.483,246.565 304.5,244.5C 306.947,236.276 309.947,228.276 313.5,220.5C 315.745,217.68 317.745,214.68 319.5,211.5C 321.587,210.415 322.92,208.749 323.5,206.5C 325.98,205.758 328.313,204.758 330.5,203.5C 334.76,202.415 339.094,201.748 343.5,201.5 Z"/></g>
<g><path style="opacity:0.549" fill="#afeadc" d="M 347.5,198.5 C 350.044,200.169 352.71,201.835 355.5,203.5C 353.079,203.122 350.746,202.455 348.5,201.5C 346.833,201.5 345.167,201.5 343.5,201.5C 343.5,201.167 343.5,200.833 343.5,200.5C 344.605,199.4 345.938,198.733 347.5,198.5 Z"/></g>
<g><path style="opacity:0.047" fill="#d0d5df" d="M 366.5,190.5 C 368.801,193.81 371.134,197.143 373.5,200.5C 372.505,211.988 372.172,223.655 372.5,235.5C 372.5,235.833 372.5,236.167 372.5,236.5C 369.807,237.847 367.14,239.18 364.5,240.5C 364.783,239.711 365.283,239.044 366,238.5C 366.5,222.503 366.667,206.503 366.5,190.5 Z"/></g>
<g><path style="opacity:1" fill="#1cca9e" d="M 348.5,201.5 C 350.746,202.455 353.079,203.122 355.5,203.5C 357.404,203.738 358.738,204.738 359.5,206.5C 363.393,212.189 365.059,218.522 364.5,225.5C 362.694,229.579 360.694,233.579 358.5,237.5C 357.167,240.833 354.833,243.167 351.5,244.5C 349.973,244.427 348.973,245.094 348.5,246.5C 341.525,252.471 334.525,258.471 327.5,264.5C 325.251,265.08 323.585,266.413 322.5,268.5C 318.307,272.662 313.307,275.662 307.5,277.5C 305.214,276.867 303.548,275.534 302.5,273.5C 302.5,272.167 302.5,270.833 302.5,269.5C 306.33,259.208 310.497,248.874 315,238.5C 323.276,223.399 334.442,211.065 348.5,201.5 Z"/></g>
<g><path style="opacity:0.937" fill="#b8eadc" d="M 434.5,201.5 C 436.625,204.088 437.958,207.088 438.5,210.5C 435.835,208.165 434.502,205.165 434.5,201.5 Z"/></g>
<g><path style="opacity:0.518" fill="#fde3d6" d="M 294.5,196.5 C 296.235,199.827 297.235,203.494 297.5,207.5C 297.401,209.799 296.734,211.799 295.5,213.5C 295.244,211.208 295.577,209.041 296.5,207C 295.46,203.6 294.794,200.1 294.5,196.5 Z"/></g>
<g><path style="opacity:0.427" fill="#f7dfd2" d="M 206.5,203.5 C 205.921,206.331 204.588,208.664 202.5,210.5C 203.079,207.669 204.412,205.336 206.5,203.5 Z"/></g>
<g><path style="opacity:0.947" fill="#7bd8e2" d="M 292.5,189.5 C 292.5,192.833 292.5,196.167 292.5,199.5C 292.5,206.167 292.5,212.833 292.5,219.5C 291.523,222.287 291.19,225.287 291.5,228.5C 291.768,230.099 291.434,231.432 290.5,232.5C 290.127,217.962 290.794,203.629 292.5,189.5 Z"/></g>
<g><path style="opacity:0.298" fill="#c7f2e8" d="M 392.5,210.5 C 397.251,211.71 401.584,213.71 405.5,216.5C 400.749,215.29 396.416,213.29 392.5,210.5 Z"/></g>
<g><path style="opacity:0.063" fill="#e5f8f3" d="M 438.5,210.5 C 441.198,214.363 442.031,218.696 441,223.5C 440.617,224.056 440.117,224.389 439.5,224.5C 440.623,222.021 440.623,219.688 439.5,217.5C 439.326,215.139 438.993,212.806 438.5,210.5 Z"/></g>
<g><path style="opacity:0.016" fill="#ebece2" d="M 316.5,204.5 C 317.317,206.969 317.817,209.635 318,212.5C 318.383,211.944 318.883,211.611 319.5,211.5C 317.745,214.68 315.745,217.68 313.5,220.5C 315.433,215.418 316.433,210.085 316.5,204.5 Z"/></g>
<g><path style="opacity:0.275" fill="#f9e3d8" d="M 201.5,212.5 C 200.59,215.992 198.924,218.992 196.5,221.5C 197.41,218.008 199.076,215.008 201.5,212.5 Z"/></g>
<g><path style="opacity:0.273" fill="#bdefe3" d="M 409.5,218.5 C 410.873,218.343 412.207,218.51 413.5,219C 417.657,221.745 421.99,223.912 426.5,225.5C 420.215,224.52 414.548,222.186 409.5,218.5 Z"/></g>
<g><path style="opacity:0.873" fill="#aaebdb" d="M 426.5,225.5 C 430.5,225.5 434.5,225.5 438.5,225.5C 434.55,227.96 430.55,227.96 426.5,225.5 Z"/></g>
<g><path style="opacity:0.941" fill="#fed9c5" d="M 295.5,213.5 C 295.219,217.188 294.719,220.855 294,224.5C 293.8,226.32 292.966,227.653 291.5,228.5C 291.19,225.287 291.523,222.287 292.5,219.5C 293.476,218.097 294.476,216.097 295.5,213.5 Z"/></g>
<g><path style="opacity:1" fill="#dcdcde" d="M 98.5,196.5 C 99.8149,203.629 100.482,210.963 100.5,218.5C 100.444,223.731 101.111,228.731 102.5,233.5C 103.58,244.205 104.913,254.871 106.5,265.5C 115.408,269.456 124.408,273.123 133.5,276.5C 133.5,283.167 133.5,289.833 133.5,296.5C 122.4,294.244 111.4,291.578 100.5,288.5C 100.5,292.167 100.5,295.833 100.5,299.5C 100.167,299.5 99.8333,299.5 99.5,299.5C 99.8052,291.669 100.139,283.835 100.5,276C 99.4223,249.453 98.7556,222.953 98.5,196.5 Z"/></g>
<g><path style="opacity:1" fill="#a8c1da" d="M 169.5,136.5 C 171.302,166.662 173.969,196.995 177.5,227.5C 182.927,227.782 188.26,227.449 193.5,226.5C 196.087,227.816 199.087,228.483 202.5,228.5C 207.28,228.896 211.28,227.562 214.5,224.5C 214.5,225.833 214.5,227.167 214.5,228.5C 223.506,228.334 232.506,228.5 241.5,229C 242.025,229.692 242.692,230.192 243.5,230.5C 244.5,248.821 244.833,267.155 244.5,285.5C 244.5,285.833 244.5,286.167 244.5,286.5C 244.666,293.508 244.5,300.508 244,307.5C 243.292,308.381 242.458,309.047 241.5,309.5C 206.996,309.832 172.663,309.498 138.5,308.5C 138.824,282.092 138.49,255.759 137.5,229.5C 149.989,228.505 162.656,228.171 175.5,228.5C 172.562,197.471 170.229,166.471 168.5,135.5C 169.107,135.624 169.44,135.957 169.5,136.5 Z"/></g>
<g><path style="opacity:1" fill="#18182a" d="M 137.5,229.5 C 138.49,255.759 138.824,282.092 138.5,308.5C 137.833,308.833 137.167,309.167 136.5,309.5C 135.5,309.5 134.5,309.5 133.5,309.5C 134.468,298.336 134.468,287.336 133.5,276.5C 133.5,262.167 133.5,247.833 133.5,233.5C 133.5,231.833 133.5,230.167 133.5,228.5C 134.959,228.433 136.292,228.766 137.5,229.5 Z"/></g>
<g><path style="opacity:1" fill="#9196a9" d="M 100.5,218.5 C 101.889,223.269 102.556,228.269 102.5,233.5C 101.111,228.731 100.444,223.731 100.5,218.5 Z"/></g>
<g><path style="opacity:0.078" fill="#b2eadd" d="M 403.5,238.5 C 394.515,235.627 385.515,234.961 376.5,236.5C 375.167,236.5 373.833,236.5 372.5,236.5C 372.5,236.167 372.5,235.833 372.5,235.5C 383.34,232.263 393.673,233.263 403.5,238.5 Z"/></g>
<g><path style="opacity:1" fill="#e2e2e2" d="M 95.5,298.5 C 93.1667,297.833 90.8333,297.167 88.5,296.5C 66.9515,288.036 45.1181,280.036 23,272.5C 22.3482,269.406 22.6815,266.406 24,263.5C 30.463,250.901 36.1297,237.901 41,224.5C 39.5846,238.157 38.2512,251.824 37,265.5C 53.2931,274.73 69.7931,283.563 86.5,292C 89.5672,294.188 92.5672,296.355 95.5,298.5 Z"/></g>
<g><path style="opacity:1" fill="#14ba91" d="M 376.5,236.5 C 385.515,234.961 394.515,235.627 403.5,238.5C 405.849,240.341 408.515,241.674 411.5,242.5C 414.089,243.419 416.089,245.086 417.5,247.5C 418.08,249.749 419.413,251.415 421.5,252.5C 423.588,254.336 424.921,256.669 425.5,259.5C 425.992,261.819 426.992,263.819 428.5,265.5C 428.707,268.241 429.707,270.574 431.5,272.5C 431.5,272.833 431.5,273.167 431.5,273.5C 431.861,277.915 433.194,281.915 435.5,285.5C 435.754,290.444 436.754,295.111 438.5,299.5C 438.666,306.841 438.5,314.174 438,321.5C 437.768,322.737 437.268,323.737 436.5,324.5C 431.599,303.379 423.433,283.713 412,265.5C 403.746,253.911 393.579,244.411 381.5,237C 379.866,236.506 378.199,236.34 376.5,236.5 Z"/></g>
<g><path style="opacity:1" fill="#14c99d" d="M 372.5,236.5 C 373.833,236.5 375.167,236.5 376.5,236.5C 378.199,236.34 379.866,236.506 381.5,237C 393.579,244.411 403.746,253.911 412,265.5C 423.433,283.713 431.599,303.379 436.5,324.5C 436.5,325.167 436.5,325.833 436.5,326.5C 434.551,328.305 432.218,329.305 429.5,329.5C 425.903,328.199 422.236,327.199 418.5,326.5C 398.833,326.5 379.167,326.5 359.5,326.5C 378.329,325.668 397.329,325.168 416.5,325C 415.529,323.519 414.196,322.685 412.5,322.5C 410.122,320.122 407.455,318.122 404.5,316.5C 403.833,315.167 402.833,314.167 401.5,313.5C 398.769,309.766 395.436,306.766 391.5,304.5C 389.1,301.097 386.1,298.43 382.5,296.5C 381.738,294.738 380.404,293.738 378.5,293.5C 372.263,288.77 366.43,283.437 361,277.5C 358.218,272.619 356.051,267.619 354.5,262.5C 354.5,261.833 354.5,261.167 354.5,260.5C 355.301,256.103 356.301,251.769 357.5,247.5C 360.07,245.318 362.403,242.984 364.5,240.5C 367.14,239.18 369.807,237.847 372.5,236.5 Z"/></g>
<g><path style="opacity:0.639" fill="#cfe0e3" d="M 364.5,225.5 C 363.309,230.645 363.309,235.645 364.5,240.5C 362.403,242.984 360.07,245.318 357.5,247.5C 359.179,245.305 360.179,242.805 360.5,240C 360.333,238.833 360.167,237.667 360,236.5C 359.617,237.056 359.117,237.389 358.5,237.5C 360.694,233.579 362.694,229.579 364.5,225.5 Z"/></g>
<g><path style="opacity:0.325" fill="#c6efe5" d="M 403.5,238.5 C 406.754,238.794 409.421,240.127 411.5,242.5C 408.515,241.674 405.849,240.341 403.5,238.5 Z"/></g>
<g><path style="opacity:1" fill="#e4e5d7" d="M 304.5,244.5 C 304.483,246.565 304.15,248.565 303.5,250.5C 302.9,251.9 301.9,252.9 300.5,253.5C 301.075,250.088 302.408,247.088 304.5,244.5 Z"/></g>
<g><path style="opacity:0.388" fill="#cbf0e8" d="M 417.5,247.5 C 419.587,248.585 420.92,250.251 421.5,252.5C 419.413,251.415 418.08,249.749 417.5,247.5 Z"/></g>
<g><path style="opacity:0.553" fill="#a2a8bf" d="M 351.5,244.5 C 350.887,250.271 351.554,255.604 353.5,260.5C 353.833,260.5 354.167,260.5 354.5,260.5C 354.5,261.167 354.5,261.833 354.5,262.5C 345.452,262.736 337.785,266.069 331.5,272.5C 335.511,265.817 341.511,262.151 349.5,261.5C 349.821,256.305 349.487,251.305 348.5,246.5C 348.973,245.094 349.973,244.427 351.5,244.5 Z"/></g>
<g><path style="opacity:0.69" fill="#a9ebda" d="M 357.5,247.5 C 356.301,251.769 355.301,256.103 354.5,260.5C 354.167,260.5 353.833,260.5 353.5,260.5C 353.25,255.588 354.584,251.255 357.5,247.5 Z"/></g>
<g><path style="opacity:1" fill="#fbfcfd" d="M 188.5,260.5 C 196.505,262.154 198.671,266.821 195,274.5C 188.281,279.498 184.781,277.664 184.5,269C 184.134,265.236 185.467,262.403 188.5,260.5 Z"/></g>
<g><path style="opacity:0.204" fill="#e1f6f1" d="M 425.5,259.5 C 427.539,260.911 428.539,262.911 428.5,265.5C 426.992,263.819 425.992,261.819 425.5,259.5 Z"/></g>
<g><path style="opacity:1" fill="#303e72" d="M 354.5,262.5 C 356.051,267.619 358.218,272.619 361,277.5C 366.43,283.437 372.263,288.77 378.5,293.5C 377.654,298.185 375.987,302.519 373.5,306.5C 373.5,307.167 373.167,307.5 372.5,307.5C 370.817,308.853 369.484,310.52 368.5,312.5C 367.358,314.972 365.358,315.972 362.5,315.5C 363.562,312.484 364.729,309.484 366,306.5C 367.761,295.679 363.594,288.346 353.5,284.5C 353.082,283.778 352.416,283.278 351.5,283C 343.585,281.871 335.918,282.704 328.5,285.5C 328.5,284.167 328.5,282.833 328.5,281.5C 330.31,278.855 331.31,275.855 331.5,272.5C 337.785,266.069 345.452,262.736 354.5,262.5 Z"/></g>
<g><path style="opacity:0.067" fill="#c1f0e6" d="M 327.5,264.5 C 326.415,266.587 324.749,267.92 322.5,268.5C 323.585,266.413 325.251,265.08 327.5,264.5 Z"/></g>
<g><path style="opacity:0.871" fill="#88ddc8" d="M 303.5,250.5 C 302.68,256.797 302.347,263.131 302.5,269.5C 302.5,270.833 302.5,272.167 302.5,273.5C 301.732,272.737 301.232,271.737 301,270.5C 300.501,266.179 300.334,261.846 300.5,257.5C 301.833,256.5 301.833,255.5 300.5,254.5C 300.5,254.167 300.5,253.833 300.5,253.5C 301.9,252.9 302.9,251.9 303.5,250.5 Z"/></g>
<g><path style="opacity:0.345" fill="#fddece" d="M 296.5,264.5 C 295.657,270.043 293.657,275.043 290.5,279.5C 291.734,274.117 293.734,269.117 296.5,264.5 Z"/></g>
<g><path style="opacity:0.184" fill="#e0f6f1" d="M 428.5,265.5 C 430.293,267.426 431.293,269.759 431.5,272.5C 429.707,270.574 428.707,268.241 428.5,265.5 Z"/></g>
<g><path style="opacity:0.847" fill="#959bb7" d="M 331.5,272.5 C 331.31,275.855 330.31,278.855 328.5,281.5C 328.528,278.084 329.528,275.084 331.5,272.5 Z"/></g>
<g><path style="opacity:0.824" fill="#b4e9dc" d="M 431.5,273.5 C 433.74,277.098 435.074,281.098 435.5,285.5C 433.194,281.915 431.861,277.915 431.5,273.5 Z"/></g>
<g><path style="opacity:1" fill="#19ba91" d="M 353.5,284.5 C 348.302,285.405 343.636,287.572 339.5,291C 327.103,301.067 317.27,313.233 310,327.5C 307.042,334.41 303.876,341.076 300.5,347.5C 300.214,339.98 301.214,332.647 303.5,325.5C 304.11,324.609 304.443,323.609 304.5,322.5C 306.04,319.206 307.373,315.872 308.5,312.5C 311.044,306.308 314.377,300.641 318.5,295.5C 322.167,292.5 325.5,289.167 328.5,285.5C 335.918,282.704 343.585,281.871 351.5,283C 352.416,283.278 353.082,283.778 353.5,284.5 Z"/></g>
<g><path style="opacity:1" fill="#12c89d" d="M 353.5,284.5 C 363.594,288.346 367.761,295.679 366,306.5C 364.729,309.484 363.562,312.484 362.5,315.5C 360.529,317.808 358.529,320.142 356.5,322.5C 349.715,326.779 343.048,331.279 336.5,336C 335.663,337.011 335.33,338.178 335.5,339.5C 329.796,342.358 324.463,345.858 319.5,350C 316.929,351.454 314.262,352.62 311.5,353.5C 308.148,354.707 304.814,354.707 301.5,353.5C 300.85,351.565 300.517,349.565 300.5,347.5C 303.876,341.076 307.042,334.41 310,327.5C 317.27,313.233 327.103,301.067 339.5,291C 343.636,287.572 348.302,285.405 353.5,284.5 Z"/></g>
<g><path style="opacity:0.176" fill="#e1d7d6" d="M 290.5,279.5 C 289.705,283.785 289.372,288.119 289.5,292.5C 289.167,292.5 288.833,292.5 288.5,292.5C 288.784,290.585 288.451,288.919 287.5,287.5C 287.903,284.514 288.903,281.848 290.5,279.5 Z"/></g>
<g><path style="opacity:1" fill="#313e72" d="M 244.5,286.5 C 255.167,286.5 265.833,286.5 276.5,286.5C 274.167,288.844 272.167,291.511 270.5,294.5C 272.548,302.722 277.381,304.722 285,300.5C 285.049,295.947 285.883,291.614 287.5,287.5C 288.451,288.919 288.784,290.585 288.5,292.5C 288.5,298.5 288.5,304.5 288.5,310.5C 288.5,311.833 288.5,313.167 288.5,314.5C 236.905,315.495 185.238,315.829 133.5,315.5C 133.5,313.5 133.5,311.5 133.5,309.5C 134.5,309.5 135.5,309.5 136.5,309.5C 171.5,310.833 206.5,310.833 241.5,309.5C 242.458,309.047 243.292,308.381 244,307.5C 244.5,300.508 244.666,293.508 244.5,286.5 Z"/></g>
<g><path style="opacity:1" fill="#242847" d="M 133.5,276.5 C 134.468,287.336 134.468,298.336 133.5,309.5C 127.833,309.5 122.167,309.5 116.5,309.5C 116.141,307.629 115.141,306.129 113.5,305C 109.259,302.651 104.925,300.818 100.5,299.5C 100.5,295.833 100.5,292.167 100.5,288.5C 111.4,291.578 122.4,294.244 133.5,296.5C 133.5,289.833 133.5,283.167 133.5,276.5 Z"/></g>
<g><path style="opacity:0.937" fill="#a4e1d3" d="M 328.5,281.5 C 328.5,282.833 328.5,284.167 328.5,285.5C 325.5,289.167 322.167,292.5 318.5,295.5C 320.725,291.765 323.558,288.432 327,285.5C 327.21,283.942 327.71,282.609 328.5,281.5 Z"/></g>
<g><path style="opacity:0.258" fill="#c9f0e7" d="M 435.5,285.5 C 437.419,289.857 438.419,294.523 438.5,299.5C 436.754,295.111 435.754,290.444 435.5,285.5 Z"/></g>
<g><path style="opacity:0.999" fill="#e1e1e1" d="M 74.5,309.5 C 73.8333,309.5 73.5,309.833 73.5,310.5C 73.5,312.167 73.5,313.833 73.5,315.5C 57.1667,315.5 40.8333,315.5 24.5,315.5C 24.3337,308.825 24.5004,302.158 25,295.5C 40.7565,301.148 56.9232,305.314 73.5,308C 74.056,308.383 74.3893,308.883 74.5,309.5 Z"/></g>
<g><path style="opacity:1" fill="#e9a37f" d="M 88.5,296.5 C 90.8333,297.167 93.1667,297.833 95.5,298.5C 96.8333,298.833 98.1667,299.167 99.5,299.5C 99.8333,299.5 100.167,299.5 100.5,299.5C 104.925,300.818 109.259,302.651 113.5,305C 115.141,306.129 116.141,307.629 116.5,309.5C 102.343,310.496 88.0097,310.829 73.5,310.5C 73.5,309.833 73.8333,309.5 74.5,309.5C 78.5,309.5 82.5,309.5 86.5,309.5C 87.3266,305.193 87.9933,300.86 88.5,296.5 Z"/></g>
<g><path style="opacity:0.455" fill="#caf2e9" d="M 382.5,296.5 C 386.1,298.43 389.1,301.097 391.5,304.5C 387.9,302.57 384.9,299.903 382.5,296.5 Z"/></g>
<g><path style="opacity:0.949" fill="#7d84a6" d="M 288.5,292.5 C 288.833,292.5 289.167,292.5 289.5,292.5C 290.542,298.562 290.542,304.562 289.5,310.5C 289.167,310.5 288.833,310.5 288.5,310.5C 288.5,304.5 288.5,298.5 288.5,292.5 Z"/></g>
<g><path style="opacity:0.498" fill="#c9efe6" d="M 438.5,299.5 C 440.364,305.925 440.864,312.592 440,319.5C 439.478,322.281 438.311,324.615 436.5,326.5C 436.5,325.833 436.5,325.167 436.5,324.5C 437.268,323.737 437.768,322.737 438,321.5C 438.5,314.174 438.666,306.841 438.5,299.5 Z"/></g>
<g><path style="opacity:1" fill="#6a7da3" d="M 138.5,308.5 C 172.663,309.498 206.996,309.832 241.5,309.5C 206.5,310.833 171.5,310.833 136.5,309.5C 137.167,309.167 137.833,308.833 138.5,308.5 Z"/></g>
<g><path style="opacity:0.522" fill="#c6f1e7" d="M 391.5,304.5 C 395.436,306.766 398.769,309.766 401.5,313.5C 397.564,311.234 394.231,308.234 391.5,304.5 Z"/></g>
<g><path style="opacity:1" fill="#17182a" d="M 116.5,309.5 C 122.167,309.5 127.833,309.5 133.5,309.5C 133.5,311.5 133.5,313.5 133.5,315.5C 113.5,315.5 93.5,315.5 73.5,315.5C 73.5,313.833 73.5,312.167 73.5,310.5C 88.0097,310.829 102.343,310.496 116.5,309.5 Z"/></g>
<g><path style="opacity:0.878" fill="#cdd6e3" d="M 378.5,293.5 C 380.404,293.738 381.738,294.738 382.5,296.5C 381.504,296.586 380.671,296.252 380,295.5C 378.63,301.742 378.13,308.075 378.5,314.5C 386.352,314.825 394.018,314.492 401.5,313.5C 402.833,314.167 403.833,315.167 404.5,316.5C 392.5,316.5 380.5,316.5 368.5,316.5C 368.5,315.167 368.5,313.833 368.5,312.5C 369.484,310.52 370.817,308.853 372.5,307.5C 372.5,309.833 372.5,312.167 372.5,314.5C 373.873,314.657 375.207,314.49 376.5,314C 375.718,311.26 375.218,308.426 375,305.5C 374.617,306.056 374.117,306.389 373.5,306.5C 375.987,302.519 377.654,298.185 378.5,293.5 Z"/></g>
<g><path style="opacity:1" fill="#a7c0da" d="M 288.5,310.5 C 288.833,310.5 289.167,310.5 289.5,310.5C 289.5,311.833 289.5,313.167 289.5,314.5C 296.121,315.06 302.455,314.393 308.5,312.5C 307.373,315.872 306.04,319.206 304.5,322.5C 202.833,322.5 101.167,322.5 -0.5,322.5C -0.5,319.833 -0.5,317.167 -0.5,314.5C 7.5,314.5 15.5,314.5 23.5,314.5C 23.5,315.167 23.8333,315.5 24.5,315.5C 40.8333,315.5 57.1667,315.5 73.5,315.5C 109.165,316.167 144.998,316.5 181,316.5C 217.173,316.5 253.006,315.833 288.5,314.5C 288.5,313.167 288.5,311.833 288.5,310.5 Z"/></g>
<g><path style="opacity:1" fill="#94aac7" d="M 288.5,314.5 C 253.006,315.833 217.173,316.5 181,316.5C 144.998,316.5 109.165,316.167 73.5,315.5C 93.5,315.5 113.5,315.5 133.5,315.5C 185.238,315.829 236.905,315.495 288.5,314.5 Z"/></g>
<g><path style="opacity:1" fill="#a4bdd8" d="M 368.5,312.5 C 368.5,313.833 368.5,315.167 368.5,316.5C 380.5,316.5 392.5,316.5 404.5,316.5C 407.455,318.122 410.122,320.122 412.5,322.5C 393.833,322.5 375.167,322.5 356.5,322.5C 358.529,320.142 360.529,317.808 362.5,315.5C 365.358,315.972 367.358,314.972 368.5,312.5 Z"/></g>
<g><path style="opacity:1" fill="#394679" d="M -0.5,322.5 C 101.167,322.5 202.833,322.5 304.5,322.5C 304.443,323.609 304.11,324.609 303.5,325.5C 202.167,325.5 100.833,325.5 -0.5,325.5C -0.5,324.5 -0.5,323.5 -0.5,322.5 Z"/></g>
<g><path style="opacity:1" fill="#354175" d="M 356.5,322.5 C 375.167,322.5 393.833,322.5 412.5,322.5C 414.196,322.685 415.529,323.519 416.5,325C 397.329,325.168 378.329,325.668 359.5,326.5C 357.1,328.296 355.433,330.63 354.5,333.5C 351.703,335.795 349.036,338.295 346.5,341C 343.986,342.252 341.32,342.752 338.5,342.5C 337.833,341.167 336.833,340.167 335.5,339.5C 335.33,338.178 335.663,337.011 336.5,336C 343.048,331.279 349.715,326.779 356.5,322.5 Z"/></g>
<g><path style="opacity:0.282" fill="#b7eee1" d="M 418.5,326.5 C 422.236,327.199 425.903,328.199 429.5,329.5C 432.218,329.305 434.551,328.305 436.5,326.5C 435.187,329.346 432.853,331.013 429.5,331.5C 425.39,330.609 421.724,328.942 418.5,326.5 Z"/></g>
<g><path style="opacity:0.176" fill="#cdd0dd" d="M 359.5,326.5 C 358.567,329.37 356.9,331.704 354.5,333.5C 355.433,330.63 357.1,328.296 359.5,326.5 Z"/></g>
<g><path style="opacity:0.184" fill="#c6cad8" d="M 354.5,333.5 C 351.726,338.935 347.393,342.602 341.5,344.5C 340.261,344.058 339.261,343.391 338.5,342.5C 341.32,342.752 343.986,342.252 346.5,341C 349.036,338.295 351.703,335.795 354.5,333.5 Z"/></g>
<g><path style="opacity:0.71" fill="#c3e1de" d="M -0.5,326.5 C -0.5,326.167 -0.5,325.833 -0.5,325.5C 100.833,325.5 202.167,325.5 303.5,325.5C 301.214,332.647 300.214,339.98 300.5,347.5C 300.517,349.565 300.85,351.565 301.5,353.5C 299.245,351.241 298.245,348.408 298.5,345C 298.873,338.753 300.206,332.753 302.5,327C 201.501,326.5 100.501,326.333 -0.5,326.5 Z"/></g>
<g><path style="opacity:0.024" fill="#dbdde6" d="M 335.5,339.5 C 336.833,340.167 337.833,341.167 338.5,342.5C 336.5,342.5 335.5,341.5 335.5,339.5 Z"/></g>
<g><path style="opacity:0.257" fill="#c6f2e8" d="M 301.5,353.5 C 304.814,354.707 308.148,354.707 311.5,353.5C 308.033,357.371 304.7,357.371 301.5,353.5 Z"/></g>
</svg>
