<?xml version="1.0" encoding="UTF-8"?>
<!DOCTYPE svg PUBLIC "-//W3C//DTD SVG 1.1//EN" "http://www.w3.org/Graphics/SVG/1.1/DTD/svg11.dtd">
<svg xmlns="http://www.w3.org/2000/svg" version="1.1" width="512px" height="512px" style="shape-rendering:geometricPrecision; text-rendering:geometricPrecision; image-rendering:optimizeQuality; fill-rule:evenodd; clip-rule:evenodd" xmlns:xlink="http://www.w3.org/1999/xlink">
<g><path style="opacity:1" fill="#20a499" d="M 511.5,243.5 C 511.5,251.5 511.5,259.5 511.5,267.5C 510.001,274.334 507.334,280.667 503.5,286.5C 501.618,287.221 501.285,288.221 502.5,289.5C 492.119,305.537 477.453,315.371 458.5,319C 323.167,319.667 187.833,319.667 52.5,319C 24.1029,312.768 6.43623,295.602 -0.5,267.5C -0.5,259.5 -0.5,251.5 -0.5,243.5C 6.34593,215.821 23.6793,198.654 51.5,192C 187.5,191.333 323.5,191.333 459.5,192C 487.321,198.654 504.654,215.821 511.5,243.5 Z"/></g>
<g><path style="opacity:0.106" fill="#7b24bb" d="M 503.5,286.5 C 503.443,287.609 503.11,288.609 502.5,289.5C 501.285,288.221 501.618,287.221 503.5,286.5 Z"/></g>
</svg>
