<?xml version="1.0" encoding="UTF-8"?>
<!DOCTYPE svg PUBLIC "-//W3C//DTD SVG 1.1//EN" "http://www.w3.org/Graphics/SVG/1.1/DTD/svg11.dtd">
<svg xmlns="http://www.w3.org/2000/svg" version="1.1" width="512px" height="512px" style="shape-rendering:geometricPrecision; text-rendering:geometricPrecision; image-rendering:optimizeQuality; fill-rule:evenodd; clip-rule:evenodd" xmlns:xlink="http://www.w3.org/1999/xlink">
<g><path style="opacity:1" fill="#25a499" d="M 232.5,-0.5 C 247.833,-0.5 263.167,-0.5 278.5,-0.5C 328.427,4.30185 373.094,22.1352 412.5,53C 392.454,78.9239 372.287,104.757 352,130.5C 301.368,94.2072 247.201,88.0406 189.5,112C 127.087,144.291 96.5867,195.791 98,266.5C 105.538,332.786 140.038,378.619 201.5,404C 270.185,424.983 328.685,409.15 377,356.5C 389.203,341.1 398.703,324.1 405.5,305.5C 355.504,304.5 305.504,304.167 255.5,304.5C 255.5,271.833 255.5,239.167 255.5,206.5C 340.833,206.5 426.167,206.5 511.5,206.5C 511.5,230.5 511.5,254.5 511.5,278.5C 498.551,378.271 446.551,449.438 355.5,492C 330.622,502.136 304.955,508.636 278.5,511.5C 263.167,511.5 247.833,511.5 232.5,511.5C 132.727,498.549 61.5605,446.549 19,355.5C 8.86392,330.621 2.36392,304.954 -0.5,278.5C -0.5,263.167 -0.5,247.833 -0.5,232.5C 5.98691,169.197 31.9869,115.53 77.5,71.5C 79.5441,70.9688 81.2107,69.8022 82.5,68C 82.2716,67.6012 81.9382,67.4346 81.5,67.5C 124.205,28.3216 174.538,5.65498 232.5,-0.5 Z"/></g>
<g><path style="opacity:0.929" fill="#8d3a89" d="M 81.5,67.5 C 81.9382,67.4346 82.2716,67.6012 82.5,68C 81.2107,69.8022 79.5441,70.9688 77.5,71.5C 78.5,69.8333 79.8333,68.5 81.5,67.5 Z"/></g>
</svg>
