<?xml version="1.0" encoding="UTF-8"?>
<!DOCTYPE svg PUBLIC "-//W3C//DTD SVG 1.1//EN" "http://www.w3.org/Graphics/SVG/1.1/DTD/svg11.dtd">
<svg xmlns="http://www.w3.org/2000/svg" version="1.1" width="541px" height="374px" style="shape-rendering:geometricPrecision; text-rendering:geometricPrecision; image-rendering:optimizeQuality; fill-rule:evenodd; clip-rule:evenodd" xmlns:xlink="http://www.w3.org/1999/xlink">
<g><path style="opacity:0.247" fill="#f9cbc9" d="M 116.5,-0.5 C 135.833,-0.5 155.167,-0.5 174.5,-0.5C 174.5,1.16667 174.5,2.83333 174.5,4.5C 155.167,4.5 135.833,4.5 116.5,4.5C 116.5,2.83333 116.5,1.16667 116.5,-0.5 Z"/></g>
<g><path style="opacity:1" fill="#faadb2" d="M 117.5,0.5 C 136.167,0.5 154.833,0.5 173.5,0.5C 173.5,1.5 173.5,2.5 173.5,3.5C 154.833,3.5 136.167,3.5 117.5,3.5C 117.5,2.5 117.5,1.5 117.5,0.5 Z"/></g>
<g><path style="opacity:0.965" fill="#646975" d="M 427.5,7.5 C 422.463,7.41262 417.463,7.74595 412.5,8.5C 417.389,5.34892 422.389,5.01558 427.5,7.5 Z"/></g>
<g><path style="opacity:0.114" fill="#f2d6d4" d="M 183.5,8.5 C 161.141,7.84413 139.141,8.5108 117.5,10.5C 116.596,9.79105 116.263,8.79105 116.5,7.5C 139.006,7.16924 161.34,7.50257 183.5,8.5 Z"/></g>
<g><path style="opacity:0.995" fill="#faadb2" d="M 183.5,8.5 C 183.5,9.5 183.5,10.5 183.5,11.5C 161.5,11.5 139.5,11.5 117.5,11.5C 117.5,11.1667 117.5,10.8333 117.5,10.5C 139.141,8.5108 161.141,7.84413 183.5,8.5 Z"/></g>
<g><path style="opacity:1" fill="#1c1e30" d="M 427.5,7.5 C 427.33,8.82207 427.663,9.98873 428.5,11C 427.906,11.4643 427.239,11.631 426.5,11.5C 423.946,10.612 421.279,10.2786 418.5,10.5C 412.204,12.6176 408.37,16.6176 407,22.5C 406.171,27.8643 406.337,33.1977 407.5,38.5C 409.838,36.9893 410.504,37.3227 409.5,39.5C 410.729,40.2811 412.062,40.7811 413.5,41C 412.833,41.3333 412.167,41.6667 411.5,42C 413.862,44.871 414.862,48.2043 414.5,52C 414.507,56.8396 412.507,60.6729 408.5,63.5C 410.007,64.7388 411.174,64.4054 412,62.5C 412.5,63.6667 413.333,64.5 414.5,65C 411.456,65.3589 411.122,66.0255 413.5,67C 412.263,67.2321 411.263,67.7321 410.5,68.5C 408.926,67.0158 407.593,65.3492 406.5,63.5C 411.175,58.3968 412.675,52.3968 411,45.5C 409.436,41.6395 406.602,39.6395 402.5,39.5C 402.5,37.5 402.5,35.5 402.5,33.5C 402.334,28.8215 402.501,24.1548 403,19.5C 404.022,17.3358 405.189,15.3358 406.5,13.5C 407.911,11.086 409.911,9.41938 412.5,8.5C 417.463,7.74595 422.463,7.41262 427.5,7.5 Z"/></g>
<g><path style="opacity:0.216" fill="#f6cbc8" d="M 183.5,8.5 C 184.434,9.56764 184.768,10.901 184.5,12.5C 161.994,12.8308 139.66,12.4974 117.5,11.5C 139.5,11.5 161.5,11.5 183.5,11.5C 183.5,10.5 183.5,9.5 183.5,8.5 Z"/></g>
<g><path style="opacity:0.995" fill="#fab8ba" d="M 117.5,16.5 C 136.836,16.3334 156.17,16.5 175.5,17C 176.833,18.3333 176.833,19.6667 175.5,21C 156.491,21.833 137.491,21.6664 118.5,20.5C 117.754,19.2638 117.421,17.9305 117.5,16.5 Z"/></g>
<g><path style="opacity:1" fill="#2b3657" d="M 406.5,13.5 C 405.189,15.3358 404.022,17.3358 403,19.5C 402.501,24.1548 402.334,28.8215 402.5,33.5C 400.708,33.634 399.042,33.3007 397.5,32.5C 394.191,23.4411 397.191,17.1078 406.5,13.5 Z"/></g>
<g><path style="opacity:1" fill="#20ca9f" d="M 116.5,63.5 C 117.496,63.5858 118.329,63.2524 119,62.5C 119.483,63.448 119.649,64.448 119.5,65.5C 114.633,72.725 109.633,79.8917 104.5,87C 106.475,93.9945 107.475,101.161 107.5,108.5C 107.177,114.69 107.51,120.69 108.5,126.5C 107.174,135.795 105.841,145.128 104.5,154.5C 102.913,163.594 100.913,172.594 98.5,181.5C 96.7868,182.635 96.1201,184.302 96.5,186.5C 96.5,186.833 96.5,187.167 96.5,187.5C 95.1667,188.833 95.1667,190.167 96.5,191.5C 95.6152,195.288 94.6152,198.954 93.5,202.5C 93.6495,201.448 93.4828,200.448 93,199.5C 90.5122,197.257 87.8456,195.257 85,193.5C 84.502,190.518 84.3354,187.518 84.5,184.5C 85.6845,171.559 87.6845,158.725 90.5,146C 90.4857,144.615 90.1524,143.449 89.5,142.5C 92.0341,139.396 93.2008,135.729 93,131.5C 95.7956,101.502 93.129,100.502 85,128.5C 82.8488,136.693 81.6822,145.026 81.5,153.5C 80.5422,159.744 80.2088,166.077 80.5,172.5C 76.0511,172.373 71.8844,173.373 68,175.5C 67.6174,174.944 67.1174,174.611 66.5,174.5C 65.1283,164.219 64.4616,153.886 64.5,143.5C 63.8505,141.565 63.5172,139.565 63.5,137.5C 68.6049,119.459 77.2715,103.292 89.5,89C 83.1205,69.0747 73.9539,50.5747 62,33.5C 58.0299,28.5246 53.1965,24.6912 47.5,22C 48.0253,21.3076 48.6919,20.8076 49.5,20.5C 66.5866,23.7515 79.7533,32.7515 89,47.5C 94.2928,56.3741 98.6262,65.7075 102,75.5C 106.707,71.2882 111.54,67.2882 116.5,63.5 Z"/></g>
<g><path style="opacity:0.99" fill="#f1ac87" d="M 397.5,32.5 C 399.042,33.3007 400.708,33.634 402.5,33.5C 402.5,35.5 402.5,37.5 402.5,39.5C 399.947,41.5968 397.614,43.9302 395.5,46.5C 395.167,46.5 394.833,46.5 394.5,46.5C 394.833,44.5 395.167,42.5 395.5,40.5C 395.283,37.5794 395.949,34.9128 397.5,32.5 Z"/></g>
<g><path style="opacity:1" fill="#182548" d="M 427.5,7.5 C 431.324,8.33538 434.49,10.3354 437,13.5C 439.119,17.4023 440.952,21.4023 442.5,25.5C 442.19,31.7576 442.524,37.9242 443.5,44C 442.374,47.3002 441.374,50.6336 440.5,54C 441.108,56.1841 440.441,58.1841 438.5,60C 439.833,60.6667 439.833,61.3333 438.5,62C 439.448,62.4828 440.448,62.6495 441.5,62.5C 439.183,64.3972 436.85,66.3972 434.5,68.5C 427.005,70.5182 419.338,71.0182 411.5,70C 410.944,69.6174 410.611,69.1174 410.5,68.5C 411.263,67.7321 412.263,67.2321 413.5,67C 411.122,66.0255 411.456,65.3589 414.5,65C 413.333,64.5 412.5,63.6667 412,62.5C 411.174,64.4054 410.007,64.7388 408.5,63.5C 412.507,60.6729 414.507,56.8396 414.5,52C 414.862,48.2043 413.862,44.871 411.5,42C 412.167,41.6667 412.833,41.3333 413.5,41C 412.062,40.7811 410.729,40.2811 409.5,39.5C 410.504,37.3227 409.838,36.9893 407.5,38.5C 406.337,33.1977 406.171,27.8643 407,22.5C 408.37,16.6176 412.204,12.6176 418.5,10.5C 418.389,11.1174 418.056,11.6174 417.5,12C 422.522,12.3961 427.188,13.8961 431.5,16.5C 431.833,16.3333 432.167,16.1667 432.5,16C 430.611,14.2359 428.611,12.7359 426.5,11.5C 427.239,11.631 427.906,11.4643 428.5,11C 427.663,9.98873 427.33,8.82207 427.5,7.5 Z"/></g>
<g><path style="opacity:1" fill="#b1b7c1" d="M 418.5,10.5 C 421.279,10.2786 423.946,10.612 426.5,11.5C 428.611,12.7359 430.611,14.2359 432.5,16C 432.167,16.1667 431.833,16.3333 431.5,16.5C 427.188,13.8961 422.522,12.3961 417.5,12C 418.056,11.6174 418.389,11.1174 418.5,10.5 Z"/></g>
<g><path style="opacity:1" fill="#62d0de" d="M 402.5,39.5 C 406.602,39.6395 409.436,41.6395 411,45.5C 412.675,52.3968 411.175,58.3968 406.5,63.5C 404.801,63.6602 403.134,63.4935 401.5,63C 400.285,60.6246 398.619,58.7912 396.5,57.5C 397.368,55.5979 398.368,53.7645 399.5,52C 399.167,51.5 398.833,51 398.5,50.5C 397.265,51.3398 396.265,52.3398 395.5,53.5C 395.5,51.1667 395.5,48.8333 395.5,46.5C 397.614,43.9302 399.947,41.5968 402.5,39.5 Z"/></g>
<g><path style="opacity:0.451" fill="#9ba2aa" d="M 394.5,41.5 C 392.374,42.1255 390.707,43.4589 389.5,45.5C 391.045,46.4519 392.712,46.7852 394.5,46.5C 394.833,46.5 395.167,46.5 395.5,46.5C 395.5,48.8333 395.5,51.1667 395.5,53.5C 395.672,54.4916 395.338,55.1583 394.5,55.5C 394.672,56.4916 394.338,57.1583 393.5,57.5C 386.474,54.0816 385.141,49.0816 389.5,42.5C 391.071,41.6906 392.738,41.3573 394.5,41.5 Z"/></g>
<g><path style="opacity:1" fill="#e7e8ed" d="M 395.5,40.5 C 395.167,42.5 394.833,44.5 394.5,46.5C 392.712,46.7852 391.045,46.4519 389.5,45.5C 390.707,43.4589 392.374,42.1255 394.5,41.5C 394.5,40.8333 394.833,40.5 395.5,40.5 Z"/></g>
<g><path style="opacity:1" fill="#6ed3bd" d="M 50.5,60.5 C 49.6773,57.023 49.1773,53.3563 49,49.5C 47.957,51.8329 47.1237,54.1663 46.5,56.5C 46.3563,50.3395 47.1897,44.3395 49,38.5C 49.5,39 50,39.5 50.5,40C 49.966,46.4642 49.966,53.2975 50.5,60.5 Z"/></g>
<g><path style="opacity:1" fill="#393c4e" d="M 442.5,25.5 C 443.991,28.1864 444.657,31.1864 444.5,34.5C 444.441,36.8912 444.107,39.2246 443.5,41.5C 450.593,49.2687 449.926,56.2687 441.5,62.5C 440.448,62.6495 439.448,62.4828 438.5,62C 439.833,61.3333 439.833,60.6667 438.5,60C 440.441,58.1841 441.108,56.1841 440.5,54C 441.374,50.6336 442.374,47.3002 443.5,44C 442.524,37.9242 442.19,31.7576 442.5,25.5 Z"/></g>
<g><path style="opacity:1" fill="#eeeff3" d="M 394.5,55.5 C 390.412,55.0039 388.412,52.6705 388.5,48.5C 390.5,48.5 392.5,48.5 394.5,48.5C 394.5,50.8333 394.5,53.1667 394.5,55.5 Z"/></g>
<g><path style="opacity:1" fill="#21bc94" d="M 50.5,60.5 C 51.0999,86.828 55.4332,112.495 63.5,137.5C 63.5172,139.565 63.8505,141.565 64.5,143.5C 59.6227,142.782 54.956,141.448 50.5,139.5C 49.2867,139.747 48.62,140.414 48.5,141.5C 45.962,136.765 44.2953,131.765 43.5,126.5C 43.81,123.287 43.4767,120.287 42.5,117.5C 42.2183,112.956 41.885,108.623 41.5,104.5C 42.3028,96.5485 42.8028,88.5485 43,80.5C 43.5264,72.2651 44.6931,64.2651 46.5,56.5C 47.1237,54.1663 47.957,51.8329 49,49.5C 49.1773,53.3563 49.6773,57.023 50.5,60.5 Z"/></g>
<g><path style="opacity:0.999" fill="#ee9da7" d="M 284.5,57.5 C 286.303,70.1947 286.636,82.8614 285.5,95.5C 279.5,95.5 273.5,95.5 267.5,95.5C 268.279,112.846 269.279,130.179 270.5,147.5C 266.833,147.5 263.167,147.5 259.5,147.5C 259.737,146.209 259.404,145.209 258.5,144.5C 257.603,135.81 254.937,127.81 250.5,120.5C 250.5,120.167 250.5,119.833 250.5,119.5C 254.14,106.854 257.473,93.8543 260.5,80.5C 260.291,79.914 259.957,79.414 259.5,79C 261.41,77.2994 262.577,75.1327 263,72.5C 263.301,69.0258 264.134,65.6925 265.5,62.5C 264.282,61.1973 264.615,60.1973 266.5,59.5C 265.948,57.9974 265.948,56.3307 266.5,54.5C 268.824,54.0051 270.991,54.0051 273,54.5C 273.945,54.0946 274.612,53.428 275,52.5C 275.308,53.3081 275.808,53.9747 276.5,54.5C 278.042,53.2532 279.542,53.2532 281,54.5C 281.333,53.5 281.667,52.5 282,51.5C 282.845,53.6115 283.678,55.6115 284.5,57.5 Z"/></g>
<g><path style="opacity:1" fill="#2e4a62" d="M 400.5,44.5 C 405.653,48.7733 405.82,53.44 401,58.5C 401.9,56.422 402.4,54.0887 402.5,51.5C 402.559,48.8906 401.892,46.5572 400.5,44.5 Z"/></g>
<g><path style="opacity:0.998" fill="#f9acb0" d="M 191.5,53.5 C 183.016,54.493 174.349,54.8264 165.5,54.5C 163.856,54.2865 162.356,54.6198 161,55.5C 159.964,57.8701 159.464,60.3701 159.5,63C 162.204,91.1418 164.538,119.308 166.5,147.5C 162.818,147.665 159.152,147.499 155.5,147C 154.667,146.167 153.833,145.333 153,144.5C 152.289,137.844 151.789,131.178 151.5,124.5C 152.289,124.217 152.956,123.717 153.5,123C 151.934,122.392 150.6,121.558 149.5,120.5C 150.16,119.036 150.493,117.369 150.5,115.5C 148.928,94.8191 147.261,74.1525 145.5,53.5C 160.833,53.5 176.167,53.5 191.5,53.5 Z"/></g>
<g><path style="opacity:1" fill="#ee9ba5" d="M 191.5,53.5 C 196.826,54.151 201.993,54.151 207,53.5C 207.167,54 207.333,54.5 207.5,55C 206.032,62.436 203.866,69.936 201,77.5C 200.257,79.4406 200.424,81.2739 201.5,83C 199.519,83.6054 199.185,84.6054 200.5,86C 198.192,87.5883 197.525,89.5883 198.5,92C 196.74,96.4447 195.073,100.945 193.5,105.5C 193.709,106.086 194.043,106.586 194.5,107C 192.777,111.395 191.443,115.895 190.5,120.5C 189.833,121.167 189.167,121.833 188.5,122.5C 186.549,124.48 185.049,126.813 184,129.5C 182.383,135.086 181.216,140.753 180.5,146.5C 177.609,147.403 174.609,147.736 171.5,147.5C 171.167,147.5 170.833,147.5 170.5,147.5C 167.904,119.027 165.57,90.5267 163.5,62C 163.303,59.1755 163.969,56.6755 165.5,54.5C 174.349,54.8264 183.016,54.493 191.5,53.5 Z"/></g>
<g><path style="opacity:0.986" fill="#aac2db" d="M 284.5,53.5 C 291.175,53.3337 297.842,53.5004 304.5,54C 305.333,54.8333 306.167,55.6667 307,56.5C 308.599,69.679 309.765,82.679 310.5,95.5C 302.167,95.5 293.833,95.5 285.5,95.5C 286.636,82.8614 286.303,70.1947 284.5,57.5C 284.5,56.1667 284.5,54.8333 284.5,53.5 Z"/></g>
<g><path style="opacity:0.996" fill="#f4ab83" d="M 396.5,57.5 C 398.619,58.7912 400.285,60.6246 401.5,63C 403.134,63.4935 404.801,63.6602 406.5,63.5C 407.593,65.3492 408.926,67.0158 410.5,68.5C 410.611,69.1174 410.944,69.6174 411.5,70C 419.338,71.0182 427.005,70.5182 434.5,68.5C 433.182,73.7734 432.182,79.1067 431.5,84.5C 426.63,84.8402 421.797,85.5068 417,86.5C 412.53,85.7363 408.03,85.403 403.5,85.5C 407.313,84.5236 408.313,82.1903 406.5,78.5C 402.396,77.1273 399.062,74.794 396.5,71.5C 396.5,70.8333 396.5,70.1667 396.5,69.5C 396.073,66.9902 395.407,64.6568 394.5,62.5C 394.796,60.597 395.463,58.9303 396.5,57.5 Z"/></g>
<g><path style="opacity:1" fill="#393b4a" d="M 396.5,57.5 C 395.463,58.9303 394.796,60.597 394.5,62.5C 392.707,64.4261 391.707,66.7594 391.5,69.5C 393.167,69.5 394.833,69.5 396.5,69.5C 396.5,70.1667 396.5,70.8333 396.5,71.5C 394.833,72.8333 393.167,72.8333 391.5,71.5C 389.27,69.4649 388.937,67.1316 390.5,64.5C 390.925,61.8808 391.925,59.5475 393.5,57.5C 394.338,57.1583 394.672,56.4916 394.5,55.5C 395.338,55.1583 395.672,54.4916 395.5,53.5C 396.265,52.3398 397.265,51.3398 398.5,50.5C 398.833,51 399.167,51.5 399.5,52C 398.368,53.7645 397.368,55.5979 396.5,57.5 Z"/></g>
<g><path style="opacity:1" fill="#f4afb2" d="M 284.5,53.5 C 284.5,54.8333 284.5,56.1667 284.5,57.5C 283.678,55.6115 282.845,53.6115 282,51.5C 281.667,52.5 281.333,53.5 281,54.5C 279.542,53.2532 278.042,53.2532 276.5,54.5C 275.808,53.9747 275.308,53.3081 275,52.5C 274.612,53.428 273.945,54.0946 273,54.5C 270.991,54.0051 268.824,54.0051 266.5,54.5C 265.948,56.3307 265.948,57.9974 266.5,59.5C 264.615,60.1973 264.282,61.1973 265.5,62.5C 264.134,65.6925 263.301,69.0258 263,72.5C 262.577,75.1327 261.41,77.2994 259.5,79C 259.957,79.414 260.291,79.914 260.5,80.5C 257.473,93.8543 254.14,106.854 250.5,119.5C 243.712,115.972 236.379,114.305 228.5,114.5C 229.167,113.833 229.833,113.167 230.5,112.5C 235.126,114.483 238.96,113.483 242,109.5C 242.499,103.843 242.666,98.1764 242.5,92.5C 243.638,89.6965 243.805,86.6965 243,83.5C 242.333,79.5 241.667,75.5 241,71.5C 240.8,69.6803 239.966,68.347 238.5,67.5C 237.833,67.5 237.5,67.1667 237.5,66.5C 238.833,66.5 240.167,66.5 241.5,66.5C 240.868,61.6951 238.201,58.5284 233.5,57C 213.251,54.4109 204.917,62.9109 208.5,82.5C 207.829,85.986 208.829,88.6527 211.5,90.5C 210.957,90.56 210.624,90.8933 210.5,91.5C 211.577,93.7294 212.244,96.0628 212.5,98.5C 211.513,103.305 211.179,108.305 211.5,113.5C 204.263,115.246 197.263,117.579 190.5,120.5C 191.443,115.895 192.777,111.395 194.5,107C 194.043,106.586 193.709,106.086 193.5,105.5C 195.073,100.945 196.74,96.4447 198.5,92C 197.525,89.5883 198.192,87.5883 200.5,86C 199.185,84.6054 199.519,83.6054 201.5,83C 200.424,81.2739 200.257,79.4406 201,77.5C 203.866,69.936 206.032,62.436 207.5,55C 207.333,54.5 207.167,54 207,53.5C 201.993,54.151 196.826,54.151 191.5,53.5C 192.378,48.9437 192.711,44.4437 192.5,40C 221.833,39.3333 251.167,39.3333 280.5,40C 281.667,40.5 282.5,41.3333 283,42.5C 284.108,46.0863 284.608,49.753 284.5,53.5 Z"/></g>
<g><path style="opacity:0.933" fill="#6fd7c0" d="M 119.5,65.5 C 119.649,64.448 119.483,63.448 119,62.5C 118.329,63.2524 117.496,63.5858 116.5,63.5C 119.318,60.4951 122.484,57.8284 126,55.5C 126.315,56.9078 125.982,58.2411 125,59.5C 122.932,61.3962 121.099,63.3962 119.5,65.5 Z"/></g>
<g><path style="opacity:1" fill="#3d4462" d="M 237.5,66.5 C 234.833,66.5 232.167,66.5 229.5,66.5C 224.579,66.0429 221.079,68.0429 219,72.5C 217.811,80.0016 218.977,87.0016 222.5,93.5C 222.557,94.609 222.89,95.609 223.5,96.5C 221.733,98.7916 220.733,101.458 220.5,104.5C 216.98,103.647 214.313,101.647 212.5,98.5C 212.244,96.0628 211.577,93.7294 210.5,91.5C 210.624,90.8933 210.957,90.56 211.5,90.5C 213.611,91.9681 215.444,91.6348 217,89.5C 218.682,84.567 217.182,81.2337 212.5,79.5C 210.347,79.5613 209.014,80.5613 208.5,82.5C 204.917,62.9109 213.251,54.4109 233.5,57C 238.201,58.5284 240.868,61.6951 241.5,66.5C 240.167,66.5 238.833,66.5 237.5,66.5 Z"/></g>
<g><path style="opacity:1" fill="#f9ad83" d="M 229.5,66.5 C 232.167,66.5 234.833,66.5 237.5,66.5C 237.5,67.1667 237.833,67.5 238.5,67.5C 238.039,69.5504 237.372,71.5504 236.5,73.5C 236.709,74.086 237.043,74.586 237.5,75C 236.167,75.6667 235.167,76.6667 234.5,78C 234.374,80.2342 234.707,82.5676 235.5,85C 233.109,86.3086 233.109,87.3086 235.5,88C 234.874,88.7504 234.374,89.5838 234,90.5C 233.667,90.1667 233.333,89.8333 233,89.5C 232.209,90.745 231.709,92.0783 231.5,93.5C 230.29,93.9321 229.29,94.5987 228.5,95.5C 226.883,96.038 225.216,96.3713 223.5,96.5C 222.89,95.609 222.557,94.609 222.5,93.5C 223.703,90.985 224.703,88.485 225.5,86C 225.943,84.4815 225.276,83.3148 223.5,82.5C 224.529,82.7036 225.529,82.2036 226.5,81C 226.167,80 225.833,79 225.5,78C 227.152,74.3106 228.485,70.4773 229.5,66.5 Z"/></g>
<g><path style="opacity:1" fill="#e3e1e3" d="M 394.5,62.5 C 395.407,64.6568 396.073,66.9902 396.5,69.5C 394.833,69.5 393.167,69.5 391.5,69.5C 391.707,66.7594 392.707,64.4261 394.5,62.5 Z"/></g>
<g><path style="opacity:0.259" fill="#a0a6ad" d="M 390.5,64.5 C 388.937,67.1316 389.27,69.4649 391.5,71.5C 389.278,71.4413 388.278,70.2747 388.5,68C 388.387,66.3009 389.053,65.1342 390.5,64.5 Z"/></g>
<g><path style="opacity:1" fill="#27cba0" d="M 41.5,124.5 C 41.7086,125.922 42.2086,127.255 43,128.5C 43.4643,127.906 43.631,127.239 43.5,126.5C 44.2953,131.765 45.962,136.765 48.5,141.5C 50.7579,148.476 52.7579,155.476 54.5,162.5C 54.5,163.5 54.5,164.5 54.5,165.5C 48.4687,164.473 42.4687,163.473 36.5,162.5C 36.5,164.5 36.5,166.5 36.5,168.5C 27.1038,134.678 15.1038,101.678 0.5,69.5C 0.833333,69.1667 1.16667,68.8333 1.5,68.5C 19.8895,83.556 33.2229,102.223 41.5,124.5 Z"/></g>
<g><path style="opacity:1" fill="#ecad8e" d="M 211.5,90.5 C 208.829,88.6527 207.829,85.986 208.5,82.5C 209.014,80.5613 210.347,79.5613 212.5,79.5C 217.182,81.2337 218.682,84.567 217,89.5C 215.444,91.6348 213.611,91.9681 211.5,90.5 Z"/></g>
<g><path style="opacity:1" fill="#f4b496" d="M 238.5,67.5 C 239.966,68.347 240.8,69.6803 241,71.5C 241.667,75.5 242.333,79.5 243,83.5C 243.805,86.6965 243.638,89.6965 242.5,92.5C 238.766,92.3227 235.099,92.6561 231.5,93.5C 231.709,92.0783 232.209,90.745 233,89.5C 233.333,89.8333 233.667,90.1667 234,90.5C 234.374,89.5838 234.874,88.7504 235.5,88C 233.109,87.3086 233.109,86.3086 235.5,85C 234.707,82.5676 234.374,80.2342 234.5,78C 235.167,76.6667 236.167,75.6667 237.5,75C 237.043,74.586 236.709,74.086 236.5,73.5C 237.372,71.5504 238.039,69.5504 238.5,67.5 Z"/></g>
<g><path style="opacity:1" fill="#f7c119" d="M 431.5,84.5 C 440.39,86.5142 446.89,91.5142 451,99.5C 451.497,102.146 451.664,104.813 451.5,107.5C 426.683,109.164 401.683,110.164 376.5,110.5C 375.778,110.918 375.278,111.584 375,112.5C 373.001,129.486 371.168,146.486 369.5,163.5C 368.437,167.639 367.77,171.972 367.5,176.5C 367.5,178.167 367.5,179.833 367.5,181.5C 366.291,185.618 365.624,189.951 365.5,194.5C 364.669,182.34 364.169,170.007 364,157.5C 363.283,158.044 362.783,158.711 362.5,159.5C 357.386,167.121 352.053,174.621 346.5,182C 322.167,182.667 297.833,182.667 273.5,182C 272.944,181.617 272.611,181.117 272.5,180.5C 272.672,179.508 272.338,178.842 271.5,178.5C 271.552,174.802 271.886,171.135 272.5,167.5C 286.547,166.499 300.547,165.499 314.5,164.5C 319.844,164.666 325.177,164.499 330.5,164C 346.5,140.333 362.5,116.667 378.5,93C 386.291,88.7926 394.625,86.2926 403.5,85.5C 408.03,85.403 412.53,85.7363 417,86.5C 421.797,85.5068 426.63,84.8402 431.5,84.5 Z"/></g>
<g><path style="opacity:1" fill="#f2b494" d="M 229.5,66.5 C 228.485,70.4773 227.152,74.3106 225.5,78C 225.833,79 226.167,80 226.5,81C 225.529,82.2036 224.529,82.7036 223.5,82.5C 225.276,83.3148 225.943,84.4815 225.5,86C 224.703,88.485 223.703,90.985 222.5,93.5C 218.977,87.0016 217.811,80.0016 219,72.5C 221.079,68.0429 224.579,66.0429 229.5,66.5 Z"/></g>
<g><path style="opacity:1" fill="#18264a" d="M 228.5,95.5 C 229.376,95.3691 230.043,95.7025 230.5,96.5C 229.764,100.814 228.43,104.814 226.5,108.5C 224.205,107.525 222.205,106.192 220.5,104.5C 220.733,101.458 221.733,98.7916 223.5,96.5C 225.216,96.3713 226.883,96.038 228.5,95.5 Z"/></g>
<g><path style="opacity:1" fill="#3d4664" d="M 242.5,92.5 C 242.666,98.1764 242.499,103.843 242,109.5C 238.96,113.483 235.126,114.483 230.5,112.5C 228.833,111.5 227.5,110.167 226.5,108.5C 228.43,104.814 229.764,100.814 230.5,96.5C 230.043,95.7025 229.376,95.3691 228.5,95.5C 229.29,94.5987 230.29,93.9321 231.5,93.5C 235.099,92.6561 238.766,92.3227 242.5,92.5 Z"/></g>
<g><path style="opacity:1" fill="#dfe1e6" d="M 231.5,97.5 C 234.167,97.5 236.833,97.5 239.5,97.5C 239.22,101.225 237.22,102.392 233.5,101C 232.177,100.184 231.511,99.0174 231.5,97.5 Z"/></g>
<g><path style="opacity:1" fill="#3dccaa" d="M 271.5,101.5 C 291.167,101.5 310.833,101.5 330.5,101.5C 330.5,103.167 330.5,104.833 330.5,106.5C 311.155,106.833 291.822,106.5 272.5,105.5C 271.754,104.264 271.421,102.93 271.5,101.5 Z"/></g>
<g><path style="opacity:1" fill="#d88688" d="M 165.5,54.5 C 163.969,56.6755 163.303,59.1755 163.5,62C 165.57,90.5267 167.904,119.027 170.5,147.5C 169.5,147.5 168.5,147.5 167.5,147.5C 167.167,147.5 166.833,147.5 166.5,147.5C 164.538,119.308 162.204,91.1418 159.5,63C 159.464,60.3701 159.964,57.8701 161,55.5C 162.356,54.6198 163.856,54.2865 165.5,54.5 Z"/></g>
<g><path style="opacity:1" fill="#f1a883" d="M 212.5,98.5 C 214.313,101.647 216.98,103.647 220.5,104.5C 222.205,106.192 224.205,107.525 226.5,108.5C 227.5,110.167 228.833,111.5 230.5,112.5C 229.833,113.167 229.167,113.833 228.5,114.5C 228.167,114.5 227.833,114.5 227.5,114.5C 222.531,117.16 217.531,117.16 212.5,114.5C 211.833,114.5 211.5,114.167 211.5,113.5C 211.179,108.305 211.513,103.305 212.5,98.5 Z"/></g>
<g><path style="opacity:1" fill="#333f71" d="M 376.5,110.5 C 380.923,109.425 382.923,111.092 382.5,115.5C 377.704,151.761 373.537,188.095 370,224.5C 368.371,233.462 363.205,239.296 354.5,242C 345.84,242.5 337.173,242.666 328.5,242.5C 324.5,240.167 324.5,237.833 328.5,235.5C 336.917,235.906 345.251,235.406 353.5,234C 357.798,231.541 360.798,228.041 362.5,223.5C 364.145,218.766 364.811,213.766 364.5,208.5C 364.253,205.061 364.586,201.728 365.5,198.5C 366.884,193.056 367.55,187.389 367.5,181.5C 367.5,179.833 367.5,178.167 367.5,176.5C 369.177,172.455 369.844,168.122 369.5,163.5C 371.168,146.486 373.001,129.486 375,112.5C 375.278,111.584 375.778,110.918 376.5,110.5 Z"/></g>
<g><path style="opacity:0.996" fill="#a9c1da" d="M 451.5,107.5 C 454.85,109.14 458.517,109.974 462.5,110C 463.98,111.299 464.646,112.966 464.5,115C 461.754,138.546 459.087,162.38 456.5,186.5C 479.742,186.173 502.908,186.506 526,187.5C 526.684,188.784 526.517,189.951 525.5,191C 514.818,191.168 504.151,191.668 493.5,192.5C 497.49,212.772 501.156,233.105 504.5,253.5C 501.061,253.253 497.728,253.586 494.5,254.5C 491.054,233.49 487.72,212.49 484.5,191.5C 482.5,191.5 480.5,191.5 478.5,191.5C 478.5,192.5 478.5,193.5 478.5,194.5C 477.596,193.791 477.263,192.791 477.5,191.5C 470.167,191.5 462.833,191.5 455.5,191.5C 454.664,202.861 453.497,214.194 452,225.5C 450.034,233.469 445.201,238.969 437.5,242C 432.233,243.191 426.899,243.691 421.5,243.5C 421.247,247.04 420.581,250.373 419.5,253.5C 419.46,250.119 419.793,246.786 420.5,243.5C 417.167,243.5 413.833,243.5 410.5,243.5C 410.665,246.85 410.498,250.183 410,253.5C 405.636,271.988 402.302,290.655 400,309.5C 398.382,315.601 396.882,321.601 395.5,327.5C 395.5,308.5 395.5,289.5 395.5,270.5C 395.5,265.833 395.5,261.167 395.5,256.5C 396.5,256.5 397.5,256.5 398.5,256.5C 398.5,252.167 398.5,247.833 398.5,243.5C 391.5,243.5 384.5,243.5 377.5,243.5C 366.167,243.5 354.833,243.5 343.5,243.5C 338.305,243.821 333.305,243.487 328.5,242.5C 337.173,242.666 345.84,242.5 354.5,242C 363.205,239.296 368.371,233.462 370,224.5C 373.537,188.095 377.704,151.761 382.5,115.5C 382.923,111.092 380.923,109.425 376.5,110.5C 401.683,110.164 426.683,109.164 451.5,107.5 Z M 399.5,243.5 C 401.857,243.337 404.19,243.503 406.5,244C 402.966,261.392 399.8,278.892 397,296.5C 396.5,283.504 396.333,270.504 396.5,257.5C 397.5,257.5 398.5,257.5 399.5,257.5C 399.5,252.833 399.5,248.167 399.5,243.5 Z"/></g>
<g><path style="opacity:0.71" fill="#67d9c5" d="M 339.5,110.5 C 340.434,111.568 340.768,112.901 340.5,114.5C 317.833,114.5 295.167,114.5 272.5,114.5C 272.5,112.833 272.5,111.167 272.5,109.5C 295.006,109.169 317.34,109.503 339.5,110.5 Z"/></g>
<g><path style="opacity:1" fill="#07c79a" d="M 339.5,110.5 C 339.5,111.5 339.5,112.5 339.5,113.5C 317.5,113.5 295.5,113.5 273.5,113.5C 273.5,112.5 273.5,111.5 273.5,110.5C 295.5,110.5 317.5,110.5 339.5,110.5 Z"/></g>
<g><path style="opacity:1" fill="#e4f0f5" d="M 89.5,142.5 C 86.5887,145.99 83.922,149.656 81.5,153.5C 81.6822,145.026 82.8488,136.693 85,128.5C 93.129,100.502 95.7956,101.502 93,131.5C 93.2008,135.729 92.0341,139.396 89.5,142.5 Z"/></g>
<g><path style="opacity:0.494" fill="#90dbd5" d="M 107.5,108.5 C 108.167,114.167 108.833,119.833 109.5,125.5C 109.5,126.167 109.167,126.5 108.5,126.5C 107.51,120.69 107.177,114.69 107.5,108.5 Z"/></g>
<g><path style="opacity:1" fill="#4e5d85" d="M 211.5,113.5 C 211.5,114.167 211.833,114.5 212.5,114.5C 213.304,117.442 214.638,120.109 216.5,122.5C 214.265,130.256 211.931,138.089 209.5,146C 212.167,146.667 214.833,146.667 217.5,146C 220.193,137.686 222.193,129.186 223.5,120.5C 224.458,120.953 225.292,121.619 226,122.5C 227.079,119.937 227.579,117.271 227.5,114.5C 227.833,114.5 228.167,114.5 228.5,114.5C 236.379,114.305 243.712,115.972 250.5,119.5C 250.5,119.833 250.5,120.167 250.5,120.5C 247.937,128.667 245.604,137 243.5,145.5C 248.456,146.494 253.456,146.827 258.5,146.5C 232.5,147.833 206.5,147.833 180.5,146.5C 181.833,146.5 183.167,146.5 184.5,146.5C 185.805,138.447 187.805,130.614 190.5,123C 189.906,122.536 189.239,122.369 188.5,122.5C 189.167,121.833 189.833,121.167 190.5,120.5C 197.263,117.579 204.263,115.246 211.5,113.5 Z"/></g>
<g><path style="opacity:1" fill="#f0f1f3" d="M 212.5,114.5 C 217.531,117.16 222.531,117.16 227.5,114.5C 227.579,117.271 227.079,119.937 226,122.5C 225.292,121.619 224.458,120.953 223.5,120.5C 223.189,119.522 222.522,118.855 221.5,118.5C 219.814,119.857 218.148,121.19 216.5,122.5C 214.638,120.109 213.304,117.442 212.5,114.5 Z"/></g>
<g><path style="opacity:1" fill="#31bf99" d="M 149.5,120.5 C 150.6,121.558 151.934,122.392 153.5,123C 152.956,123.717 152.289,124.217 151.5,124.5C 134.041,126.646 119.208,133.98 107,146.5C 106.218,149.31 105.384,151.977 104.5,154.5C 105.841,145.128 107.174,135.795 108.5,126.5C 109.167,126.5 109.5,126.167 109.5,125.5C 122.037,118.369 135.371,116.703 149.5,120.5 Z"/></g>
<g><path style="opacity:1" fill="#16ca9e" d="M 331.5,118.5 C 331.5,119.833 331.5,121.167 331.5,122.5C 312.5,122.5 293.5,122.5 274.5,122.5C 273.766,121.292 273.433,119.959 273.5,118.5C 292.833,118.5 312.167,118.5 331.5,118.5 Z"/></g>
<g><path style="opacity:1" fill="#303d73" d="M 223.5,120.5 C 222.193,129.186 220.193,137.686 217.5,146C 214.833,146.667 212.167,146.667 209.5,146C 211.931,138.089 214.265,130.256 216.5,122.5C 218.148,121.19 219.814,119.857 221.5,118.5C 222.522,118.855 223.189,119.522 223.5,120.5 Z"/></g>
<g><path style="opacity:1" fill="#374274" d="M 188.5,122.5 C 189.239,122.369 189.906,122.536 190.5,123C 187.805,130.614 185.805,138.447 184.5,146.5C 183.167,146.5 181.833,146.5 180.5,146.5C 181.216,140.753 182.383,135.086 184,129.5C 185.049,126.813 186.549,124.48 188.5,122.5 Z"/></g>
<g><path style="opacity:1" fill="#354074" d="M 250.5,120.5 C 254.937,127.81 257.603,135.81 258.5,144.5C 258.5,145.167 258.5,145.833 258.5,146.5C 253.456,146.827 248.456,146.494 243.5,145.5C 245.604,137 247.937,128.667 250.5,120.5 Z"/></g>
<g><path style="opacity:0.38" fill="#99e1de" d="M 331.5,118.5 C 332.451,119.919 332.784,121.585 332.5,123.5C 312.993,123.83 293.659,123.497 274.5,122.5C 293.5,122.5 312.5,122.5 331.5,122.5C 331.5,121.167 331.5,119.833 331.5,118.5 Z"/></g>
<g><path style="opacity:0.09" fill="#a7e1dc" d="M 42.5,117.5 C 43.4767,120.287 43.81,123.287 43.5,126.5C 43.631,127.239 43.4643,127.906 43,128.5C 42.2086,127.255 41.7086,125.922 41.5,124.5C 42.4682,122.393 42.8016,120.059 42.5,117.5 Z"/></g>
<g><path style="opacity:1" fill="#068f6b" d="M 64.5,143.5 C 64.4616,153.886 65.1283,164.219 66.5,174.5C 68.0644,199.197 67.7311,223.864 65.5,248.5C 63.8333,248.5 62.1667,248.5 60.5,248.5C 64.0838,228.557 64.2504,208.557 61,188.5C 59.1491,179.604 56.9824,170.937 54.5,162.5C 52.7579,155.476 50.7579,148.476 48.5,141.5C 48.62,140.414 49.2867,139.747 50.5,139.5C 54.956,141.448 59.6227,142.782 64.5,143.5 Z"/></g>
<g><path style="opacity:1" fill="#07906c" d="M 89.5,142.5 C 90.1524,143.449 90.4857,144.615 90.5,146C 87.6845,158.725 85.6845,171.559 84.5,184.5C 83.7926,205.697 82.7926,227.031 81.5,248.5C 79.5,248.5 77.5,248.5 75.5,248.5C 79.9572,223.422 81.6239,198.088 80.5,172.5C 80.2088,166.077 80.5422,159.744 81.5,153.5C 83.922,149.656 86.5887,145.99 89.5,142.5 Z"/></g>
<g><path style="opacity:0.991" fill="#aac1da" d="M 258.5,144.5 C 259.404,145.209 259.737,146.209 259.5,147.5C 263.167,147.5 266.833,147.5 270.5,147.5C 270.055,150.365 270.722,152.865 272.5,155C 286.829,155.5 301.163,155.667 315.5,155.5C 315.736,158.609 315.403,161.609 314.5,164.5C 300.547,165.499 286.547,166.499 272.5,167.5C 267.306,163.985 261.639,163.485 255.5,166C 250.655,167.25 246.655,169.75 243.5,173.5C 243.863,174.183 244.196,174.85 244.5,175.5C 236.868,176.358 229.201,176.691 221.5,176.5C 221.5,172.833 221.5,169.167 221.5,165.5C 220.5,165.5 219.5,165.5 218.5,165.5C 218.5,169.167 218.5,172.833 218.5,176.5C 213.167,176.5 207.833,176.5 202.5,176.5C 200.833,176.5 199.167,176.5 197.5,176.5C 197.5,178.167 197.5,179.833 197.5,181.5C 208.552,182.143 219.219,181.476 229.5,179.5C 229.833,179.5 230.167,179.5 230.5,179.5C 230.5,180.5 230.5,181.5 230.5,182.5C 219.167,182.5 207.833,182.5 196.5,182.5C 196.5,180.167 196.5,177.833 196.5,175.5C 203.5,175.5 210.5,175.5 217.5,175.5C 217.5,172.5 217.5,169.5 217.5,166.5C 210.159,166.666 202.826,166.5 195.5,166C 195.167,165.667 194.833,165.333 194.5,165C 195.315,160.222 195.981,155.389 196.5,150.5C 189.5,150.5 182.5,150.5 175.5,150.5C 175.569,155.854 175.902,161.187 176.5,166.5C 174.265,166.795 172.265,166.461 170.5,165.5C 173.907,165.875 174.407,164.875 172,162.5C 171.501,157.511 171.334,152.511 171.5,147.5C 174.609,147.736 177.609,147.403 180.5,146.5C 206.5,147.833 232.5,147.833 258.5,146.5C 258.5,145.833 258.5,145.167 258.5,144.5 Z"/></g>
<g><path style="opacity:1" fill="#35425e" d="M 167.5,147.5 C 168.5,147.5 169.5,147.5 170.5,147.5C 170.833,147.5 171.167,147.5 171.5,147.5C 171.334,152.511 171.501,157.511 172,162.5C 174.407,164.875 173.907,165.875 170.5,165.5C 169.5,165.167 168.833,164.5 168.5,163.5C 167.725,158.203 167.392,152.87 167.5,147.5 Z"/></g>
<g><path style="opacity:0.376" fill="#98a0ad" d="M 166.5,147.5 C 166.833,147.5 167.167,147.5 167.5,147.5C 167.392,152.87 167.725,158.203 168.5,163.5C 167.732,162.737 167.232,161.737 167,160.5C 166.501,156.179 166.334,151.846 166.5,147.5 Z"/></g>
<g><path style="opacity:1" fill="#14ba90" d="M 54.5,162.5 C 56.9824,170.937 59.1491,179.604 61,188.5C 64.2504,208.557 64.0838,228.557 60.5,248.5C 55.5,248.5 50.5,248.5 45.5,248.5C 44.602,221.79 41.602,195.123 36.5,168.5C 36.5,166.5 36.5,164.5 36.5,162.5C 42.4687,163.473 48.4687,164.473 54.5,165.5C 54.5,164.5 54.5,163.5 54.5,162.5 Z"/></g>
<g><path style="opacity:1" fill="#5e6477" d="M 192.5,163.5 C 187.858,164.34 183.192,164.507 178.5,164C 179.833,164.333 181.167,164.667 182.5,165C 179.85,167.893 178.85,171.393 179.5,175.5C 178.739,171.818 178.072,167.985 177.5,164C 178.098,162.699 179.098,161.865 180.5,161.5C 184.514,163.361 188.514,164.028 192.5,163.5 Z"/></g>
<g><path style="opacity:1" fill="#f9ae85" d="M 272.5,167.5 C 271.886,171.135 271.552,174.802 271.5,178.5C 265.536,177.693 259.536,177.36 253.5,177.5C 250.219,177.58 247.219,176.913 244.5,175.5C 244.196,174.85 243.863,174.183 243.5,173.5C 246.655,169.75 250.655,167.25 255.5,166C 261.639,163.485 267.306,163.985 272.5,167.5 Z"/></g>
<g><path style="opacity:1" fill="#373e5b" d="M 192.5,163.5 C 193.124,163.917 193.457,164.584 193.5,165.5C 192.78,170.137 192.28,174.803 192,179.5C 187.934,180.464 183.767,180.797 179.5,180.5C 179.5,178.833 179.5,177.167 179.5,175.5C 178.85,171.393 179.85,167.893 182.5,165C 181.167,164.667 179.833,164.333 178.5,164C 183.192,164.507 187.858,164.34 192.5,163.5 Z"/></g>
<g><path style="opacity:1" fill="#35425e" d="M 221.5,176.5 C 220.5,176.5 219.5,176.5 218.5,176.5C 218.5,172.833 218.5,169.167 218.5,165.5C 219.5,165.5 220.5,165.5 221.5,165.5C 221.5,169.167 221.5,172.833 221.5,176.5 Z"/></g>
<g><path style="opacity:1" fill="#6e5f56" d="M 369.5,163.5 C 369.844,168.122 369.177,172.455 367.5,176.5C 367.77,171.972 368.437,167.639 369.5,163.5 Z"/></g>
<g><path style="opacity:1" fill="#00b88d" d="M 80.5,172.5 C 81.6239,198.088 79.9572,223.422 75.5,248.5C 72.1667,248.5 68.8333,248.5 65.5,248.5C 67.7311,223.864 68.0644,199.197 66.5,174.5C 67.1174,174.611 67.6174,174.944 68,175.5C 71.8844,173.373 76.0511,172.373 80.5,172.5 Z"/></g>
<g><path style="opacity:1" fill="#64cddb" d="M 244.5,175.5 C 247.219,176.913 250.219,177.58 253.5,177.5C 245.833,178.167 238.167,178.833 230.5,179.5C 230.167,179.5 229.833,179.5 229.5,179.5C 220.481,178.707 211.481,177.707 202.5,176.5C 207.833,176.5 213.167,176.5 218.5,176.5C 219.5,176.5 220.5,176.5 221.5,176.5C 229.201,176.691 236.868,176.358 244.5,175.5 Z"/></g>
<g><path style="opacity:1" fill="#2d3a57" d="M 202.5,176.5 C 211.481,177.707 220.481,178.707 229.5,179.5C 219.219,181.476 208.552,182.143 197.5,181.5C 197.5,179.833 197.5,178.167 197.5,176.5C 199.167,176.5 200.833,176.5 202.5,176.5 Z"/></g>
<g><path style="opacity:0.216" fill="#bbd9d9" d="M 253.5,177.5 C 259.536,177.36 265.536,177.693 271.5,178.5C 272.338,178.842 272.672,179.508 272.5,180.5C 258.579,179.518 244.579,179.185 230.5,179.5C 238.167,178.833 245.833,178.167 253.5,177.5 Z"/></g>
<g><path style="opacity:1" fill="#3c4877" d="M 98.5,181.5 C 129.84,181.167 161.174,181.5 192.5,182.5C 193.791,183.527 193.791,184.527 192.5,185.5C 192.5,185.833 192.5,186.167 192.5,186.5C 160.5,186.5 128.5,186.5 96.5,186.5C 96.1201,184.302 96.7868,182.635 98.5,181.5 Z"/></g>
<g><path style="opacity:1" fill="#17182b" d="M 96.5,186.5 C 128.5,186.5 160.5,186.5 192.5,186.5C 192.5,187.833 192.5,189.167 192.5,190.5C 160.5,190.5 128.5,190.5 96.5,190.5C 96.5,189.5 96.5,188.5 96.5,187.5C 96.5,187.167 96.5,186.833 96.5,186.5 Z"/></g>
<g><path style="opacity:1" fill="#b1c8de" d="M 192.5,185.5 C 249.429,186.496 306.429,186.829 363.5,186.5C 363.5,188.167 363.5,189.833 363.5,191.5C 306.5,191.5 249.5,191.5 192.5,191.5C 192.5,191.167 192.5,190.833 192.5,190.5C 192.5,189.167 192.5,187.833 192.5,186.5C 192.5,186.167 192.5,185.833 192.5,185.5 Z"/></g>
<g><path style="opacity:1" fill="#645959" d="M 367.5,181.5 C 367.55,187.389 366.884,193.056 365.5,198.5C 365.5,197.167 365.5,195.833 365.5,194.5C 365.624,189.951 366.291,185.618 367.5,181.5 Z"/></g>
<g><path style="opacity:1" fill="#474e63" d="M 96.5,187.5 C 96.5,188.5 96.5,189.5 96.5,190.5C 128.5,190.5 160.5,190.5 192.5,190.5C 192.5,190.833 192.5,191.167 192.5,191.5C 181.833,191.5 171.167,191.5 160.5,191.5C 156.958,191.187 153.625,191.521 150.5,192.5C 148.958,191.699 147.292,191.366 145.5,191.5C 145.5,192.833 145.5,194.167 145.5,195.5C 144.566,194.432 144.232,193.099 144.5,191.5C 128.5,191.5 112.5,191.5 96.5,191.5C 95.1667,190.167 95.1667,188.833 96.5,187.5 Z"/></g>
<g><path style="opacity:0.973" fill="#a9c0d9" d="M 160.5,191.5 C 171.166,251.164 181.833,310.831 192.5,370.5C 207.578,370.816 222.578,370.483 237.5,369.5C 237.5,370.167 237.5,370.833 237.5,371.5C 219.167,371.5 200.833,371.5 182.5,371.5C 172.351,311.755 161.685,252.088 150.5,192.5C 153.625,191.521 156.958,191.187 160.5,191.5 Z"/></g>
<g><path style="opacity:1" fill="#ebba44" d="M 365.5,194.5 C 365.5,195.833 365.5,197.167 365.5,198.5C 364.586,201.728 364.253,205.061 364.5,208.5C 364.167,208.5 363.833,208.5 363.5,208.5C 363.5,206.5 363.5,204.5 363.5,202.5C 362.981,199.312 362.981,195.646 363.5,191.5C 363.5,189.833 363.5,188.167 363.5,186.5C 363.827,177.318 363.493,168.318 362.5,159.5C 362.783,158.711 363.283,158.044 364,157.5C 364.169,170.007 364.669,182.34 365.5,194.5 Z"/></g>
<g><path style="opacity:1" fill="#232436" d="M 494.5,254.5 C 492.278,254.178 490.444,254.845 489,256.5C 488.503,258.81 488.337,261.143 488.5,263.5C 487.167,263.5 485.833,263.5 484.5,263.5C 484.5,261.5 484.5,259.5 484.5,257.5C 484.5,255.5 485.5,254.5 487.5,254.5C 488.649,254.209 489.316,253.376 489.5,252C 488.969,247.591 487.969,243.425 486.5,239.5C 485.659,237.621 485.325,235.621 485.5,233.5C 485.749,229.542 485.082,225.876 483.5,222.5C 482.313,219.054 481.646,215.387 481.5,211.5C 481.749,207.542 481.082,203.876 479.5,200.5C 478.659,198.621 478.325,196.621 478.5,194.5C 478.5,193.5 478.5,192.5 478.5,191.5C 480.5,191.5 482.5,191.5 484.5,191.5C 487.72,212.49 491.054,233.49 494.5,254.5 Z"/></g>
<g><path style="opacity:1" fill="#13b98f" d="M 84.5,184.5 C 84.3354,187.518 84.502,190.518 85,193.5C 87.8456,195.257 90.5122,197.257 93,199.5C 93.4828,200.448 93.6495,201.448 93.5,202.5C 93.5,203.167 93.5,203.833 93.5,204.5C 91.8906,207.149 91.0572,210.149 91,213.5C 90.5006,218.823 90.334,224.156 90.5,229.5C 90.6476,235.653 90.6476,241.986 90.5,248.5C 90.1667,248.5 89.8333,248.5 89.5,248.5C 86.8333,248.5 84.1667,248.5 81.5,248.5C 82.7926,227.031 83.7926,205.697 84.5,184.5 Z"/></g>
<g><path style="opacity:0.999" fill="#62d6e5" d="M 356.5,206.5 C 353.753,206.187 351.086,206.52 348.5,207.5C 341.228,216.409 334.561,225.742 328.5,235.5C 324.5,237.833 324.5,240.167 328.5,242.5C 333.305,243.487 338.305,243.821 343.5,243.5C 340.293,250.606 336.793,257.606 333,264.5C 334.003,288.374 335.836,312.207 338.5,336C 338.333,337.833 338.167,339.667 338,341.5C 337.617,342.056 337.117,342.389 336.5,342.5C 330.929,343.897 325.262,344.564 319.5,344.5C 319.5,345.5 319.5,346.5 319.5,347.5C 314.948,336.325 311.448,324.658 309,312.5C 308.617,311.944 308.117,311.611 307.5,311.5C 307.678,310.305 308.011,309.138 308.5,308C 305.707,294.494 302.874,280.994 300,267.5C 299.617,268.056 299.117,268.389 298.5,268.5C 298.938,266.874 299.272,265.207 299.5,263.5C 296.806,248.268 295.973,232.935 297,217.5C 297.313,212.511 299.479,208.677 303.5,206C 321.324,204.3 338.99,204.467 356.5,206.5 Z"/></g>
<g><path style="opacity:1" fill="#52c8d2" d="M 363.5,202.5 C 363.5,204.5 363.5,206.5 363.5,208.5C 362.746,213.463 362.413,218.463 362.5,223.5C 360.798,228.041 357.798,231.541 353.5,234C 345.251,235.406 336.917,235.906 328.5,235.5C 334.561,225.742 341.228,216.409 348.5,207.5C 351.086,206.52 353.753,206.187 356.5,206.5C 358.5,206.5 360.5,206.5 362.5,206.5C 362.232,204.901 362.566,203.568 363.5,202.5 Z"/></g>
<g><path style="opacity:0.561" fill="#8f939b" d="M 479.5,200.5 C 481.082,203.876 481.749,207.542 481.5,211.5C 480.097,208.091 479.43,204.425 479.5,200.5 Z"/></g>
<g><path style="opacity:0.533" fill="#74d4bf" d="M 93.5,204.5 C 92.8926,213.02 91.8926,221.354 90.5,229.5C 90.334,224.156 90.5006,218.823 91,213.5C 91.0572,210.149 91.8906,207.149 93.5,204.5 Z"/></g>
<g><path style="opacity:0.612" fill="#80838b" d="M 148.5,212.5 C 150.504,217.525 151.504,222.858 151.5,228.5C 149.754,223.428 148.754,218.095 148.5,212.5 Z"/></g>
<g><path style="opacity:1" fill="#586f83" d="M 363.5,208.5 C 363.833,208.5 364.167,208.5 364.5,208.5C 364.811,213.766 364.145,218.766 362.5,223.5C 362.413,218.463 362.746,213.463 363.5,208.5 Z"/></g>
<g><path style="opacity:0.678" fill="#838890" d="M 483.5,222.5 C 485.082,225.876 485.749,229.542 485.5,233.5C 484.097,230.091 483.43,226.425 483.5,222.5 Z"/></g>
<g><path style="opacity:0.733" fill="#7d828d" d="M 152.5,234.5 C 154.082,237.876 154.749,241.542 154.5,245.5C 153.097,242.091 152.43,238.425 152.5,234.5 Z"/></g>
<g><path style="opacity:1" fill="#313e72" d="M 377.5,243.5 C 384.5,243.5 391.5,243.5 398.5,243.5C 398.5,247.833 398.5,252.167 398.5,256.5C 397.5,256.5 396.5,256.5 395.5,256.5C 390.637,256.181 385.97,256.514 381.5,257.5C 381.167,257.5 380.833,257.5 380.5,257.5C 379.5,257.5 378.5,257.5 377.5,257.5C 377.5,252.833 377.5,248.167 377.5,243.5 Z"/></g>
<g><path style="opacity:1" fill="#202132" d="M 419.5,253.5 C 419.451,257.078 418.785,260.411 417.5,263.5C 415.656,268.551 414.656,273.884 414.5,279.5C 414.5,279.833 414.5,280.167 414.5,280.5C 412.754,285.572 411.754,290.905 411.5,296.5C 410.57,306.42 408.903,316.087 406.5,325.5C 404.783,328.845 404.116,332.511 404.5,336.5C 404.784,338.415 404.451,340.081 403.5,341.5C 401.864,345.21 401.198,349.21 401.5,353.5C 401.634,355.292 401.301,356.958 400.5,358.5C 399.662,358.842 399.328,359.508 399.5,360.5C 398.167,360.5 396.833,360.5 395.5,360.5C 395.5,349.5 395.5,338.5 395.5,327.5C 396.882,321.601 398.382,315.601 400,309.5C 402.302,290.655 405.636,271.988 410,253.5C 410.498,250.183 410.665,246.85 410.5,243.5C 413.833,243.5 417.167,243.5 420.5,243.5C 419.793,246.786 419.46,250.119 419.5,253.5 Z"/></g>
<g><path style="opacity:0.588" fill="#848890" d="M 486.5,239.5 C 487.969,243.425 488.969,247.591 489.5,252C 489.316,253.376 488.649,254.209 487.5,254.5C 487.923,253.735 488.257,252.902 488.5,252C 487.251,247.922 486.584,243.755 486.5,239.5 Z"/></g>
<g><path style="opacity:1" fill="#c1948d" d="M 45.5,248.5 C 50.5,248.5 55.5,248.5 60.5,248.5C 62.1667,248.5 63.8333,248.5 65.5,248.5C 68.8333,248.5 72.1667,248.5 75.5,248.5C 77.5,248.5 79.5,248.5 81.5,248.5C 84.1667,248.5 86.8333,248.5 89.5,248.5C 85.7016,249.483 81.7016,249.817 77.5,249.5C 65.4197,249.188 53.4197,249.521 41.5,250.5C 42.1834,248.824 43.5168,248.157 45.5,248.5 Z"/></g>
<g><path style="opacity:0.999" fill="#f4838b" d="M 77.5,249.5 C 77.5,289.833 77.5,330.167 77.5,370.5C 84.5,370.5 91.5,370.5 98.5,370.5C 98.5,370.833 98.5,371.167 98.5,371.5C 78.5,371.5 58.5,371.5 38.5,371.5C 25.5015,349.353 20.3349,325.353 23,299.5C 24.3981,285.833 28.0647,272.833 34,260.5C 35.9789,256.7 38.4789,253.366 41.5,250.5C 53.4197,249.521 65.4197,249.188 77.5,249.5 Z"/></g>
<g><path style="opacity:0.998" fill="#fe9499" d="M 89.5,248.5 C 89.8333,248.5 90.1667,248.5 90.5,248.5C 93.8884,248.188 96.3884,249.521 98,252.5C 113.534,279.309 118.201,307.976 112,338.5C 109.466,349.625 105.3,359.958 99.5,369.5C 98.8333,369.5 98.5,369.833 98.5,370.5C 91.5,370.5 84.5,370.5 77.5,370.5C 77.5,330.167 77.5,289.833 77.5,249.5C 81.7016,249.817 85.7016,249.483 89.5,248.5 Z"/></g>
<g><path style="opacity:1" fill="#70747e" d="M 154.5,247.5 C 155.117,247.611 155.617,247.944 156,248.5C 156.498,251.482 156.665,254.482 156.5,257.5C 155.566,254.344 154.899,251.011 154.5,247.5 Z"/></g>
<g><path style="opacity:1" fill="#242536" d="M 150.5,192.5 C 161.685,252.088 172.351,311.755 182.5,371.5C 200.833,371.5 219.167,371.5 237.5,371.5C 237.5,371.833 237.5,372.167 237.5,372.5C 217.5,372.5 197.5,372.5 177.5,372.5C 177.768,370.901 177.434,369.568 176.5,368.5C 175.539,366.735 175.205,364.735 175.5,362.5C 174.886,356.147 174.053,349.814 173,343.5C 172.617,342.944 172.117,342.611 171.5,342.5C 171.5,341.833 171.5,341.167 171.5,340.5C 171.749,336.542 171.082,332.876 169.5,329.5C 168.539,327.735 168.205,325.735 168.5,323.5C 168.504,317.858 167.504,312.525 165.5,307.5C 164.659,305.621 164.325,303.621 164.5,301.5C 164.749,297.542 164.082,293.876 162.5,290.5C 161.539,288.735 161.205,286.735 161.5,284.5C 161.504,278.858 160.504,273.525 158.5,268.5C 158.5,268.167 158.5,267.833 158.5,267.5C 158.841,263.84 158.175,260.507 156.5,257.5C 156.665,254.482 156.498,251.482 156,248.5C 155.617,247.944 155.117,247.611 154.5,247.5C 154.5,246.833 154.5,246.167 154.5,245.5C 154.749,241.542 154.082,237.876 152.5,234.5C 151.539,232.735 151.205,230.735 151.5,228.5C 151.504,222.858 150.504,217.525 148.5,212.5C 146.863,206.977 145.863,201.31 145.5,195.5C 145.5,194.167 145.5,192.833 145.5,191.5C 147.292,191.366 148.958,191.699 150.5,192.5 Z"/></g>
<g><path style="opacity:1" fill="#22bed0" d="M 504.5,253.5 C 507.367,253.369 509.033,254.703 509.5,257.5C 509.5,259.5 509.5,261.5 509.5,263.5C 502.5,263.5 495.5,263.5 488.5,263.5C 488.337,261.143 488.503,258.81 489,256.5C 490.444,254.845 492.278,254.178 494.5,254.5C 497.728,253.586 501.061,253.253 504.5,253.5 Z"/></g>
<g><path style="opacity:1" fill="#1a1b2e" d="M 395.5,256.5 C 395.5,261.167 395.5,265.833 395.5,270.5C 390.833,270.5 386.167,270.5 381.5,270.5C 381.5,266.167 381.5,261.833 381.5,257.5C 385.97,256.514 390.637,256.181 395.5,256.5 Z"/></g>
<g><path style="opacity:1" fill="#747881" d="M 156.5,257.5 C 158.175,260.507 158.841,263.84 158.5,267.5C 157.215,264.411 156.549,261.078 156.5,257.5 Z"/></g>
<g><path style="opacity:0.906" fill="#556e8b" d="M 454.5,264.5 C 459.975,263.511 465.642,263.178 471.5,263.5C 471.167,264.5 470.5,265.167 469.5,265.5C 464.695,264.513 459.695,264.179 454.5,264.5 Z"/></g>
<g><path style="opacity:1" fill="#2f3d72" d="M 454.5,264.5 C 459.695,264.179 464.695,264.513 469.5,265.5C 467.31,266.374 466.31,268.041 466.5,270.5C 465.336,301.664 465.169,332.997 466,364.5C 467.012,367.202 468.512,369.535 470.5,371.5C 465.073,371.782 459.74,371.449 454.5,370.5C 453.833,370.167 453.167,369.833 452.5,369.5C 451.5,369.167 450.833,368.5 450.5,367.5C 448.984,364.135 448.317,360.802 448.5,357.5C 449.498,332.005 449.831,306.339 449.5,280.5C 449.5,278.5 449.5,276.5 449.5,274.5C 449.721,273.265 450.388,272.265 451.5,271.5C 450.465,269.872 450.465,268.205 451.5,266.5C 451.973,265.094 452.973,264.427 454.5,264.5 Z"/></g>
<g><path style="opacity:1" fill="#61d1e1" d="M 484.5,257.5 C 484.5,259.5 484.5,261.5 484.5,263.5C 485.833,263.5 487.167,263.5 488.5,263.5C 495.5,263.5 502.5,263.5 509.5,263.5C 509.5,261.5 509.5,259.5 509.5,257.5C 510.461,259.265 510.795,261.265 510.5,263.5C 517.841,263.334 525.174,263.5 532.5,264C 535,265.167 536.833,267 538,269.5C 538.5,287.83 538.667,306.164 538.5,324.5C 537.292,323.766 535.959,323.433 534.5,323.5C 534.5,316.167 534.5,308.833 534.5,301.5C 534.5,301.167 534.5,300.833 534.5,300.5C 514.194,298.512 493.527,297.845 472.5,298.5C 472.5,314.167 472.5,329.833 472.5,345.5C 470.648,346.089 468.815,346.756 467,347.5C 466.5,321.835 466.333,296.169 466.5,270.5C 466.31,268.041 467.31,266.374 469.5,265.5C 470.5,265.167 471.167,264.5 471.5,263.5C 475.19,263.383 479.19,263.383 483.5,263.5C 483.205,261.265 483.539,259.265 484.5,257.5 Z"/></g>
<g><path style="opacity:1" fill="#25c0d1" d="M 307.5,311.5 C 303.538,320.757 299.038,329.757 294,338.5C 292.385,339.386 290.885,340.386 289.5,341.5C 286.531,339.693 283.198,338.193 279.5,337C 278.717,334.882 277.384,333.382 275.5,332.5C 282.365,310.906 290.032,289.573 298.5,268.5C 299.117,268.389 299.617,268.056 300,267.5C 302.874,280.994 305.707,294.494 308.5,308C 308.011,309.138 307.678,310.305 307.5,311.5 Z"/></g>
<g><path style="opacity:1" fill="#313e72" d="M 381.5,270.5 C 386.167,270.5 390.833,270.5 395.5,270.5C 395.5,289.5 395.5,308.5 395.5,327.5C 395.5,338.5 395.5,349.5 395.5,360.5C 396.833,360.5 398.167,360.5 399.5,360.5C 408.986,361.494 418.652,361.827 428.5,361.5C 433.286,362.619 435.953,365.619 436.5,370.5C 436.5,370.833 436.5,371.167 436.5,371.5C 389.307,371.236 341.974,371.236 294.5,371.5C 294.5,370.5 294.5,369.5 294.5,368.5C 294.859,366.629 295.859,365.129 297.5,364C 304.451,361.405 311.451,358.905 318.5,356.5C 319.484,353.572 319.817,350.572 319.5,347.5C 319.5,346.5 319.5,345.5 319.5,344.5C 325.262,344.564 330.929,343.897 336.5,342.5C 336.5,342.833 336.5,343.167 336.5,343.5C 336.322,347.122 336.989,350.456 338.5,353.5C 339.284,357.519 340.284,361.519 341.5,365.5C 343.214,363.65 345.214,362.316 347.5,361.5C 358.833,361.5 370.167,361.5 381.5,361.5C 381.5,331.167 381.5,300.833 381.5,270.5 Z"/></g>
<g><path style="opacity:0.706" fill="#80848c" d="M 417.5,263.5 C 417.504,269.142 416.504,274.475 414.5,279.5C 414.656,273.884 415.656,268.551 417.5,263.5 Z"/></g>
<g><path style="opacity:1" fill="#646d8b" d="M 451.5,266.5 C 450.465,268.205 450.465,269.872 451.5,271.5C 450.388,272.265 449.721,273.265 449.5,274.5C 448.167,274.5 446.833,274.5 445.5,274.5C 447.986,272.195 449.986,269.528 451.5,266.5 Z"/></g>
<g><path style="opacity:1" fill="#2f3d72" d="M 475.5,272.5 C 493.995,271.338 512.662,271.171 531.5,272C 533.941,274.653 534.941,277.82 534.5,281.5C 534.327,285.541 533.827,289.541 533,293.5C 532.25,294.126 531.416,294.626 530.5,295C 511.995,295.829 493.662,295.662 475.5,294.5C 476.376,294.631 477.043,294.298 477.5,293.5C 476.181,286.637 476.181,279.803 477.5,273C 476.906,272.536 476.239,272.369 475.5,272.5 Z"/></g>
<g><path style="opacity:0.533" fill="#888c94" d="M 158.5,268.5 C 160.504,273.525 161.504,278.858 161.5,284.5C 159.754,279.428 158.754,274.095 158.5,268.5 Z"/></g>
<g><path style="opacity:1" fill="#2e2f3f" d="M 445.5,274.5 C 446.833,274.5 448.167,274.5 449.5,274.5C 449.5,276.5 449.5,278.5 449.5,280.5C 448.508,280.328 447.842,280.662 447.5,281.5C 445.107,283.736 443.273,286.403 442,289.5C 441.333,309.167 441.333,328.833 442,348.5C 442.655,350.628 443.489,352.628 444.5,354.5C 445.035,356.446 446.368,357.446 448.5,357.5C 448.317,360.802 448.984,364.135 450.5,367.5C 442.073,364.238 436.573,358.238 434,349.5C 433.333,329.167 433.333,308.833 434,288.5C 435.746,281.949 439.579,277.282 445.5,274.5 Z"/></g>
<g><path style="opacity:1" fill="#1a1e31" d="M 475.5,272.5 C 476.239,272.369 476.906,272.536 477.5,273C 476.181,279.803 476.181,286.637 477.5,293.5C 477.043,294.298 476.376,294.631 475.5,294.5C 474.883,294.389 474.383,294.056 474,293.5C 473.333,286.833 473.333,280.167 474,273.5C 474.383,272.944 474.883,272.611 475.5,272.5 Z"/></g>
<g><path style="opacity:0.247" fill="#b1bbc7" d="M 447.5,281.5 C 447.842,280.662 448.508,280.328 449.5,280.5C 449.831,306.339 449.498,332.005 448.5,357.5C 446.368,357.446 445.035,356.446 444.5,354.5C 445.721,355.028 446.887,355.695 448,356.5C 448.83,331.33 448.663,306.33 447.5,281.5 Z"/></g>
<g><path style="opacity:0.467" fill="#8e939a" d="M 414.5,280.5 C 414.344,286.116 413.344,291.449 411.5,296.5C 411.754,290.905 412.754,285.572 414.5,280.5 Z"/></g>
<g><path style="opacity:0.667" fill="#858992" d="M 162.5,290.5 C 164.082,293.876 164.749,297.542 164.5,301.5C 163.097,298.091 162.43,294.425 162.5,290.5 Z"/></g>
<g><path style="opacity:1" fill="#2e3c71" d="M 476.5,299.5 C 495.909,299.18 515.243,299.513 534.5,300.5C 534.5,300.833 534.5,301.167 534.5,301.5C 533.681,304.305 533.181,307.305 533,310.5C 515.653,316.296 498.486,322.463 481.5,329C 479.866,329.494 478.199,329.66 476.5,329.5C 476.5,319.5 476.5,309.5 476.5,299.5 Z"/></g>
<g><path style="opacity:1" fill="#27355e" d="M 475.5,299.5 C 475.833,299.5 476.167,299.5 476.5,299.5C 476.5,309.5 476.5,319.5 476.5,329.5C 478.199,329.66 479.866,329.494 481.5,329C 498.486,322.463 515.653,316.296 533,310.5C 533.181,307.305 533.681,304.305 534.5,301.5C 534.5,308.833 534.5,316.167 534.5,323.5C 534.667,334.838 534.5,346.172 534,357.5C 532.5,360.333 530.333,362.5 527.5,364C 511.833,364.667 496.167,364.667 480.5,364C 479.263,363.768 478.263,363.268 477.5,362.5C 478.239,362.631 478.906,362.464 479.5,362C 477.513,360.681 476.346,358.848 476,356.5C 475.5,337.503 475.333,318.503 475.5,299.5 Z"/></g>
<g><path style="opacity:0.573" fill="#858992" d="M 165.5,307.5 C 167.504,312.525 168.504,317.858 168.5,323.5C 166.754,318.428 165.754,313.095 165.5,307.5 Z"/></g>
<g><path style="opacity:1" fill="#467a94" d="M 534.5,300.5 C 515.243,299.513 495.909,299.18 476.5,299.5C 476.167,299.5 475.833,299.5 475.5,299.5C 473.512,318.471 472.846,337.804 473.5,357.5C 472.517,353.702 472.183,349.702 472.5,345.5C 472.5,329.833 472.5,314.167 472.5,298.5C 493.527,297.845 514.194,298.512 534.5,300.5 Z"/></g>
<g><path style="opacity:1" fill="#52c2ce" d="M 466.5,270.5 C 466.333,296.169 466.5,321.835 467,347.5C 468.815,346.756 470.648,346.089 472.5,345.5C 472.183,349.702 472.517,353.702 473.5,357.5C 474.124,359.754 475.457,361.421 477.5,362.5C 478.263,363.268 479.263,363.768 480.5,364C 496.167,364.667 511.833,364.667 527.5,364C 530.333,362.5 532.5,360.333 534,357.5C 534.5,346.172 534.667,334.838 534.5,323.5C 535.959,323.433 537.292,323.766 538.5,324.5C 538.667,338.171 538.5,351.837 538,365.5C 537.345,367.628 536.511,369.628 535.5,371.5C 513.833,371.5 492.167,371.5 470.5,371.5C 468.512,369.535 467.012,367.202 466,364.5C 465.169,332.997 465.336,301.664 466.5,270.5 Z"/></g>
<g><path style="opacity:1" fill="#757881" d="M 406.5,325.5 C 406.354,329.387 405.687,333.054 404.5,336.5C 404.116,332.511 404.783,328.845 406.5,325.5 Z"/></g>
<g><path style="opacity:0.506" fill="#8a9aac" d="M 380.5,257.5 C 380.833,257.5 381.167,257.5 381.5,257.5C 381.5,261.833 381.5,266.167 381.5,270.5C 381.5,300.833 381.5,331.167 381.5,361.5C 370.167,361.5 358.833,361.5 347.5,361.5C 358.321,360.505 369.321,360.172 380.5,360.5C 380.5,326.167 380.5,291.833 380.5,257.5 Z"/></g>
<g><path style="opacity:1" fill="#1e1e2f" d="M 275.5,332.5 C 277.384,333.382 278.717,334.882 279.5,337C 283.198,338.193 286.531,339.693 289.5,341.5C 288.416,344.004 287.083,346.337 285.5,348.5C 284.12,347.294 282.953,347.627 282,349.5C 280.822,353.182 279.656,356.849 278.5,360.5C 277.226,363.76 275.56,366.76 273.5,369.5C 272.833,369.5 272.5,369.833 272.5,370.5C 271.662,370.842 271.328,371.508 271.5,372.5C 260.167,372.5 248.833,372.5 237.5,372.5C 237.5,372.167 237.5,371.833 237.5,371.5C 237.5,370.833 237.5,370.167 237.5,369.5C 237.5,369.167 237.5,368.833 237.5,368.5C 238.833,367.833 239.833,366.833 240.5,365.5C 247.139,363.734 253.473,361.401 259.5,358.5C 259.833,358.5 260.167,358.5 260.5,358.5C 262.5,358.5 263.5,357.5 263.5,355.5C 267.232,347.703 271.232,340.036 275.5,332.5 Z"/></g>
<g><path style="opacity:0.694" fill="#82868f" d="M 169.5,329.5 C 171.082,332.876 171.749,336.542 171.5,340.5C 170.097,337.091 169.43,333.425 169.5,329.5 Z"/></g>
<g><path style="opacity:1" fill="#181929" d="M 475.5,299.5 C 475.333,318.503 475.5,337.503 476,356.5C 476.346,358.848 477.513,360.681 479.5,362C 478.906,362.464 478.239,362.631 477.5,362.5C 475.457,361.421 474.124,359.754 473.5,357.5C 472.846,337.804 473.512,318.471 475.5,299.5 Z"/></g>
<g><path style="opacity:0.761" fill="#7f828a" d="M 403.5,341.5 C 403.461,345.733 402.795,349.733 401.5,353.5C 401.198,349.21 401.864,345.21 403.5,341.5 Z"/></g>
<g><path style="opacity:0.557" fill="#96a2b7" d="M 336.5,343.5 C 337.785,346.589 338.451,349.922 338.5,353.5C 336.989,350.456 336.322,347.122 336.5,343.5 Z"/></g>
<g><path style="opacity:0.6" fill="#7e828c" d="M 171.5,342.5 C 172.117,342.611 172.617,342.944 173,343.5C 174.053,349.814 174.886,356.147 175.5,362.5C 173.549,356.076 172.215,349.409 171.5,342.5 Z"/></g>
<g><path style="opacity:1" fill="#545564" d="M 285.5,348.5 C 283.668,352.836 281.335,356.836 278.5,360.5C 279.656,356.849 280.822,353.182 282,349.5C 282.953,347.627 284.12,347.294 285.5,348.5 Z"/></g>
<g><path style="opacity:0.925" fill="#92969c" d="M 263.5,355.5 C 263.5,357.5 262.5,358.5 260.5,358.5C 261.167,357.167 262.167,356.167 263.5,355.5 Z"/></g>
<g><path style="opacity:0.522" fill="#8c9fad" d="M 400.5,358.5 C 409.622,360.157 418.955,361.157 428.5,361.5C 418.652,361.827 408.986,361.494 399.5,360.5C 399.328,359.508 399.662,358.842 400.5,358.5 Z"/></g>
<g><path style="opacity:1" fill="#676a76" d="M 259.5,358.5 C 253.473,361.401 247.139,363.734 240.5,365.5C 241.058,364.21 242.058,363.377 243.5,363C 248.823,361.391 254.156,359.891 259.5,358.5 Z"/></g>
<g><path style="opacity:0.58" fill="#9da1a9" d="M 240.5,365.5 C 239.833,366.833 238.833,367.833 237.5,368.5C 237.5,366.5 238.5,365.5 240.5,365.5 Z"/></g>
<g><path style="opacity:0.104" fill="#cbd3db" d="M 99.5,369.5 C 124.995,370.498 150.661,370.831 176.5,370.5C 150.672,371.498 124.672,371.831 98.5,371.5C 98.5,371.167 98.5,370.833 98.5,370.5C 98.5,369.833 98.8333,369.5 99.5,369.5 Z"/></g>
<g><path style="opacity:0.093" fill="#c5cdd6" d="M 294.5,368.5 C 294.5,369.5 294.5,370.5 294.5,371.5C 286.981,371.825 279.648,371.492 272.5,370.5C 272.5,369.833 272.833,369.5 273.5,369.5C 276.649,370.165 279.982,370.498 283.5,370.5C 287.427,370.42 291.093,369.753 294.5,368.5 Z"/></g>
<g><path style="opacity:0.103" fill="#c6ced7" d="M 452.5,369.5 C 453.167,369.833 453.833,370.167 454.5,370.5C 448.69,371.49 442.69,371.823 436.5,371.5C 436.5,371.167 436.5,370.833 436.5,370.5C 442.026,370.821 447.36,370.488 452.5,369.5 Z"/></g>
<g><path style="opacity:0.788" fill="#585865" d="M 176.5,368.5 C 177.434,369.568 177.768,370.901 177.5,372.5C 149.328,372.169 121.328,372.502 93.5,373.5C 93.1667,373.5 92.8333,373.5 92.5,373.5C 92.1667,372.167 91.8333,372.167 91.5,373.5C 91.1667,373.5 90.8333,373.5 90.5,373.5C 89.1667,372.167 87.8333,372.167 86.5,373.5C 86.1667,373.5 85.8333,373.5 85.5,373.5C 85.1667,372.167 84.8333,372.167 84.5,373.5C 84.1667,373.5 83.8333,373.5 83.5,373.5C 82.8333,372.167 82.1667,372.167 81.5,373.5C 81.1667,373.5 80.8333,373.5 80.5,373.5C 79.1667,372.167 77.8333,372.167 76.5,373.5C 76.1667,373.5 75.8333,373.5 75.5,373.5C 72.8333,372.167 70.1667,372.167 67.5,373.5C 67.1667,373.5 66.8333,373.5 66.5,373.5C 65.5,372.167 64.5,372.167 63.5,373.5C 63.1667,373.5 62.8333,373.5 62.5,373.5C 61.8333,372.167 61.1667,372.167 60.5,373.5C 60.1667,373.5 59.8333,373.5 59.5,373.5C 58.8333,372.167 58.1667,372.167 57.5,373.5C 57.1667,373.5 56.8333,373.5 56.5,373.5C 55.5,372.167 54.5,372.167 53.5,373.5C 53.1667,373.5 52.8333,373.5 52.5,373.5C 51.8333,372.167 51.1667,372.167 50.5,373.5C 50.1667,373.5 49.8333,373.5 49.5,373.5C 47.5,372.167 45.5,372.167 43.5,373.5C 43.1667,373.5 42.8333,373.5 42.5,373.5C 41.1667,372.833 39.8333,372.167 38.5,371.5C 58.5,371.5 78.5,371.5 98.5,371.5C 124.672,371.831 150.672,371.498 176.5,370.5C 176.5,369.833 176.5,369.167 176.5,368.5 Z"/></g>
<g><path style="opacity:0.945" fill="#353c4f" d="M 272.5,370.5 C 279.648,371.492 286.981,371.825 294.5,371.5C 341.974,371.236 389.307,371.236 436.5,371.5C 442.69,371.823 448.69,371.49 454.5,370.5C 459.74,371.449 465.073,371.782 470.5,371.5C 492.167,371.5 513.833,371.5 535.5,371.5C 447.668,372.499 359.668,372.833 271.5,372.5C 271.328,371.508 271.662,370.842 272.5,370.5 Z"/></g>
</svg>
