<?xml version="1.0" encoding="UTF-8"?>
<!DOCTYPE svg PUBLIC "-//W3C//DTD SVG 1.1//EN" "http://www.w3.org/Graphics/SVG/1.1/DTD/svg11.dtd">
<svg xmlns="http://www.w3.org/2000/svg" version="1.1" width="512px" height="512px" style="shape-rendering:geometricPrecision; text-rendering:geometricPrecision; image-rendering:optimizeQuality; fill-rule:evenodd; clip-rule:evenodd" xmlns:xlink="http://www.w3.org/1999/xlink">
<g><path style="opacity:1" fill="#87d8d1" d="M 511.5,243.5 C 511.5,251.5 511.5,259.5 511.5,267.5C 505.326,293.511 489.326,310.344 463.5,318C 394.202,319.159 324.869,319.659 255.5,319.5C 186.131,319.659 116.798,319.159 47.5,318C 21.7011,310.37 5.7011,293.537 -0.5,267.5C -0.5,259.5 -0.5,251.5 -0.5,243.5C 0.990768,236.701 3.65744,230.367 7.5,224.5C 9.38182,223.779 9.71515,222.779 8.5,221.5C 18.6722,205.736 33.0055,195.903 51.5,192C 187.5,191.333 323.5,191.333 459.5,192C 487.321,198.654 504.654,215.821 511.5,243.5 Z"/></g>
<g><path style="opacity:0.98" fill="#5f45ce" d="M 8.5,221.5 C 9.71515,222.779 9.38182,223.779 7.5,224.5C 7.55688,223.391 7.89022,222.391 8.5,221.5 Z"/></g>
</svg>
