<?xml version="1.0" encoding="UTF-8"?>
<!DOCTYPE svg PUBLIC "-//W3C//DTD SVG 1.1//EN" "http://www.w3.org/Graphics/SVG/1.1/DTD/svg11.dtd">
<svg xmlns="http://www.w3.org/2000/svg" version="1.1" width="990px" height="200px" style="shape-rendering:geometricPrecision; text-rendering:geometricPrecision; image-rendering:optimizeQuality; fill-rule:evenodd; clip-rule:evenodd" xmlns:xlink="http://www.w3.org/1999/xlink">
<g><path style="opacity:0.967" fill="#1ea599" d="M 84.5,0.5 C 113.151,-2.92346 138.817,4.07654 161.5,21.5C 156.124,21.6752 151.624,23.6752 148,27.5C 146.222,33.0564 148.055,36.8898 153.5,39C 161.886,39.5709 170.22,39.5709 178.5,39C 182.597,43.5813 185.597,48.748 187.5,54.5C 179.16,54.3336 170.827,54.5003 162.5,55C 155.959,58.4952 154.959,63.1618 159.5,69C 161.087,69.8624 162.754,70.5291 164.5,71C 174.828,71.4998 185.161,71.6665 195.5,71.5C 196.628,76.4728 197.628,81.4728 198.5,86.5C 174.498,86.3334 150.498,86.5 126.5,87C 117.751,91.9484 117.418,97.2818 125.5,103C 149.831,103.5 174.164,103.667 198.5,103.5C 198.745,108.054 198.412,112.554 197.5,117C 193.41,118.573 189.577,120.74 186,123.5C 183.822,129.951 185.989,134.118 192.5,136C 189.734,143.035 186.067,149.535 181.5,155.5C 179.549,153.378 177.215,151.878 174.5,151C 166.754,150.104 159.087,150.437 151.5,152C 147.018,155.705 146.351,160.038 149.5,165C 150.833,165.667 152.167,166.333 153.5,167C 159.528,167.17 165.528,167.67 171.5,168.5C 139.018,199.307 101.684,206.807 59.5,191C 10.6058,165.035 -7.89425,124.868 4,70.5C 17.7406,31.9152 44.5739,8.58184 84.5,0.5 Z M 115.5,54.5 C 123.174,54.3336 130.841,54.5003 138.5,55C 145.013,58.5674 146.013,63.234 141.5,69C 139.913,69.8624 138.246,70.5291 136.5,71C 129.086,71.8903 121.753,71.557 114.5,70C 109.311,67.0868 108.144,62.9201 111,57.5C 112.652,56.6006 114.152,55.6006 115.5,54.5 Z M 78.5,86.5 C 85.8409,86.3337 93.1742,86.5003 100.5,87C 105.869,88.578 108.035,92.078 107,97.5C 105.833,100 104,101.833 101.5,103C 93.8333,103.667 86.1667,103.667 78.5,103C 70.5363,97.5531 70.5363,92.0531 78.5,86.5 Z M 114.5,119.5 C 131.837,119.333 149.17,119.5 166.5,120C 172.967,123.362 173.967,127.862 169.5,133.5C 167.78,134.934 165.78,135.767 163.5,136C 148.5,136.667 133.5,136.667 118.5,136C 111.422,135.26 108.589,131.427 110,124.5C 111.193,122.503 112.693,120.836 114.5,119.5 Z"/></g>
<g><path style="opacity:0.96" fill="#0f100f" d="M 416.5,28.5 C 422.909,27.7932 427.076,30.4599 429,36.5C 429.333,51.8333 429.667,67.1667 430,82.5C 438,73.7166 448,69.3833 460,69.5C 479.193,69.3644 490.526,78.6977 494,97.5C 494.667,120.167 494.667,142.833 494,165.5C 490.212,170.153 485.378,171.653 479.5,170C 476.943,169.315 475.109,167.815 474,165.5C 473,142.833 472,120.167 471,97.5C 465.412,88.9127 457.579,86.0794 447.5,89C 439.498,91.0029 433.998,95.8362 431,103.5C 429.715,123.449 429.048,143.449 429,163.5C 427.267,168.756 423.6,171.09 418,170.5C 414.265,170.799 411.265,169.466 409,166.5C 407.344,122.584 407.011,78.5837 408,34.5C 410.186,31.4655 413.019,29.4655 416.5,28.5 Z"/></g>
<g><path style="opacity:0.969" fill="#0f100f" d="M 278.5,29.5 C 313.168,29.3333 347.835,29.5 382.5,30C 387.606,31.0168 390.273,34.1835 390.5,39.5C 390.214,43.2417 388.547,46.075 385.5,48C 370.837,48.4999 356.17,48.6666 341.5,48.5C 341.667,87.1681 341.5,125.835 341,164.5C 338.738,168.931 335.071,170.931 330,170.5C 325.268,170.802 321.935,168.802 320,164.5C 319.5,125.835 319.333,87.1681 319.5,48.5C 304.83,48.6666 290.163,48.4999 275.5,48C 272.08,46.2809 270.414,43.4476 270.5,39.5C 270.645,34.0322 273.312,30.6988 278.5,29.5 Z"/></g>
<g><path style="opacity:0.952" fill="#0f100f" d="M 560.5,69.5 C 572,68.7325 582.666,71.2325 592.5,77C 599.396,83.2922 603.229,91.1255 604,100.5C 604.667,121.833 604.667,143.167 604,164.5C 600.723,170.109 595.89,171.942 589.5,170C 584.886,167.61 582.719,163.777 583,158.5C 576.265,166.95 567.432,171.284 556.5,171.5C 532.101,170.277 520.601,157.611 522,133.5C 525.786,121.67 533.952,115.17 546.5,114C 558.782,112.408 571.115,111.575 583.5,111.5C 585.317,94.1511 577.65,86.3178 560.5,88C 551.346,89.6067 542.68,92.6067 534.5,97C 531.412,97.8467 528.579,97.3467 526,95.5C 523.188,89.0978 524.355,83.5978 529.5,79C 539.425,74.0773 549.758,70.9106 560.5,69.5 Z M 562.5,125.5 C 569.5,125.5 576.5,125.5 583.5,125.5C 584.181,142.163 576.348,151.83 560,154.5C 546.569,152.757 541.569,145.423 545,132.5C 545.833,131.667 546.667,130.833 547.5,130C 552.414,127.747 557.414,126.247 562.5,125.5 Z"/></g>
<g><path style="opacity:0.957" fill="#0f100f" d="M 680.5,69.5 C 694.818,68.0762 705.651,73.4095 713,85.5C 726.247,70.2052 742.414,66.0385 761.5,73C 770.805,78.4209 775.971,86.5876 777,97.5C 777.667,120.167 777.667,142.833 777,165.5C 773.212,170.153 768.378,171.653 762.5,170C 759.943,169.315 758.109,167.815 757,165.5C 755.699,143.897 755.033,122.23 755,100.5C 751.556,90.0242 744.389,86.1909 733.5,89C 726.427,91.0724 721.594,95.5724 719,102.5C 717.714,122.782 717.047,143.116 717,163.5C 716.208,165.587 715.041,167.421 713.5,169C 709.594,170.434 705.594,170.767 701.5,170C 699,168.833 697.167,167 696,164.5C 695.944,142.791 695.277,121.124 694,99.5C 690.201,89.5472 683.034,86.0472 672.5,89C 665,91.1667 660.167,96 658,103.5C 657.012,124.513 656.012,145.513 655,166.5C 650.909,170.305 646.076,171.472 640.5,170C 638.714,169.215 637.214,168.049 636,166.5C 634.349,136.586 634.016,106.586 635,76.5C 636.167,74 638,72.1667 640.5,71C 650.021,68.3378 655.521,71.8378 657,81.5C 663.497,74.6688 671.331,70.6688 680.5,69.5 Z"/></g>
<g><path style="opacity:0.955" fill="#0f100f" d="M 989.5,95.5 C 989.5,119.167 989.5,142.833 989.5,166.5C 983.332,171.797 977.165,171.797 971,166.5C 969.908,163.956 969.241,161.289 969,158.5C 959.2,169.661 947.033,173.495 932.5,170C 912.172,163.852 904.338,150.352 909,129.5C 913.794,120.002 921.627,114.835 932.5,114C 944.776,112.325 957.11,111.492 969.5,111.5C 971.287,94.1718 963.62,86.3385 946.5,88C 937.354,89.6043 928.687,92.6043 920.5,97C 913.855,98.5057 910.188,95.839 909.5,89C 909.818,84.6766 911.818,81.3433 915.5,79C 930.945,70.8612 947.278,68.1945 964.5,71C 978.013,74.0143 986.347,82.181 989.5,95.5 Z M 948.5,125.5 C 955.5,125.5 962.5,125.5 969.5,125.5C 970.16,142.229 962.327,151.895 946,154.5C 933.89,153.072 928.557,146.405 930,134.5C 930.785,132.714 931.951,131.214 933.5,130C 938.388,127.7 943.388,126.2 948.5,125.5 Z"/></g>
<g><path style="opacity:0.963" fill="#0f100f" d="M 806.5,72.5 C 831.169,72.3334 855.836,72.5 880.5,73C 886.666,76.6556 888.166,81.8222 885,88.5C 867.167,109.667 849.333,130.833 831.5,152C 849.167,152.333 866.833,152.667 884.5,153C 890.214,157.253 890.881,162.253 886.5,168C 860.587,169.648 834.587,169.981 808.5,169C 804.013,167.7 802.013,164.7 802.5,160C 802.329,156.871 803.162,154.037 805,151.5C 822.875,131.294 840.375,110.794 857.5,90C 840.5,89.6667 823.5,89.3333 806.5,89C 801.548,85.6001 800.382,81.1001 803,75.5C 804.145,74.3636 805.312,73.3636 806.5,72.5 Z"/></g>
</svg>
