<?xml version="1.0" encoding="UTF-8"?>
<!DOCTYPE svg PUBLIC "-//W3C//DTD SVG 1.1//EN" "http://www.w3.org/Graphics/SVG/1.1/DTD/svg11.dtd">
<svg xmlns="http://www.w3.org/2000/svg" version="1.1" width="512px" height="512px" style="shape-rendering:geometricPrecision; text-rendering:geometricPrecision; image-rendering:optimizeQuality; fill-rule:evenodd; clip-rule:evenodd" xmlns:xlink="http://www.w3.org/1999/xlink">
<g><path style="opacity:0.985" fill="#000000" d="M 233.5,-0.5 C 248.167,-0.5 262.833,-0.5 277.5,-0.5C 366.955,9.62078 434.455,53.2874 480,130.5C 497.5,162.825 508,197.158 511.5,233.5C 511.5,248.167 511.5,262.833 511.5,277.5C 501.379,366.955 457.713,434.455 380.5,480C 348.175,497.5 313.842,508 277.5,511.5C 263.167,511.5 248.833,511.5 234.5,511.5C 223.232,510.17 211.899,508.336 200.5,506C 194.288,504.782 188.288,502.948 182.5,500.5C 191.308,486.552 198.808,471.886 205,456.5C 212.19,429.4 219.524,402.4 227,375.5C 237.572,390.388 251.738,400.222 269.5,405C 320.404,411.628 361.237,394.461 392,353.5C 421.571,307.652 432.238,257.652 424,203.5C 412.137,157.616 384.97,124.116 342.5,103C 305.999,86.6876 267.999,82.0209 228.5,89C 165.47,99.065 120.637,132.898 94,190.5C 83.2546,218.048 80.5879,246.382 86,275.5C 89.775,297.89 99.9417,316.723 116.5,332C 122.375,336.438 128.708,340.105 135.5,343C 139.619,344.281 142.953,343.281 145.5,340C 148.459,331.162 150.793,322.162 152.5,313C 152.435,310.409 151.935,307.909 151,305.5C 136.247,287.9 129.913,267.567 132,244.5C 135.576,200.492 156.076,166.992 193.5,144C 230.513,126.314 268.513,123.981 307.5,137C 346.683,155.263 366.017,186.263 365.5,230C 365.742,263.866 357.908,295.699 342,325.5C 332.595,341.575 319.428,353.408 302.5,361C 291.578,363.869 280.578,364.203 269.5,362C 246.65,353.14 237.817,336.64 243,312.5C 250.613,287.33 257.613,261.997 264,236.5C 267.242,221.608 264.575,207.941 256,195.5C 240.562,183.078 224.395,182.244 207.5,193C 187.235,212.123 179.068,235.623 183,263.5C 184.019,273.409 186.519,282.909 190.5,292C 179.412,339.518 168.245,387.018 157,434.5C 154.236,453.052 152.736,471.719 152.5,490.5C 75.3062,454.475 26.1395,395.142 5,312.5C 2.82715,301.075 0.993819,289.742 -0.5,278.5C -0.5,263.5 -0.5,248.5 -0.5,233.5C 9.62078,144.045 53.2874,76.5449 130.5,31C 162.825,13.4997 197.158,2.99967 233.5,-0.5 Z"/></g>
</svg>
