<?xml version="1.0" encoding="UTF-8"?>
<!DOCTYPE svg PUBLIC "-//W3C//DTD SVG 1.1//EN" "http://www.w3.org/Graphics/SVG/1.1/DTD/svg11.dtd">
<svg xmlns="http://www.w3.org/2000/svg" version="1.1" width="512px" height="512px" style="shape-rendering:geometricPrecision; text-rendering:geometricPrecision; image-rendering:optimizeQuality; fill-rule:evenodd; clip-rule:evenodd" xmlns:xlink="http://www.w3.org/1999/xlink">
<g><path style="opacity:1" fill="#20a499" d="M -0.5,72.5 C 72.8333,72.5 146.167,72.5 219.5,72.5C 219.667,146.167 219.5,219.834 219,293.5C 195,341.5 171,389.5 147,437.5C 109.905,438.663 72.7379,438.829 35.5,438C 59.7356,389.695 84.069,341.528 108.5,293.5C 109.043,293.44 109.376,293.107 109.5,292.5C 72.8394,291.5 36.1727,291.167 -0.5,291.5C -0.5,218.5 -0.5,145.5 -0.5,72.5 Z"/></g>
<g><path style="opacity:1" fill="#1fa599" d="M 292.5,72.5 C 365.5,72.5 438.5,72.5 511.5,72.5C 511.5,145.833 511.5,219.167 511.5,292.5C 486.686,340.128 462.352,388.128 438.5,436.5C 438.624,437.107 438.957,437.44 439.5,437.5C 402.664,438.83 365.664,438.83 328.5,437.5C 352.783,389.268 376.783,340.935 400.5,292.5C 365.877,291.5 329.877,291.167 292.5,291.5C 292.5,218.5 292.5,145.5 292.5,72.5 Z"/></g>
<g><path style="opacity:0.6" fill="#26a3ec" d="M -0.5,292.5 C -0.5,292.167 -0.5,291.833 -0.5,291.5C 36.1727,291.167 72.8394,291.5 109.5,292.5C 109.376,293.107 109.043,293.44 108.5,293.5C 72.3372,292.502 36.0038,292.168 -0.5,292.5 Z"/></g>
<g><path style="opacity:0.6" fill="#3d7aca" d="M 292.5,72.5 C 292.5,145.5 292.5,218.5 292.5,291.5C 329.877,291.167 365.877,291.5 400.5,292.5C 364.167,292.5 327.833,292.5 291.5,292.5C 291.167,218.998 291.501,145.665 292.5,72.5 Z"/></g>
<g><path style="opacity:0.529" fill="#8de760" d="M 511.5,292.5 C 511.5,293.167 511.5,293.833 511.5,294.5C 487.261,341.977 463.261,389.644 439.5,437.5C 438.957,437.44 438.624,437.107 438.5,436.5C 462.352,388.128 486.686,340.128 511.5,292.5 Z"/></g>
</svg>
