<?xml version="1.0" encoding="UTF-8"?>
<!DOCTYPE svg PUBLIC "-//W3C//DTD SVG 1.1//EN" "http://www.w3.org/Graphics/SVG/1.1/DTD/svg11.dtd">
<svg xmlns="http://www.w3.org/2000/svg" version="1.1" width="2000px" height="851px" style="shape-rendering:geometricPrecision; text-rendering:geometricPrecision; image-rendering:optimizeQuality; fill-rule:evenodd; clip-rule:evenodd" xmlns:xlink="http://www.w3.org/1999/xlink">
<g><path style="opacity:0.17" fill="#eb008b" d="M 82.5,127.5 C 95.85,127.167 109.183,127.501 122.5,128.5C 109.833,141.833 96.8333,154.833 83.5,167.5C 82.5008,154.183 82.1675,140.85 82.5,127.5 Z M 91.5,136.5 C 94.8499,136.335 98.1832,136.502 101.5,137C 98.3333,140.167 95.1667,143.333 92,146.5C 91.5017,143.183 91.335,139.85 91.5,136.5 Z"/></g>
<g><path style="opacity:0.164" fill="#00aeef" d="M 1797.5,132.5 C 1815.32,130.817 1823.15,138.817 1821,156.5C 1814.19,169.134 1804.35,171.968 1791.5,165C 1785.38,158.136 1783.88,150.302 1787,141.5C 1789.51,137.189 1793.01,134.189 1797.5,132.5 Z M 1801.5,141.5 C 1810.84,142.008 1814.01,146.674 1811,155.5C 1806,160.833 1801,160.833 1796,155.5C 1793.6,149.039 1795.44,144.372 1801.5,141.5 Z"/></g>
<g><path style="opacity:0.16" fill="#f6941d" d="M 161.5,352.5 C 170.566,357.699 179.899,362.366 189.5,366.5C 185.168,376.827 180.002,386.827 174,396.5C 165.552,390.9 156.718,385.9 147.5,381.5C 147.167,380.833 146.833,380.167 146.5,379.5C 151.256,370.317 156.256,361.317 161.5,352.5 Z M 164.5,363.5 C 169.61,365.557 174.277,368.391 178.5,372C 175.636,376.033 172.969,380.199 170.5,384.5C 165.902,382.23 161.569,379.563 157.5,376.5C 160.1,372.299 162.434,367.966 164.5,363.5 Z"/></g>
<g><path style="opacity:0.154" fill="#fe0000" d="M 1757.5,398.5 C 1759.5,398.5 1761.5,398.5 1763.5,398.5C 1763.42,399.93 1763.75,401.264 1764.5,402.5C 1762.62,405.751 1760.62,408.918 1758.5,412C 1761.5,413.833 1764.5,415.667 1767.5,417.5C 1769.51,422.012 1768.17,424.179 1763.5,424C 1760.67,422.753 1758,421.253 1755.5,419.5C 1753.52,421.457 1752.02,423.79 1751,426.5C 1747.53,430.753 1744.7,430.42 1742.5,425.5C 1744.04,422.254 1745.71,419.088 1747.5,416C 1745.36,413.426 1742.69,411.593 1739.5,410.5C 1738.5,409.167 1737.5,407.833 1736.5,406.5C 1737.48,405.019 1738.65,403.685 1740,402.5C 1744.08,404.208 1748.08,406.208 1752,408.5C 1754.1,405.3 1755.93,401.967 1757.5,398.5 Z"/></g>
<g><path style="opacity:0.171" fill="#883db3" d="M 1957.5,504.5 C 1969.04,503.208 1973.88,508.208 1972,519.5C 1965.43,527.483 1958.76,527.483 1952,519.5C 1950.09,512.97 1951.92,507.97 1957.5,504.5 Z"/></g>
<g><path style="opacity:0.152" fill="#fe0000" d="M 151.5,648.5 C 153.5,648.5 155.5,648.5 157.5,648.5C 158.314,653.741 156.648,658.241 152.5,662C 156.332,664.223 159.666,666.89 162.5,670C 162.444,672.626 161.277,674.46 159,675.5C 155.911,673.372 152.744,671.372 149.5,669.5C 147.515,671.457 146.015,673.79 145,676.5C 141.533,680.753 138.7,680.42 136.5,675.5C 137.889,671.875 139.889,668.708 142.5,666C 138.111,663.477 134.111,660.477 130.5,657C 131.673,655.495 132.839,653.995 134,652.5C 138.082,654.208 142.082,656.208 146,658.5C 148.099,655.3 149.933,651.967 151.5,648.5 Z"/></g>
<g><path style="opacity:0.169" fill="#eb008b" d="M 1733.5,733.5 C 1746.85,733.167 1760.18,733.501 1773.5,734.5C 1761.16,747.838 1748.16,760.504 1734.5,772.5C 1733.5,759.517 1733.17,746.517 1733.5,733.5 Z M 1752.5,742.5 C 1749.23,745.723 1746.06,749.056 1743,752.5C 1742.5,749.183 1742.33,745.85 1742.5,742.5C 1745.83,742.5 1749.17,742.5 1752.5,742.5 Z"/></g>
<g><path style="opacity:0.166" fill="#00aeef" d="M 53.5,796.5 C 63.3887,794.368 71.222,797.368 77,805.5C 80.9623,816.949 77.7957,825.783 67.5,832C 56.3017,835.062 47.9684,831.562 42.5,821.5C 39.5377,810.135 43.2044,801.801 53.5,796.5 Z M 56.5,805.5 C 68.2178,805.372 71.5511,810.538 66.5,821C 58.3269,825.056 52.9936,822.722 50.5,814C 51.4242,810.287 53.4242,807.454 56.5,805.5 Z"/></g>
</svg>
