<?xml version="1.0" encoding="UTF-8"?>
<!DOCTYPE svg PUBLIC "-//W3C//DTD SVG 1.1//EN" "http://www.w3.org/Graphics/SVG/1.1/DTD/svg11.dtd">
<svg xmlns="http://www.w3.org/2000/svg" version="1.1" width="153px" height="46px" style="shape-rendering:geometricPrecision; text-rendering:geometricPrecision; image-rendering:optimizeQuality; fill-rule:evenodd; clip-rule:evenodd" xmlns:xlink="http://www.w3.org/1999/xlink">
<g><path style="opacity:0.567" fill="#1ea599" d="M 18.5,-0.5 C 21.1667,-0.5 23.8333,-0.5 26.5,-0.5C 32.4639,5.96481 38.6306,12.2981 45,18.5C 45.6667,21.1667 45.6667,23.8333 45,26.5C 38.6306,32.7019 32.4639,39.0352 26.5,45.5C 23.8333,45.5 21.1667,45.5 18.5,45.5C 12.5,38.8333 6.16667,32.5 -0.5,26.5C -0.5,23.8333 -0.5,21.1667 -0.5,18.5C 6.16667,12.5 12.5,6.16667 18.5,-0.5 Z M 20.5,2.5 C 21.8734,2.34332 23.2068,2.50999 24.5,3C 31.0818,9.07706 37.0818,15.5771 42.5,22.5C 36.8333,30.1667 30.1667,36.8333 22.5,42.5C 14.8333,36.8333 8.16667,30.1667 2.5,22.5C 8.12171,15.5422 14.1217,8.87556 20.5,2.5 Z"/></g>
<g><path style="opacity:0.565" fill="#1ea599" d="M 63.5,14.5 C 67.7943,14.1975 70.961,15.8642 73,19.5C 73.1751,23.4464 73.3418,27.2798 73.5,31C 73,31.5 72.5,32 72,32.5C 69.2423,31.8828 66.409,31.7161 63.5,32C 57.9051,29.646 56.0718,25.4793 58,19.5C 59.3516,17.251 61.1849,15.5844 63.5,14.5 Z M 64.5,16.5 C 71.1651,17.8299 72.9984,21.4966 70,27.5C 69.0347,25.7397 67.868,25.4063 66.5,26.5C 66.9767,27.4776 67.6433,28.3109 68.5,29C 63.5459,30.8444 60.5459,29.011 59.5,23.5C 60.0599,20.288 61.7266,17.9547 64.5,16.5 Z"/></g>
<g><path style="opacity:0.584" fill="#1ea599" d="M 76.5,15.5 C 78.2684,19.0442 79.1018,23.0442 79,27.5C 81.4187,30.7366 84.0854,31.07 87,28.5C 87.1725,24.1289 87.6725,19.7956 88.5,15.5C 89.6616,20.1313 89.8283,24.798 89,29.5C 85.6408,33.0885 81.9741,33.4218 78,30.5C 76.6115,25.6278 76.1115,20.6278 76.5,15.5 Z"/></g>
<g><path style="opacity:0.614" fill="#1ea599" d="M 96.5,15.5 C 97.8221,15.33 98.9887,15.6634 100,16.5C 102.038,21.4077 104.205,26.2411 106.5,31C 104.414,31.557 103.081,30.7236 102.5,28.5C 99.8333,27.1667 97.1667,27.1667 94.5,28.5C 93.9193,30.7236 92.5859,31.557 90.5,31C 92.7962,25.9442 94.7962,20.7776 96.5,15.5 Z M 97.5,19.5 C 99.2699,20.8559 100.603,22.6892 101.5,25C 99.5,25.6667 97.5,25.6667 95.5,25C 96.464,23.2745 97.1307,21.4412 97.5,19.5 Z"/></g>
<g><path style="opacity:0.627" fill="#1ea599" d="M 108.5,15.5 C 115.991,13.5713 120.658,16.2379 122.5,23.5C 120.709,30.7393 116.043,33.406 108.5,31.5C 108.5,26.1667 108.5,20.8333 108.5,15.5 Z M 110.5,17.5 C 119.171,17.1785 121.504,20.8452 117.5,28.5C 115.253,29.3742 112.92,29.7076 110.5,29.5C 110.5,25.5 110.5,21.5 110.5,17.5 Z"/></g>
<g><path style="opacity:0.597" fill="#1ea599" d="M 124.5,15.5 C 127.85,15.335 131.183,15.5017 134.5,16C 137.22,19.8753 136.554,23.2086 132.5,26C 133.833,27.6667 135.167,29.3333 136.5,31C 135.5,31.6667 134.5,31.6667 133.5,31C 132.149,27.805 129.815,25.9717 126.5,25.5C 126.799,27.604 126.466,29.604 125.5,31.5C 124.505,26.2079 124.172,20.8746 124.5,15.5 Z M 126.5,17.5 C 128.527,17.3379 130.527,17.5045 132.5,18C 133.833,19.6667 133.833,21.3333 132.5,23C 130.527,23.4955 128.527,23.6621 126.5,23.5C 126.5,21.5 126.5,19.5 126.5,17.5 Z"/></g>
<g><path style="opacity:0.627" fill="#1ea599" d="M 152.5,29.5 C 152.5,30.1667 152.5,30.8333 152.5,31.5C 151.5,31.5 150.5,31.5 149.5,31.5C 149.67,30.1779 149.337,29.0113 148.5,28C 145.854,27.5026 143.187,27.3359 140.5,27.5C 140.883,30.462 139.883,31.462 137.5,30.5C 139.431,25.8729 141.265,21.2062 143,16.5C 143.561,15.9781 144.228,15.6448 145,15.5C 147.786,20.034 150.286,24.7006 152.5,29.5 Z M 144.5,18.5 C 145.481,20.396 146.481,22.396 147.5,24.5C 145.955,25.4519 144.288,25.7852 142.5,25.5C 142.878,23.079 143.545,20.7457 144.5,18.5 Z"/></g>
<g><path style="opacity:0.975" fill="#1ea599" d="M 16.5,16.5 C 20.5,16.5 24.5,16.5 28.5,16.5C 28.5,20.5 28.5,24.5 28.5,28.5C 24.5,28.5 20.5,28.5 16.5,28.5C 16.5,24.5 16.5,20.5 16.5,16.5 Z"/></g>
</svg>
