<?xml version="1.0" encoding="UTF-8"?>
<!DOCTYPE svg PUBLIC "-//W3C//DTD SVG 1.1//EN" "http://www.w3.org/Graphics/SVG/1.1/DTD/svg11.dtd">
<svg xmlns="http://www.w3.org/2000/svg" version="1.1" width="139px" height="46px" style="shape-rendering:geometricPrecision; text-rendering:geometricPrecision; image-rendering:optimizeQuality; fill-rule:evenodd; clip-rule:evenodd" xmlns:xlink="http://www.w3.org/1999/xlink">
<g><path style="opacity:0.871" fill="#1ea599" d="M 0.5,7.5 C 10.5,7.5 20.5,7.5 30.5,7.5C 30.6664,15.84 30.4997,24.1733 30,32.5C 20.5,25 11,17.5 1.5,10C 0.747561,9.32924 0.414228,8.4959 0.5,7.5 Z"/></g>
<g><path style="opacity:0.814" fill="#1ea599" d="M 43.5,8.5 C 46.8333,8.5 50.1667,8.5 53.5,8.5C 53.5,10.1667 53.5,11.8333 53.5,13.5C 51.8333,13.5 50.1667,13.5 48.5,13.5C 48.5,15.5 48.5,17.5 48.5,19.5C 49.5,19.5 50.5,19.5 51.5,19.5C 51.5,21.1667 51.5,22.8333 51.5,24.5C 50.5,24.5 49.5,24.5 48.5,24.5C 48.5,26.8333 48.5,29.1667 48.5,31.5C 50.1667,31.5 51.8333,31.5 53.5,31.5C 53.5,32.8333 53.5,34.1667 53.5,35.5C 50.1667,35.5 46.8333,35.5 43.5,35.5C 43.5,26.5 43.5,17.5 43.5,8.5 Z"/></g>
<g><path style="opacity:0.786" fill="#1ea599" d="M 59.5,8.5 C 65.5,7.83333 68.1667,10.5 67.5,16.5C 64.5203,16.7589 62.687,15.4256 62,12.5C 61.3076,13.0253 60.8076,13.6919 60.5,14.5C 62.4674,18.297 64.6341,21.9636 67,25.5C 68.8935,30.9846 67.2269,34.6513 62,36.5C 57.4276,35.3456 55.2609,32.3456 55.5,27.5C 57.1667,27.5 58.8333,27.5 60.5,27.5C 60.238,28.9778 60.5713,30.3112 61.5,31.5C 62.5,31.1667 63.1667,30.5 63.5,29.5C 60.0315,25.203 57.6982,20.3696 56.5,15C 56.3199,12.1979 57.3199,10.0313 59.5,8.5 Z"/></g>
<g><path style="opacity:0.786" fill="#1ea599" d="M 73.5,8.5 C 79.5,7.83333 82.1667,10.5 81.5,16.5C 78.5203,16.7589 76.687,15.4256 76,12.5C 75.3076,13.0253 74.8076,13.6919 74.5,14.5C 76.4674,18.297 78.6341,21.9636 81,25.5C 82.8935,30.9846 81.2269,34.6513 76,36.5C 71.4276,35.3456 69.2609,32.3456 69.5,27.5C 71.1667,27.5 72.8333,27.5 74.5,27.5C 74.238,28.9778 74.5713,30.3112 75.5,31.5C 76.5,31.1667 77.1667,30.5 77.5,29.5C 74.0315,25.203 71.6982,20.3696 70.5,15C 70.3199,12.1979 71.3199,10.0313 73.5,8.5 Z"/></g>
<g><path style="opacity:0.814" fill="#1ea599" d="M 84.5,8.5 C 87.8333,8.5 91.1667,8.5 94.5,8.5C 94.5,10.1667 94.5,11.8333 94.5,13.5C 92.8333,13.5 91.1667,13.5 89.5,13.5C 89.5,15.5 89.5,17.5 89.5,19.5C 90.5,19.5 91.5,19.5 92.5,19.5C 92.5,21.1667 92.5,22.8333 92.5,24.5C 91.5,24.5 90.5,24.5 89.5,24.5C 89.5,26.8333 89.5,29.1667 89.5,31.5C 91.1667,31.5 92.8333,31.5 94.5,31.5C 94.5,32.8333 94.5,34.1667 94.5,35.5C 91.1667,35.5 87.8333,35.5 84.5,35.5C 84.5,26.5 84.5,17.5 84.5,8.5 Z"/></g>
<g><path style="opacity:0.841" fill="#1ea599" d="M 97.5,8.5 C 99.1439,8.28649 100.644,8.61983 102,9.5C 104.898,24.0871 106.064,23.7537 105.5,8.5C 106.833,8.5 108.167,8.5 109.5,8.5C 109.5,17.5 109.5,26.5 109.5,35.5C 107.856,35.7135 106.356,35.3802 105,34.5C 102.102,19.9129 100.936,20.2463 101.5,35.5C 100.167,35.5 98.8333,35.5 97.5,35.5C 97.5,26.5 97.5,17.5 97.5,8.5 Z"/></g>
<g><path style="opacity:0.778" fill="#1ea599" d="M 116.5,8.5 C 122.905,8.58602 125.572,11.9194 124.5,18.5C 122.833,18.5 121.167,18.5 119.5,18.5C 118.183,20.4627 118.183,23.1294 119.5,26.5C 121.167,26.5 122.833,26.5 124.5,26.5C 125.494,31.5212 123.66,34.8546 119,36.5C 117.018,36.0097 115.351,35.0097 114,33.5C 113.333,26.1667 113.333,18.8333 114,11.5C 114.698,10.3094 115.531,9.30943 116.5,8.5 Z"/></g>
<g><path style="opacity:0.814" fill="#1ea599" d="M 138.5,8.5 C 138.5,10.1667 138.5,11.8333 138.5,13.5C 136.833,13.5 135.167,13.5 133.5,13.5C 133.5,15.5 133.5,17.5 133.5,19.5C 134.5,19.5 135.5,19.5 136.5,19.5C 136.5,21.1667 136.5,22.8333 136.5,24.5C 135.5,24.5 134.5,24.5 133.5,24.5C 133.5,26.8333 133.5,29.1667 133.5,31.5C 135.167,31.5 136.833,31.5 138.5,31.5C 138.5,32.8333 138.5,34.1667 138.5,35.5C 135.167,35.5 131.833,35.5 128.5,35.5C 128.5,26.5 128.5,17.5 128.5,8.5C 131.833,8.5 135.167,8.5 138.5,8.5 Z"/></g>
<g><path style="opacity:0.87" fill="#1ea599" d="M -0.5,11.5 C 9.79406,19.1269 19.7941,27.1269 29.5,35.5C 19.5222,36.4985 9.52216,36.8319 -0.5,36.5C -0.5,28.1667 -0.5,19.8333 -0.5,11.5 Z"/></g>
</svg>
