<?xml version="1.0" encoding="UTF-8"?>
<!DOCTYPE svg PUBLIC "-//W3C//DTD SVG 1.1//EN" "http://www.w3.org/Graphics/SVG/1.1/DTD/svg11.dtd">
<svg xmlns="http://www.w3.org/2000/svg" version="1.1" width="212px" height="46px" style="shape-rendering:geometricPrecision; text-rendering:geometricPrecision; image-rendering:optimizeQuality; fill-rule:evenodd; clip-rule:evenodd" xmlns:xlink="http://www.w3.org/1999/xlink">
<g><path style="opacity:0.899" fill="#1ea599" d="M -0.5,37.5 C -0.5,37.1667 -0.5,36.8333 -0.5,36.5C 3.08344,33.4331 7.08344,30.9331 11.5,29C 5.23604,28.5266 4.90271,26.8599 10.5,24C 18.5003,19.8867 26.5003,19.72 34.5,23.5C 30.7016,18.5239 30.7016,13.6905 34.5,9C 39.7507,6.75015 43.7507,8.08349 46.5,13C 45.6681,15.4783 45.5014,17.9783 46,20.5C 44.1667,18.6667 42.3333,16.8333 40.5,15C 39.3999,14.5683 38.7332,15.0683 38.5,16.5C 41.4683,20.9681 44.9683,24.9681 49,28.5C 49.7772,31.4294 49.6105,34.2628 48.5,37C 32.1701,37.4999 15.8367,37.6666 -0.5,37.5 Z M 34.5,23.5 C 36.2624,24.2623 37.2624,25.5956 37.5,27.5C 35.7376,26.7377 34.7376,25.4044 34.5,23.5 Z"/></g>
<g><path style="opacity:0.546" fill="#1ea599" d="M 114.5,17.5 C 117.655,17.6053 120.322,18.7719 122.5,21C 122,21.5 121.5,22 121,22.5C 113.996,18.1703 110.329,20.1703 110,28.5C 112.807,34.0754 116.473,34.742 121,30.5C 121.5,31 122,31.5 122.5,32C 118.345,36.4379 114.011,36.6046 109.5,32.5C 105.648,25.4943 107.314,20.4943 114.5,17.5 Z"/></g>
<g><path style="opacity:0.579" fill="#1ea599" d="M 150.5,17.5 C 153.316,17.5442 155.649,18.5442 157.5,20.5C 155.548,21.1033 153.548,20.77 151.5,19.5C 149.525,20.2752 148.691,21.6086 149,23.5C 151.071,24.5248 153.238,25.3581 155.5,26C 159.669,30.8584 158.502,34.025 152,35.5C 149.4,35.0823 147.233,33.9156 145.5,32C 146,31.5 146.5,31 147,30.5C 150.161,33.9285 152.994,33.9285 155.5,30.5C 155.167,29.8333 154.833,29.1667 154.5,28.5C 152.085,27.6948 149.751,26.6948 147.5,25.5C 145.582,21.5004 146.582,18.8338 150.5,17.5 Z"/></g>
<g><path style="opacity:0.648" fill="#1ea599" d="M 65.5,18.5 C 68.8499,18.335 72.1832,18.5017 75.5,19C 76.7883,21.4665 76.7883,23.9665 75.5,26.5C 78.0443,29.0532 78.0443,31.5532 75.5,34C 72.1832,34.4983 68.8499,34.665 65.5,34.5C 65.5,29.1667 65.5,23.8333 65.5,18.5 Z M 67.5,20.5 C 69.5273,20.3379 71.5273,20.5045 73.5,21C 74.8333,22.3333 74.8333,23.6667 73.5,25C 71.5273,25.4955 69.5273,25.6621 67.5,25.5C 67.5,23.8333 67.5,22.1667 67.5,20.5 Z M 67.5,27.5 C 69.5273,27.3379 71.5273,27.5045 73.5,28C 74.3802,29.3561 74.7135,30.8561 74.5,32.5C 72.1667,32.5 69.8333,32.5 67.5,32.5C 67.5,30.8333 67.5,29.1667 67.5,27.5 Z"/></g>
<g><path style="opacity:0.604" fill="#1ea599" d="M 80.5,18.5 C 82.4364,22.7147 83.1031,27.3814 82.5,32.5C 85.2469,32.1866 87.9135,32.52 90.5,33.5C 87.2317,34.487 83.8984,34.8204 80.5,34.5C 80.5,29.1667 80.5,23.8333 80.5,18.5 Z"/></g>
<g><path style="opacity:0.614" fill="#1ea599" d="M 97.5,18.5 C 98.8221,18.33 99.9887,18.6634 101,19.5C 103.038,24.4077 105.205,29.2411 107.5,34C 105.414,34.557 104.081,33.7236 103.5,31.5C 100.833,30.1667 98.1667,30.1667 95.5,31.5C 94.9193,33.7236 93.5859,34.557 91.5,34C 93.7962,28.9442 95.7962,23.7776 97.5,18.5 Z M 98.5,22.5 C 100.27,23.8559 101.603,25.6892 102.5,28C 100.5,28.6667 98.5,28.6667 96.5,28C 97.464,26.2745 98.1307,24.4412 98.5,22.5 Z"/></g>
<g><path style="opacity:0.601" fill="#1ea599" d="M 125.5,18.5 C 127.197,20.3052 128.03,22.6385 128,25.5C 129.802,21.665 132.635,19.4984 136.5,19C 133.93,21.0673 131.93,23.5673 130.5,26.5C 139.736,36.0283 139.07,36.695 128.5,28.5C 127.833,30.5 127.167,32.5 126.5,34.5C 125.505,29.2079 125.172,23.8746 125.5,18.5 Z"/></g>
<g><path style="opacity:0.59" fill="#1ea599" d="M 159.5,18.5 C 160.5,18.5 161.5,18.5 162.5,18.5C 164.063,32.9532 166.063,32.9532 168.5,18.5C 169.5,18.5 170.5,18.5 171.5,18.5C 173.937,32.9532 175.937,32.9532 177.5,18.5C 178.675,18.281 179.675,18.6143 180.5,19.5C 178.695,24.3895 177.361,29.3895 176.5,34.5C 175.178,34.67 174.011,34.3366 173,33.5C 172.156,29.7894 171.156,26.1228 170,22.5C 169,26.1667 168,29.8333 167,33.5C 166.282,34.4506 165.449,34.6172 164.5,34C 162.449,28.962 160.782,23.7953 159.5,18.5 Z"/></g>
<g><path style="opacity:0.614" fill="#1ea599" d="M 185.5,18.5 C 186.822,18.33 187.989,18.6634 189,19.5C 191.038,24.4077 193.205,29.2411 195.5,34C 193.414,34.557 192.081,33.7236 191.5,31.5C 188.833,30.1667 186.167,30.1667 183.5,31.5C 182.919,33.7236 181.586,34.557 179.5,34C 181.796,28.9442 183.796,23.7776 185.5,18.5 Z M 186.5,22.5 C 188.27,23.8559 189.603,25.6892 190.5,28C 188.5,28.6667 186.5,28.6667 184.5,28C 185.464,26.2745 186.131,24.4412 186.5,22.5 Z"/></g>
<g><path style="opacity:0.608" fill="#1ea599" d="M 211.5,18.5 C 211.5,23.8333 211.5,29.1667 211.5,34.5C 210.178,34.67 209.011,34.3366 208,33.5C 205.578,29.6562 202.911,25.9895 200,22.5C 199.827,26.5408 199.327,30.5408 198.5,34.5C 197.505,29.2079 197.172,23.8746 197.5,18.5C 198.822,18.33 199.989,18.6634 201,19.5C 203.422,23.3438 206.089,27.0105 209,30.5C 208.898,26.0442 209.732,22.0442 211.5,18.5 Z"/></g>
</svg>
