<?xml version="1.0" encoding="UTF-8"?>
<!DOCTYPE svg PUBLIC "-//W3C//DTD SVG 1.1//EN" "http://www.w3.org/Graphics/SVG/1.1/DTD/svg11.dtd">
<svg xmlns="http://www.w3.org/2000/svg" version="1.1" width="159px" height="46px" style="shape-rendering:geometricPrecision; text-rendering:geometricPrecision; image-rendering:optimizeQuality; fill-rule:evenodd; clip-rule:evenodd" xmlns:xlink="http://www.w3.org/1999/xlink">
<g><path style="opacity:0.905" fill="#1ea599" d="M -0.5,16.5 C -0.5,15.8333 -0.5,15.1667 -0.5,14.5C 0.829296,11.5201 3.16263,10.1868 6.5,10.5C 7.1171,4.01555 10.2838,2.34888 16,5.5C 17.0086,7.02494 17.5086,8.69161 17.5,10.5C 24.8029,11.2666 26.1363,14.4332 21.5,20C 20.2068,20.49 18.8734,20.6567 17.5,20.5C 17.6646,23.5184 17.498,26.5184 17,29.5C 14.4192,33.0567 11.4192,33.39 8,30.5C 6.6557,27.5022 6.48903,24.5022 7.5,21.5C 4.09525,20.8087 1.42858,19.1421 -0.5,16.5 Z"/></g>
<g><path style="opacity:0.868" fill="#1ea599" d="M 102.5,3.5 C 108.651,4.10291 109.984,6.93625 106.5,12C 107.667,13.1667 108.833,14.3333 110,15.5C 110.667,20.1667 110.667,24.8333 110,29.5C 107.029,33.0917 103.696,33.4251 100,30.5C 98,25.5 98,20.5 100,15.5C 100.5,14.3333 101.333,13.5 102.5,13C 98.5111,9.65805 98.5111,6.49138 102.5,3.5 Z"/></g>
<g><path style="opacity:0.916" fill="#1ea599" d="M 128.5,3.5 C 132.09,3.54411 134.59,5.21077 136,8.5C 136.802,13.419 136.635,18.2523 135.5,23C 137.444,25.1529 137.944,27.6529 137,30.5C 130.94,31.9503 124.773,32.4503 118.5,32C 111.983,27.7554 110.817,22.2554 115,15.5C 118.243,13.7375 121.743,13.0708 125.5,13.5C 124.858,9.52512 125.858,6.19179 128.5,3.5 Z"/></g>
<g><path style="opacity:0.902" fill="#1ea599" d="M 74.5,4.5 C 79.9915,3.03977 83.1582,5.03977 84,10.5C 91,6.5 94,8.5 93,16.5C 92.6258,17.4162 92.1258,18.2496 91.5,19C 95.9279,22.4214 96.9279,26.4214 94.5,31C 89.6748,33.0122 86.1748,31.5122 84,26.5C 81.7703,33.0768 78.1037,34.0768 73,29.5C 70.66,20.9349 71.16,12.6015 74.5,4.5 Z"/></g>
<g><path style="opacity:0.883" fill="#1ea599" d="M 158.5,14.5 C 158.5,15.8333 158.5,17.1667 158.5,18.5C 154.5,20.1667 154.5,21.8333 158.5,23.5C 158.5,25.5 158.5,27.5 158.5,29.5C 153.242,33.5847 147.575,34.2514 141.5,31.5C 138.574,27.5196 139.574,24.6863 144.5,23C 140.056,20.8886 139.389,17.8886 142.5,14C 147.987,10.7857 153.321,10.9523 158.5,14.5 Z"/></g>
<g><path style="opacity:0.883" fill="#1ea599" d="M 31.5,12.5 C 43.3413,11.8411 47.508,17.1744 44,28.5C 40.604,32.2027 36.4374,33.3694 31.5,32C 25.3447,28.8735 23.5114,24.0402 26,17.5C 27.3516,15.251 29.1849,13.5844 31.5,12.5 Z"/></g>
<g><path style="opacity:0.901" fill="#1ea599" d="M 49.5,12.5 C 53.5174,12.3419 56.5174,14.0086 58.5,17.5C 63.0681,10.6629 67.0681,10.8295 70.5,18C 68.893,25.7133 65.5597,32.5466 60.5,38.5C 53.7537,41.2669 50.9204,38.9336 52,31.5C 52.3742,30.5838 52.8742,29.7504 53.5,29C 50.9598,26.7953 48.7932,24.2953 47,21.5C 45.9302,17.8579 46.7636,14.8579 49.5,12.5 Z"/></g>
</svg>
