<?xml version="1.0" encoding="UTF-8"?>
<!DOCTYPE svg PUBLIC "-//W3C//DTD SVG 1.1//EN" "http://www.w3.org/Graphics/SVG/1.1/DTD/svg11.dtd">
<svg xmlns="http://www.w3.org/2000/svg" version="1.1" width="512px" height="512px" style="shape-rendering:geometricPrecision; text-rendering:geometricPrecision; image-rendering:optimizeQuality; fill-rule:evenodd; clip-rule:evenodd" xmlns:xlink="http://www.w3.org/1999/xlink">
<g><path style="opacity:0.988" fill="#000000" d="M 325.5,88.5 C 353.127,86.9828 376.627,95.9828 396,115.5C 414.374,111.043 431.707,104.043 448,94.5C 443.465,114.037 432.632,129.203 415.5,140C 418.866,140.33 422.199,139.997 425.5,139C 437.323,135.832 448.99,132.499 460.5,129C 448.918,146.583 434.585,161.583 417.5,174C 419.027,253.268 390.027,318.935 330.5,371C 280.048,410.365 222.715,427.365 158.5,422C 119.12,418.429 82.7864,406.096 49.5,385C 85.0739,387.905 118.741,381.238 150.5,365C 157.936,360.719 164.936,355.886 171.5,350.5C 134.175,346.182 108.842,326.515 95.5,291.5C 95.8333,291.167 96.1667,290.833 96.5,290.5C 108.163,292.973 119.829,292.806 131.5,290C 90.0972,277.029 68.5972,248.862 67,205.5C 77.6322,211.935 89.1322,215.101 101.5,215C 66.0884,184.511 58.255,148.011 78,105.5C 78.7175,104.549 79.5509,104.383 80.5,105C 125.194,157.848 182.194,186.514 251.5,191C 244.757,151.158 258.424,120.491 292.5,99C 303.012,93.5497 314.012,90.0497 325.5,88.5 Z"/></g>
</svg>
