<?xml version="1.0" encoding="UTF-8"?>
<!DOCTYPE svg PUBLIC "-//W3C//DTD SVG 1.1//EN" "http://www.w3.org/Graphics/SVG/1.1/DTD/svg11.dtd">
<svg xmlns="http://www.w3.org/2000/svg" version="1.1" width="171px" height="21px" style="shape-rendering:geometricPrecision; text-rendering:geometricPrecision; image-rendering:optimizeQuality; fill-rule:evenodd; clip-rule:evenodd" xmlns:xlink="http://www.w3.org/1999/xlink">
<g><path style="opacity:0.477" fill="#1ea599" d="M 163.5,-0.5 C 164.833,-0.5 166.167,-0.5 167.5,-0.5C 169.51,1.02308 169.844,2.85641 168.5,5C 140.461,6.87477 112.461,9.2081 84.5,12C 112.492,12.9817 140.492,13.6483 168.5,14C 169.38,15.3561 169.714,16.8561 169.5,18.5C 124.715,18.4675 80.048,17.6342 35.5,16C 32.1182,15.8236 28.7848,15.3236 25.5,14.5C 22.4155,10.8563 22.9155,9.52293 27,10.5C 42.4675,8.97687 57.9675,7.8102 73.5,7C 50.3172,6.76537 27.1505,7.26537 4,8.5C 2.40846,8.39478 0.908458,8.06144 -0.5,7.5C -0.5,6.16667 -0.5,4.83333 -0.5,3.5C 54.3282,2.43501 108.995,1.10167 163.5,-0.5 Z"/></g>
</svg>
