<?xml version="1.0" encoding="UTF-8"?>
<!DOCTYPE svg PUBLIC "-//W3C//DTD SVG 1.1//EN" "http://www.w3.org/Graphics/SVG/1.1/DTD/svg11.dtd">
<svg xmlns="http://www.w3.org/2000/svg" version="1.1" width="512px" height="512px" style="shape-rendering:geometricPrecision; text-rendering:geometricPrecision; image-rendering:optimizeQuality; fill-rule:evenodd; clip-rule:evenodd" xmlns:xlink="http://www.w3.org/1999/xlink">
<g><path style="opacity:1" fill="#22a499" d="M 83.5,-0.5 C 187.167,-0.5 290.833,-0.5 394.5,-0.5C 406.817,0.954541 419.151,3.12121 431.5,6C 454.102,14.9453 467.602,31.4453 472,55.5C 475.982,77.6563 478.316,99.9897 479,122.5C 479.667,148.833 479.667,175.167 479,201.5C 478.432,229.187 475.098,256.52 469,283.5C 467.663,287.507 465.83,291.173 463.5,294.5C 461.926,294.937 460.759,295.937 460,297.5C 459.308,298.437 459.475,299.103 460.5,299.5C 452.082,310.745 441.082,318.245 427.5,322C 404.665,325.894 381.665,328.227 358.5,329C 274.15,332.569 189.816,332.235 105.5,328C 88.028,327.17 70.6946,325.17 53.5,322C 33.1886,317.024 19.0219,304.857 11,285.5C 7.64472,274.724 5.31139,263.724 4,252.5C 2.20765,235.371 0.707645,218.371 -0.5,201.5C -0.5,175.833 -0.5,150.167 -0.5,124.5C 0.799157,101.521 3.29916,78.5213 7,55.5C 11.3108,31.8633 24.4775,15.3633 46.5,6C 58.8118,2.93595 71.1451,0.769283 83.5,-0.5 Z M 192.5,92.5 C 233.303,115.736 273.969,139.236 314.5,163C 274.296,186.7 233.963,210.2 193.5,233.5C 192.5,186.505 192.167,139.505 192.5,92.5 Z"/></g>
<g><path style="opacity:0.192" fill="#a54ab1" d="M 463.5,294.5 C 462.752,296.332 461.752,297.999 460.5,299.5C 459.475,299.103 459.308,298.437 460,297.5C 460.759,295.937 461.926,294.937 463.5,294.5 Z"/></g>
</svg>
